%TF.GenerationSoftware,KiCad,Pcbnew,10.0.2*%
%TF.CreationDate,2026-07-16T20:02:55+09:00*%
%TF.ProjectId,test_v4,74657374-5f76-4342-9e6b-696361645f70,rev?*%
%TF.SameCoordinates,PX5746964PY8a48640*%
%TF.FileFunction,Legend,Top*%
%TF.FilePolarity,Positive*%
%FSLAX46Y46*%
G04 Gerber Fmt 4.6, Leading zero omitted, Abs format (unit mm)*
G04 Created by KiCad (PCBNEW 10.0.2) date 2026-07-16 20:02:55*
%MOMM*%
%LPD*%
G01*
G04 APERTURE LIST*
%ADD10C,0.150000*%
%ADD11C,0.120000*%
G04 APERTURE END LIST*
D10*
X77568097Y35240420D02*
X77520478Y35192800D01*
X77520478Y35192800D02*
X77377621Y35145181D01*
X77377621Y35145181D02*
X77282383Y35145181D01*
X77282383Y35145181D02*
X77139526Y35192800D01*
X77139526Y35192800D02*
X77044288Y35288039D01*
X77044288Y35288039D02*
X76996669Y35383277D01*
X76996669Y35383277D02*
X76949050Y35573753D01*
X76949050Y35573753D02*
X76949050Y35716610D01*
X76949050Y35716610D02*
X76996669Y35907086D01*
X76996669Y35907086D02*
X77044288Y36002324D01*
X77044288Y36002324D02*
X77139526Y36097562D01*
X77139526Y36097562D02*
X77282383Y36145181D01*
X77282383Y36145181D02*
X77377621Y36145181D01*
X77377621Y36145181D02*
X77520478Y36097562D01*
X77520478Y36097562D02*
X77568097Y36049943D01*
X78044288Y35145181D02*
X78234764Y35145181D01*
X78234764Y35145181D02*
X78330002Y35192800D01*
X78330002Y35192800D02*
X78377621Y35240420D01*
X78377621Y35240420D02*
X78472859Y35383277D01*
X78472859Y35383277D02*
X78520478Y35573753D01*
X78520478Y35573753D02*
X78520478Y35954705D01*
X78520478Y35954705D02*
X78472859Y36049943D01*
X78472859Y36049943D02*
X78425240Y36097562D01*
X78425240Y36097562D02*
X78330002Y36145181D01*
X78330002Y36145181D02*
X78139526Y36145181D01*
X78139526Y36145181D02*
X78044288Y36097562D01*
X78044288Y36097562D02*
X77996669Y36049943D01*
X77996669Y36049943D02*
X77949050Y35954705D01*
X77949050Y35954705D02*
X77949050Y35716610D01*
X77949050Y35716610D02*
X77996669Y35621372D01*
X77996669Y35621372D02*
X78044288Y35573753D01*
X78044288Y35573753D02*
X78139526Y35526134D01*
X78139526Y35526134D02*
X78330002Y35526134D01*
X78330002Y35526134D02*
X78425240Y35573753D01*
X78425240Y35573753D02*
X78472859Y35621372D01*
X78472859Y35621372D02*
X78520478Y35716610D01*
X120818097Y50895181D02*
X120484764Y51371372D01*
X120246669Y50895181D02*
X120246669Y51895181D01*
X120246669Y51895181D02*
X120627621Y51895181D01*
X120627621Y51895181D02*
X120722859Y51847562D01*
X120722859Y51847562D02*
X120770478Y51799943D01*
X120770478Y51799943D02*
X120818097Y51704705D01*
X120818097Y51704705D02*
X120818097Y51561848D01*
X120818097Y51561848D02*
X120770478Y51466610D01*
X120770478Y51466610D02*
X120722859Y51418991D01*
X120722859Y51418991D02*
X120627621Y51371372D01*
X120627621Y51371372D02*
X120246669Y51371372D01*
X121770478Y50895181D02*
X121199050Y50895181D01*
X121484764Y50895181D02*
X121484764Y51895181D01*
X121484764Y51895181D02*
X121389526Y51752324D01*
X121389526Y51752324D02*
X121294288Y51657086D01*
X121294288Y51657086D02*
X121199050Y51609467D01*
X70841906Y64320420D02*
X70794287Y64272800D01*
X70794287Y64272800D02*
X70651430Y64225181D01*
X70651430Y64225181D02*
X70556192Y64225181D01*
X70556192Y64225181D02*
X70413335Y64272800D01*
X70413335Y64272800D02*
X70318097Y64368039D01*
X70318097Y64368039D02*
X70270478Y64463277D01*
X70270478Y64463277D02*
X70222859Y64653753D01*
X70222859Y64653753D02*
X70222859Y64796610D01*
X70222859Y64796610D02*
X70270478Y64987086D01*
X70270478Y64987086D02*
X70318097Y65082324D01*
X70318097Y65082324D02*
X70413335Y65177562D01*
X70413335Y65177562D02*
X70556192Y65225181D01*
X70556192Y65225181D02*
X70651430Y65225181D01*
X70651430Y65225181D02*
X70794287Y65177562D01*
X70794287Y65177562D02*
X70841906Y65129943D01*
X71794287Y64225181D02*
X71222859Y64225181D01*
X71508573Y64225181D02*
X71508573Y65225181D01*
X71508573Y65225181D02*
X71413335Y65082324D01*
X71413335Y65082324D02*
X71318097Y64987086D01*
X71318097Y64987086D02*
X71222859Y64939467D01*
X72127621Y65225181D02*
X72794287Y65225181D01*
X72794287Y65225181D02*
X72365716Y64225181D01*
X62841906Y42960420D02*
X62794287Y42912800D01*
X62794287Y42912800D02*
X62651430Y42865181D01*
X62651430Y42865181D02*
X62556192Y42865181D01*
X62556192Y42865181D02*
X62413335Y42912800D01*
X62413335Y42912800D02*
X62318097Y43008039D01*
X62318097Y43008039D02*
X62270478Y43103277D01*
X62270478Y43103277D02*
X62222859Y43293753D01*
X62222859Y43293753D02*
X62222859Y43436610D01*
X62222859Y43436610D02*
X62270478Y43627086D01*
X62270478Y43627086D02*
X62318097Y43722324D01*
X62318097Y43722324D02*
X62413335Y43817562D01*
X62413335Y43817562D02*
X62556192Y43865181D01*
X62556192Y43865181D02*
X62651430Y43865181D01*
X62651430Y43865181D02*
X62794287Y43817562D01*
X62794287Y43817562D02*
X62841906Y43769943D01*
X63222859Y43769943D02*
X63270478Y43817562D01*
X63270478Y43817562D02*
X63365716Y43865181D01*
X63365716Y43865181D02*
X63603811Y43865181D01*
X63603811Y43865181D02*
X63699049Y43817562D01*
X63699049Y43817562D02*
X63746668Y43769943D01*
X63746668Y43769943D02*
X63794287Y43674705D01*
X63794287Y43674705D02*
X63794287Y43579467D01*
X63794287Y43579467D02*
X63746668Y43436610D01*
X63746668Y43436610D02*
X63175240Y42865181D01*
X63175240Y42865181D02*
X63794287Y42865181D01*
X64413335Y43865181D02*
X64508573Y43865181D01*
X64508573Y43865181D02*
X64603811Y43817562D01*
X64603811Y43817562D02*
X64651430Y43769943D01*
X64651430Y43769943D02*
X64699049Y43674705D01*
X64699049Y43674705D02*
X64746668Y43484229D01*
X64746668Y43484229D02*
X64746668Y43246134D01*
X64746668Y43246134D02*
X64699049Y43055658D01*
X64699049Y43055658D02*
X64651430Y42960420D01*
X64651430Y42960420D02*
X64603811Y42912800D01*
X64603811Y42912800D02*
X64508573Y42865181D01*
X64508573Y42865181D02*
X64413335Y42865181D01*
X64413335Y42865181D02*
X64318097Y42912800D01*
X64318097Y42912800D02*
X64270478Y42960420D01*
X64270478Y42960420D02*
X64222859Y43055658D01*
X64222859Y43055658D02*
X64175240Y43246134D01*
X64175240Y43246134D02*
X64175240Y43484229D01*
X64175240Y43484229D02*
X64222859Y43674705D01*
X64222859Y43674705D02*
X64270478Y43769943D01*
X64270478Y43769943D02*
X64318097Y43817562D01*
X64318097Y43817562D02*
X64413335Y43865181D01*
X128437083Y60166667D02*
X129151368Y60166667D01*
X129151368Y60166667D02*
X129294225Y60119048D01*
X129294225Y60119048D02*
X129389464Y60023810D01*
X129389464Y60023810D02*
X129437083Y59880953D01*
X129437083Y59880953D02*
X129437083Y59785715D01*
X129437083Y61166667D02*
X129437083Y60595239D01*
X129437083Y60880953D02*
X128437083Y60880953D01*
X128437083Y60880953D02*
X128579940Y60785715D01*
X128579940Y60785715D02*
X128675178Y60690477D01*
X128675178Y60690477D02*
X128722797Y60595239D01*
X70841906Y57820420D02*
X70794287Y57772800D01*
X70794287Y57772800D02*
X70651430Y57725181D01*
X70651430Y57725181D02*
X70556192Y57725181D01*
X70556192Y57725181D02*
X70413335Y57772800D01*
X70413335Y57772800D02*
X70318097Y57868039D01*
X70318097Y57868039D02*
X70270478Y57963277D01*
X70270478Y57963277D02*
X70222859Y58153753D01*
X70222859Y58153753D02*
X70222859Y58296610D01*
X70222859Y58296610D02*
X70270478Y58487086D01*
X70270478Y58487086D02*
X70318097Y58582324D01*
X70318097Y58582324D02*
X70413335Y58677562D01*
X70413335Y58677562D02*
X70556192Y58725181D01*
X70556192Y58725181D02*
X70651430Y58725181D01*
X70651430Y58725181D02*
X70794287Y58677562D01*
X70794287Y58677562D02*
X70841906Y58629943D01*
X71222859Y58629943D02*
X71270478Y58677562D01*
X71270478Y58677562D02*
X71365716Y58725181D01*
X71365716Y58725181D02*
X71603811Y58725181D01*
X71603811Y58725181D02*
X71699049Y58677562D01*
X71699049Y58677562D02*
X71746668Y58629943D01*
X71746668Y58629943D02*
X71794287Y58534705D01*
X71794287Y58534705D02*
X71794287Y58439467D01*
X71794287Y58439467D02*
X71746668Y58296610D01*
X71746668Y58296610D02*
X71175240Y57725181D01*
X71175240Y57725181D02*
X71794287Y57725181D01*
X72175240Y58629943D02*
X72222859Y58677562D01*
X72222859Y58677562D02*
X72318097Y58725181D01*
X72318097Y58725181D02*
X72556192Y58725181D01*
X72556192Y58725181D02*
X72651430Y58677562D01*
X72651430Y58677562D02*
X72699049Y58629943D01*
X72699049Y58629943D02*
X72746668Y58534705D01*
X72746668Y58534705D02*
X72746668Y58439467D01*
X72746668Y58439467D02*
X72699049Y58296610D01*
X72699049Y58296610D02*
X72127621Y57725181D01*
X72127621Y57725181D02*
X72746668Y57725181D01*
X111818097Y55320420D02*
X111770478Y55272800D01*
X111770478Y55272800D02*
X111627621Y55225181D01*
X111627621Y55225181D02*
X111532383Y55225181D01*
X111532383Y55225181D02*
X111389526Y55272800D01*
X111389526Y55272800D02*
X111294288Y55368039D01*
X111294288Y55368039D02*
X111246669Y55463277D01*
X111246669Y55463277D02*
X111199050Y55653753D01*
X111199050Y55653753D02*
X111199050Y55796610D01*
X111199050Y55796610D02*
X111246669Y55987086D01*
X111246669Y55987086D02*
X111294288Y56082324D01*
X111294288Y56082324D02*
X111389526Y56177562D01*
X111389526Y56177562D02*
X111532383Y56225181D01*
X111532383Y56225181D02*
X111627621Y56225181D01*
X111627621Y56225181D02*
X111770478Y56177562D01*
X111770478Y56177562D02*
X111818097Y56129943D01*
X112770478Y55225181D02*
X112199050Y55225181D01*
X112484764Y55225181D02*
X112484764Y56225181D01*
X112484764Y56225181D02*
X112389526Y56082324D01*
X112389526Y56082324D02*
X112294288Y55987086D01*
X112294288Y55987086D02*
X112199050Y55939467D01*
X65080002Y42049943D02*
X65603811Y42049943D01*
X65603811Y42049943D02*
X65603811Y41811848D01*
X65603811Y41811848D02*
X65556192Y41573753D01*
X65556192Y41573753D02*
X65460954Y41430896D01*
X65460954Y41430896D02*
X65318097Y41335658D01*
X65318097Y41335658D02*
X65127621Y41240420D01*
X66175240Y41335658D02*
X66651430Y41335658D01*
X66222859Y41859467D02*
X66603811Y41859467D01*
X66413335Y41859467D02*
X66413335Y41335658D01*
X67222859Y42097562D02*
X67699049Y42097562D01*
X67127621Y41859467D02*
X67746668Y41859467D01*
X67746668Y41859467D02*
X67746668Y41621372D01*
X67746668Y41621372D02*
X67651430Y41478515D01*
X67651430Y41478515D02*
X67508573Y41335658D01*
X67508573Y41335658D02*
X67318097Y41192800D01*
X68508573Y41859467D02*
X68508573Y41145181D01*
X68746668Y42192800D02*
X68651430Y42049943D01*
X68651430Y42049943D02*
X68508573Y41859467D01*
X68508573Y41859467D02*
X68318097Y41716610D01*
X68318097Y41716610D02*
X68175240Y41621372D01*
X69556192Y41811848D02*
X69841906Y41573753D01*
X69556192Y42240420D02*
X69556192Y41192800D01*
X70841906Y42049943D02*
X70937144Y41954705D01*
X70984763Y42097562D02*
X71080002Y42002324D01*
X70318097Y42145181D02*
X70318097Y41240420D01*
X70318097Y41240420D02*
X70889525Y41240420D01*
X70841906Y41954705D02*
X70651430Y41811848D01*
X70651430Y41811848D02*
X70508573Y41764229D01*
X70508573Y41764229D02*
X70365716Y41716610D01*
X71270478Y41668991D02*
X72032382Y41668991D01*
X72937144Y42192800D02*
X73032382Y42097562D01*
X73080001Y42240420D02*
X73175240Y42145181D01*
X72699049Y41621372D02*
X72794287Y41478515D01*
X72794287Y41478515D02*
X72937144Y41240420D01*
X72413335Y42145181D02*
X72841906Y42145181D01*
X72841906Y42145181D02*
X72794287Y41859467D01*
X72794287Y41859467D02*
X72699049Y41716610D01*
X72699049Y41716610D02*
X72603811Y41526134D01*
X72603811Y41526134D02*
X72508573Y41383277D01*
X72508573Y41383277D02*
X72365716Y41240420D01*
X73984763Y41145181D02*
X73413335Y41145181D01*
X73699049Y41145181D02*
X73699049Y42145181D01*
X73699049Y42145181D02*
X73603811Y42002324D01*
X73603811Y42002324D02*
X73508573Y41907086D01*
X73508573Y41907086D02*
X73413335Y41859467D01*
X74937144Y41145181D02*
X74365716Y41145181D01*
X74651430Y41145181D02*
X74651430Y42145181D01*
X74651430Y42145181D02*
X74556192Y42002324D01*
X74556192Y42002324D02*
X74460954Y41907086D01*
X74460954Y41907086D02*
X74365716Y41859467D01*
X17341906Y20320420D02*
X17294287Y20272800D01*
X17294287Y20272800D02*
X17151430Y20225181D01*
X17151430Y20225181D02*
X17056192Y20225181D01*
X17056192Y20225181D02*
X16913335Y20272800D01*
X16913335Y20272800D02*
X16818097Y20368039D01*
X16818097Y20368039D02*
X16770478Y20463277D01*
X16770478Y20463277D02*
X16722859Y20653753D01*
X16722859Y20653753D02*
X16722859Y20796610D01*
X16722859Y20796610D02*
X16770478Y20987086D01*
X16770478Y20987086D02*
X16818097Y21082324D01*
X16818097Y21082324D02*
X16913335Y21177562D01*
X16913335Y21177562D02*
X17056192Y21225181D01*
X17056192Y21225181D02*
X17151430Y21225181D01*
X17151430Y21225181D02*
X17294287Y21177562D01*
X17294287Y21177562D02*
X17341906Y21129943D01*
X17722859Y21129943D02*
X17770478Y21177562D01*
X17770478Y21177562D02*
X17865716Y21225181D01*
X17865716Y21225181D02*
X18103811Y21225181D01*
X18103811Y21225181D02*
X18199049Y21177562D01*
X18199049Y21177562D02*
X18246668Y21129943D01*
X18246668Y21129943D02*
X18294287Y21034705D01*
X18294287Y21034705D02*
X18294287Y20939467D01*
X18294287Y20939467D02*
X18246668Y20796610D01*
X18246668Y20796610D02*
X17675240Y20225181D01*
X17675240Y20225181D02*
X18294287Y20225181D01*
X18865716Y20796610D02*
X18770478Y20844229D01*
X18770478Y20844229D02*
X18722859Y20891848D01*
X18722859Y20891848D02*
X18675240Y20987086D01*
X18675240Y20987086D02*
X18675240Y21034705D01*
X18675240Y21034705D02*
X18722859Y21129943D01*
X18722859Y21129943D02*
X18770478Y21177562D01*
X18770478Y21177562D02*
X18865716Y21225181D01*
X18865716Y21225181D02*
X19056192Y21225181D01*
X19056192Y21225181D02*
X19151430Y21177562D01*
X19151430Y21177562D02*
X19199049Y21129943D01*
X19199049Y21129943D02*
X19246668Y21034705D01*
X19246668Y21034705D02*
X19246668Y20987086D01*
X19246668Y20987086D02*
X19199049Y20891848D01*
X19199049Y20891848D02*
X19151430Y20844229D01*
X19151430Y20844229D02*
X19056192Y20796610D01*
X19056192Y20796610D02*
X18865716Y20796610D01*
X18865716Y20796610D02*
X18770478Y20748991D01*
X18770478Y20748991D02*
X18722859Y20701372D01*
X18722859Y20701372D02*
X18675240Y20606134D01*
X18675240Y20606134D02*
X18675240Y20415658D01*
X18675240Y20415658D02*
X18722859Y20320420D01*
X18722859Y20320420D02*
X18770478Y20272800D01*
X18770478Y20272800D02*
X18865716Y20225181D01*
X18865716Y20225181D02*
X19056192Y20225181D01*
X19056192Y20225181D02*
X19151430Y20272800D01*
X19151430Y20272800D02*
X19199049Y20320420D01*
X19199049Y20320420D02*
X19246668Y20415658D01*
X19246668Y20415658D02*
X19246668Y20606134D01*
X19246668Y20606134D02*
X19199049Y20701372D01*
X19199049Y20701372D02*
X19151430Y20748991D01*
X19151430Y20748991D02*
X19056192Y20796610D01*
X120818097Y56395181D02*
X120484764Y56871372D01*
X120246669Y56395181D02*
X120246669Y57395181D01*
X120246669Y57395181D02*
X120627621Y57395181D01*
X120627621Y57395181D02*
X120722859Y57347562D01*
X120722859Y57347562D02*
X120770478Y57299943D01*
X120770478Y57299943D02*
X120818097Y57204705D01*
X120818097Y57204705D02*
X120818097Y57061848D01*
X120818097Y57061848D02*
X120770478Y56966610D01*
X120770478Y56966610D02*
X120722859Y56918991D01*
X120722859Y56918991D02*
X120627621Y56871372D01*
X120627621Y56871372D02*
X120246669Y56871372D01*
X121151431Y57395181D02*
X121770478Y57395181D01*
X121770478Y57395181D02*
X121437145Y57014229D01*
X121437145Y57014229D02*
X121580002Y57014229D01*
X121580002Y57014229D02*
X121675240Y56966610D01*
X121675240Y56966610D02*
X121722859Y56918991D01*
X121722859Y56918991D02*
X121770478Y56823753D01*
X121770478Y56823753D02*
X121770478Y56585658D01*
X121770478Y56585658D02*
X121722859Y56490420D01*
X121722859Y56490420D02*
X121675240Y56442800D01*
X121675240Y56442800D02*
X121580002Y56395181D01*
X121580002Y56395181D02*
X121294288Y56395181D01*
X121294288Y56395181D02*
X121199050Y56442800D01*
X121199050Y56442800D02*
X121151431Y56490420D01*
X17341906Y17820420D02*
X17294287Y17772800D01*
X17294287Y17772800D02*
X17151430Y17725181D01*
X17151430Y17725181D02*
X17056192Y17725181D01*
X17056192Y17725181D02*
X16913335Y17772800D01*
X16913335Y17772800D02*
X16818097Y17868039D01*
X16818097Y17868039D02*
X16770478Y17963277D01*
X16770478Y17963277D02*
X16722859Y18153753D01*
X16722859Y18153753D02*
X16722859Y18296610D01*
X16722859Y18296610D02*
X16770478Y18487086D01*
X16770478Y18487086D02*
X16818097Y18582324D01*
X16818097Y18582324D02*
X16913335Y18677562D01*
X16913335Y18677562D02*
X17056192Y18725181D01*
X17056192Y18725181D02*
X17151430Y18725181D01*
X17151430Y18725181D02*
X17294287Y18677562D01*
X17294287Y18677562D02*
X17341906Y18629943D01*
X17722859Y18629943D02*
X17770478Y18677562D01*
X17770478Y18677562D02*
X17865716Y18725181D01*
X17865716Y18725181D02*
X18103811Y18725181D01*
X18103811Y18725181D02*
X18199049Y18677562D01*
X18199049Y18677562D02*
X18246668Y18629943D01*
X18246668Y18629943D02*
X18294287Y18534705D01*
X18294287Y18534705D02*
X18294287Y18439467D01*
X18294287Y18439467D02*
X18246668Y18296610D01*
X18246668Y18296610D02*
X17675240Y17725181D01*
X17675240Y17725181D02*
X18294287Y17725181D01*
X18770478Y17725181D02*
X18960954Y17725181D01*
X18960954Y17725181D02*
X19056192Y17772800D01*
X19056192Y17772800D02*
X19103811Y17820420D01*
X19103811Y17820420D02*
X19199049Y17963277D01*
X19199049Y17963277D02*
X19246668Y18153753D01*
X19246668Y18153753D02*
X19246668Y18534705D01*
X19246668Y18534705D02*
X19199049Y18629943D01*
X19199049Y18629943D02*
X19151430Y18677562D01*
X19151430Y18677562D02*
X19056192Y18725181D01*
X19056192Y18725181D02*
X18865716Y18725181D01*
X18865716Y18725181D02*
X18770478Y18677562D01*
X18770478Y18677562D02*
X18722859Y18629943D01*
X18722859Y18629943D02*
X18675240Y18534705D01*
X18675240Y18534705D02*
X18675240Y18296610D01*
X18675240Y18296610D02*
X18722859Y18201372D01*
X18722859Y18201372D02*
X18770478Y18153753D01*
X18770478Y18153753D02*
X18865716Y18106134D01*
X18865716Y18106134D02*
X19056192Y18106134D01*
X19056192Y18106134D02*
X19151430Y18153753D01*
X19151430Y18153753D02*
X19199049Y18201372D01*
X19199049Y18201372D02*
X19246668Y18296610D01*
X120818097Y61895181D02*
X120484764Y62371372D01*
X120246669Y61895181D02*
X120246669Y62895181D01*
X120246669Y62895181D02*
X120627621Y62895181D01*
X120627621Y62895181D02*
X120722859Y62847562D01*
X120722859Y62847562D02*
X120770478Y62799943D01*
X120770478Y62799943D02*
X120818097Y62704705D01*
X120818097Y62704705D02*
X120818097Y62561848D01*
X120818097Y62561848D02*
X120770478Y62466610D01*
X120770478Y62466610D02*
X120722859Y62418991D01*
X120722859Y62418991D02*
X120627621Y62371372D01*
X120627621Y62371372D02*
X120246669Y62371372D01*
X121675240Y62561848D02*
X121675240Y61895181D01*
X121437145Y62942800D02*
X121199050Y62228515D01*
X121199050Y62228515D02*
X121818097Y62228515D01*
X69341906Y41820420D02*
X69294287Y41772800D01*
X69294287Y41772800D02*
X69151430Y41725181D01*
X69151430Y41725181D02*
X69056192Y41725181D01*
X69056192Y41725181D02*
X68913335Y41772800D01*
X68913335Y41772800D02*
X68818097Y41868039D01*
X68818097Y41868039D02*
X68770478Y41963277D01*
X68770478Y41963277D02*
X68722859Y42153753D01*
X68722859Y42153753D02*
X68722859Y42296610D01*
X68722859Y42296610D02*
X68770478Y42487086D01*
X68770478Y42487086D02*
X68818097Y42582324D01*
X68818097Y42582324D02*
X68913335Y42677562D01*
X68913335Y42677562D02*
X69056192Y42725181D01*
X69056192Y42725181D02*
X69151430Y42725181D01*
X69151430Y42725181D02*
X69294287Y42677562D01*
X69294287Y42677562D02*
X69341906Y42629943D01*
X70294287Y41725181D02*
X69722859Y41725181D01*
X70008573Y41725181D02*
X70008573Y42725181D01*
X70008573Y42725181D02*
X69913335Y42582324D01*
X69913335Y42582324D02*
X69818097Y42487086D01*
X69818097Y42487086D02*
X69722859Y42439467D01*
X70675240Y42629943D02*
X70722859Y42677562D01*
X70722859Y42677562D02*
X70818097Y42725181D01*
X70818097Y42725181D02*
X71056192Y42725181D01*
X71056192Y42725181D02*
X71151430Y42677562D01*
X71151430Y42677562D02*
X71199049Y42629943D01*
X71199049Y42629943D02*
X71246668Y42534705D01*
X71246668Y42534705D02*
X71246668Y42439467D01*
X71246668Y42439467D02*
X71199049Y42296610D01*
X71199049Y42296610D02*
X70627621Y41725181D01*
X70627621Y41725181D02*
X71246668Y41725181D01*
X65024344Y54357143D02*
X65071964Y54309524D01*
X65071964Y54309524D02*
X65119583Y54166667D01*
X65119583Y54166667D02*
X65119583Y54071429D01*
X65119583Y54071429D02*
X65071964Y53928572D01*
X65071964Y53928572D02*
X64976725Y53833334D01*
X64976725Y53833334D02*
X64881487Y53785715D01*
X64881487Y53785715D02*
X64691011Y53738096D01*
X64691011Y53738096D02*
X64548154Y53738096D01*
X64548154Y53738096D02*
X64357678Y53785715D01*
X64357678Y53785715D02*
X64262440Y53833334D01*
X64262440Y53833334D02*
X64167202Y53928572D01*
X64167202Y53928572D02*
X64119583Y54071429D01*
X64119583Y54071429D02*
X64119583Y54166667D01*
X64119583Y54166667D02*
X64167202Y54309524D01*
X64167202Y54309524D02*
X64214821Y54357143D01*
X64214821Y54738096D02*
X64167202Y54785715D01*
X64167202Y54785715D02*
X64119583Y54880953D01*
X64119583Y54880953D02*
X64119583Y55119048D01*
X64119583Y55119048D02*
X64167202Y55214286D01*
X64167202Y55214286D02*
X64214821Y55261905D01*
X64214821Y55261905D02*
X64310059Y55309524D01*
X64310059Y55309524D02*
X64405297Y55309524D01*
X64405297Y55309524D02*
X64548154Y55261905D01*
X64548154Y55261905D02*
X65119583Y54690477D01*
X65119583Y54690477D02*
X65119583Y55309524D01*
X64452916Y56166667D02*
X65119583Y56166667D01*
X64071964Y55928572D02*
X64786249Y55690477D01*
X64786249Y55690477D02*
X64786249Y56309524D01*
X69391906Y37320420D02*
X69344287Y37272800D01*
X69344287Y37272800D02*
X69201430Y37225181D01*
X69201430Y37225181D02*
X69106192Y37225181D01*
X69106192Y37225181D02*
X68963335Y37272800D01*
X68963335Y37272800D02*
X68868097Y37368039D01*
X68868097Y37368039D02*
X68820478Y37463277D01*
X68820478Y37463277D02*
X68772859Y37653753D01*
X68772859Y37653753D02*
X68772859Y37796610D01*
X68772859Y37796610D02*
X68820478Y37987086D01*
X68820478Y37987086D02*
X68868097Y38082324D01*
X68868097Y38082324D02*
X68963335Y38177562D01*
X68963335Y38177562D02*
X69106192Y38225181D01*
X69106192Y38225181D02*
X69201430Y38225181D01*
X69201430Y38225181D02*
X69344287Y38177562D01*
X69344287Y38177562D02*
X69391906Y38129943D01*
X70344287Y37225181D02*
X69772859Y37225181D01*
X70058573Y37225181D02*
X70058573Y38225181D01*
X70058573Y38225181D02*
X69963335Y38082324D01*
X69963335Y38082324D02*
X69868097Y37987086D01*
X69868097Y37987086D02*
X69772859Y37939467D01*
X71249049Y38225181D02*
X70772859Y38225181D01*
X70772859Y38225181D02*
X70725240Y37748991D01*
X70725240Y37748991D02*
X70772859Y37796610D01*
X70772859Y37796610D02*
X70868097Y37844229D01*
X70868097Y37844229D02*
X71106192Y37844229D01*
X71106192Y37844229D02*
X71201430Y37796610D01*
X71201430Y37796610D02*
X71249049Y37748991D01*
X71249049Y37748991D02*
X71296668Y37653753D01*
X71296668Y37653753D02*
X71296668Y37415658D01*
X71296668Y37415658D02*
X71249049Y37320420D01*
X71249049Y37320420D02*
X71201430Y37272800D01*
X71201430Y37272800D02*
X71106192Y37225181D01*
X71106192Y37225181D02*
X70868097Y37225181D01*
X70868097Y37225181D02*
X70772859Y37272800D01*
X70772859Y37272800D02*
X70725240Y37320420D01*
X91818097Y58895181D02*
X91484764Y59371372D01*
X91246669Y58895181D02*
X91246669Y59895181D01*
X91246669Y59895181D02*
X91627621Y59895181D01*
X91627621Y59895181D02*
X91722859Y59847562D01*
X91722859Y59847562D02*
X91770478Y59799943D01*
X91770478Y59799943D02*
X91818097Y59704705D01*
X91818097Y59704705D02*
X91818097Y59561848D01*
X91818097Y59561848D02*
X91770478Y59466610D01*
X91770478Y59466610D02*
X91722859Y59418991D01*
X91722859Y59418991D02*
X91627621Y59371372D01*
X91627621Y59371372D02*
X91246669Y59371372D01*
X92151431Y59895181D02*
X92818097Y59895181D01*
X92818097Y59895181D02*
X92389526Y58895181D01*
X60652859Y44695181D02*
X60652859Y43885658D01*
X60652859Y43885658D02*
X60700478Y43790420D01*
X60700478Y43790420D02*
X60748097Y43742800D01*
X60748097Y43742800D02*
X60843335Y43695181D01*
X60843335Y43695181D02*
X61033811Y43695181D01*
X61033811Y43695181D02*
X61129049Y43742800D01*
X61129049Y43742800D02*
X61176668Y43790420D01*
X61176668Y43790420D02*
X61224287Y43885658D01*
X61224287Y43885658D02*
X61224287Y44695181D01*
X62176668Y44695181D02*
X61700478Y44695181D01*
X61700478Y44695181D02*
X61652859Y44218991D01*
X61652859Y44218991D02*
X61700478Y44266610D01*
X61700478Y44266610D02*
X61795716Y44314229D01*
X61795716Y44314229D02*
X62033811Y44314229D01*
X62033811Y44314229D02*
X62129049Y44266610D01*
X62129049Y44266610D02*
X62176668Y44218991D01*
X62176668Y44218991D02*
X62224287Y44123753D01*
X62224287Y44123753D02*
X62224287Y43885658D01*
X62224287Y43885658D02*
X62176668Y43790420D01*
X62176668Y43790420D02*
X62129049Y43742800D01*
X62129049Y43742800D02*
X62033811Y43695181D01*
X62033811Y43695181D02*
X61795716Y43695181D01*
X61795716Y43695181D02*
X61700478Y43742800D01*
X61700478Y43742800D02*
X61652859Y43790420D01*
X44921430Y12445181D02*
X44921430Y11730896D01*
X44921430Y11730896D02*
X44873811Y11588039D01*
X44873811Y11588039D02*
X44778573Y11492800D01*
X44778573Y11492800D02*
X44635716Y11445181D01*
X44635716Y11445181D02*
X44540478Y11445181D01*
X45350002Y12349943D02*
X45397621Y12397562D01*
X45397621Y12397562D02*
X45492859Y12445181D01*
X45492859Y12445181D02*
X45730954Y12445181D01*
X45730954Y12445181D02*
X45826192Y12397562D01*
X45826192Y12397562D02*
X45873811Y12349943D01*
X45873811Y12349943D02*
X45921430Y12254705D01*
X45921430Y12254705D02*
X45921430Y12159467D01*
X45921430Y12159467D02*
X45873811Y12016610D01*
X45873811Y12016610D02*
X45302383Y11445181D01*
X45302383Y11445181D02*
X45921430Y11445181D01*
X91818097Y58320420D02*
X91770478Y58272800D01*
X91770478Y58272800D02*
X91627621Y58225181D01*
X91627621Y58225181D02*
X91532383Y58225181D01*
X91532383Y58225181D02*
X91389526Y58272800D01*
X91389526Y58272800D02*
X91294288Y58368039D01*
X91294288Y58368039D02*
X91246669Y58463277D01*
X91246669Y58463277D02*
X91199050Y58653753D01*
X91199050Y58653753D02*
X91199050Y58796610D01*
X91199050Y58796610D02*
X91246669Y58987086D01*
X91246669Y58987086D02*
X91294288Y59082324D01*
X91294288Y59082324D02*
X91389526Y59177562D01*
X91389526Y59177562D02*
X91532383Y59225181D01*
X91532383Y59225181D02*
X91627621Y59225181D01*
X91627621Y59225181D02*
X91770478Y59177562D01*
X91770478Y59177562D02*
X91818097Y59129943D01*
X92722859Y59225181D02*
X92246669Y59225181D01*
X92246669Y59225181D02*
X92199050Y58748991D01*
X92199050Y58748991D02*
X92246669Y58796610D01*
X92246669Y58796610D02*
X92341907Y58844229D01*
X92341907Y58844229D02*
X92580002Y58844229D01*
X92580002Y58844229D02*
X92675240Y58796610D01*
X92675240Y58796610D02*
X92722859Y58748991D01*
X92722859Y58748991D02*
X92770478Y58653753D01*
X92770478Y58653753D02*
X92770478Y58415658D01*
X92770478Y58415658D02*
X92722859Y58320420D01*
X92722859Y58320420D02*
X92675240Y58272800D01*
X92675240Y58272800D02*
X92580002Y58225181D01*
X92580002Y58225181D02*
X92341907Y58225181D01*
X92341907Y58225181D02*
X92246669Y58272800D01*
X92246669Y58272800D02*
X92199050Y58320420D01*
X91818097Y55820420D02*
X91770478Y55772800D01*
X91770478Y55772800D02*
X91627621Y55725181D01*
X91627621Y55725181D02*
X91532383Y55725181D01*
X91532383Y55725181D02*
X91389526Y55772800D01*
X91389526Y55772800D02*
X91294288Y55868039D01*
X91294288Y55868039D02*
X91246669Y55963277D01*
X91246669Y55963277D02*
X91199050Y56153753D01*
X91199050Y56153753D02*
X91199050Y56296610D01*
X91199050Y56296610D02*
X91246669Y56487086D01*
X91246669Y56487086D02*
X91294288Y56582324D01*
X91294288Y56582324D02*
X91389526Y56677562D01*
X91389526Y56677562D02*
X91532383Y56725181D01*
X91532383Y56725181D02*
X91627621Y56725181D01*
X91627621Y56725181D02*
X91770478Y56677562D01*
X91770478Y56677562D02*
X91818097Y56629943D01*
X92675240Y56725181D02*
X92484764Y56725181D01*
X92484764Y56725181D02*
X92389526Y56677562D01*
X92389526Y56677562D02*
X92341907Y56629943D01*
X92341907Y56629943D02*
X92246669Y56487086D01*
X92246669Y56487086D02*
X92199050Y56296610D01*
X92199050Y56296610D02*
X92199050Y55915658D01*
X92199050Y55915658D02*
X92246669Y55820420D01*
X92246669Y55820420D02*
X92294288Y55772800D01*
X92294288Y55772800D02*
X92389526Y55725181D01*
X92389526Y55725181D02*
X92580002Y55725181D01*
X92580002Y55725181D02*
X92675240Y55772800D01*
X92675240Y55772800D02*
X92722859Y55820420D01*
X92722859Y55820420D02*
X92770478Y55915658D01*
X92770478Y55915658D02*
X92770478Y56153753D01*
X92770478Y56153753D02*
X92722859Y56248991D01*
X92722859Y56248991D02*
X92675240Y56296610D01*
X92675240Y56296610D02*
X92580002Y56344229D01*
X92580002Y56344229D02*
X92389526Y56344229D01*
X92389526Y56344229D02*
X92294288Y56296610D01*
X92294288Y56296610D02*
X92246669Y56248991D01*
X92246669Y56248991D02*
X92199050Y56153753D01*
X111768097Y54460420D02*
X111720478Y54412800D01*
X111720478Y54412800D02*
X111577621Y54365181D01*
X111577621Y54365181D02*
X111482383Y54365181D01*
X111482383Y54365181D02*
X111339526Y54412800D01*
X111339526Y54412800D02*
X111244288Y54508039D01*
X111244288Y54508039D02*
X111196669Y54603277D01*
X111196669Y54603277D02*
X111149050Y54793753D01*
X111149050Y54793753D02*
X111149050Y54936610D01*
X111149050Y54936610D02*
X111196669Y55127086D01*
X111196669Y55127086D02*
X111244288Y55222324D01*
X111244288Y55222324D02*
X111339526Y55317562D01*
X111339526Y55317562D02*
X111482383Y55365181D01*
X111482383Y55365181D02*
X111577621Y55365181D01*
X111577621Y55365181D02*
X111720478Y55317562D01*
X111720478Y55317562D02*
X111768097Y55269943D01*
X112625240Y55031848D02*
X112625240Y54365181D01*
X112387145Y55412800D02*
X112149050Y54698515D01*
X112149050Y54698515D02*
X112768097Y54698515D01*
X58341906Y37820420D02*
X58294287Y37772800D01*
X58294287Y37772800D02*
X58151430Y37725181D01*
X58151430Y37725181D02*
X58056192Y37725181D01*
X58056192Y37725181D02*
X57913335Y37772800D01*
X57913335Y37772800D02*
X57818097Y37868039D01*
X57818097Y37868039D02*
X57770478Y37963277D01*
X57770478Y37963277D02*
X57722859Y38153753D01*
X57722859Y38153753D02*
X57722859Y38296610D01*
X57722859Y38296610D02*
X57770478Y38487086D01*
X57770478Y38487086D02*
X57818097Y38582324D01*
X57818097Y38582324D02*
X57913335Y38677562D01*
X57913335Y38677562D02*
X58056192Y38725181D01*
X58056192Y38725181D02*
X58151430Y38725181D01*
X58151430Y38725181D02*
X58294287Y38677562D01*
X58294287Y38677562D02*
X58341906Y38629943D01*
X58722859Y38629943D02*
X58770478Y38677562D01*
X58770478Y38677562D02*
X58865716Y38725181D01*
X58865716Y38725181D02*
X59103811Y38725181D01*
X59103811Y38725181D02*
X59199049Y38677562D01*
X59199049Y38677562D02*
X59246668Y38629943D01*
X59246668Y38629943D02*
X59294287Y38534705D01*
X59294287Y38534705D02*
X59294287Y38439467D01*
X59294287Y38439467D02*
X59246668Y38296610D01*
X59246668Y38296610D02*
X58675240Y37725181D01*
X58675240Y37725181D02*
X59294287Y37725181D01*
X60151430Y38725181D02*
X59960954Y38725181D01*
X59960954Y38725181D02*
X59865716Y38677562D01*
X59865716Y38677562D02*
X59818097Y38629943D01*
X59818097Y38629943D02*
X59722859Y38487086D01*
X59722859Y38487086D02*
X59675240Y38296610D01*
X59675240Y38296610D02*
X59675240Y37915658D01*
X59675240Y37915658D02*
X59722859Y37820420D01*
X59722859Y37820420D02*
X59770478Y37772800D01*
X59770478Y37772800D02*
X59865716Y37725181D01*
X59865716Y37725181D02*
X60056192Y37725181D01*
X60056192Y37725181D02*
X60151430Y37772800D01*
X60151430Y37772800D02*
X60199049Y37820420D01*
X60199049Y37820420D02*
X60246668Y37915658D01*
X60246668Y37915658D02*
X60246668Y38153753D01*
X60246668Y38153753D02*
X60199049Y38248991D01*
X60199049Y38248991D02*
X60151430Y38296610D01*
X60151430Y38296610D02*
X60056192Y38344229D01*
X60056192Y38344229D02*
X59865716Y38344229D01*
X59865716Y38344229D02*
X59770478Y38296610D01*
X59770478Y38296610D02*
X59722859Y38248991D01*
X59722859Y38248991D02*
X59675240Y38153753D01*
X111818097Y52820420D02*
X111770478Y52772800D01*
X111770478Y52772800D02*
X111627621Y52725181D01*
X111627621Y52725181D02*
X111532383Y52725181D01*
X111532383Y52725181D02*
X111389526Y52772800D01*
X111389526Y52772800D02*
X111294288Y52868039D01*
X111294288Y52868039D02*
X111246669Y52963277D01*
X111246669Y52963277D02*
X111199050Y53153753D01*
X111199050Y53153753D02*
X111199050Y53296610D01*
X111199050Y53296610D02*
X111246669Y53487086D01*
X111246669Y53487086D02*
X111294288Y53582324D01*
X111294288Y53582324D02*
X111389526Y53677562D01*
X111389526Y53677562D02*
X111532383Y53725181D01*
X111532383Y53725181D02*
X111627621Y53725181D01*
X111627621Y53725181D02*
X111770478Y53677562D01*
X111770478Y53677562D02*
X111818097Y53629943D01*
X112199050Y53629943D02*
X112246669Y53677562D01*
X112246669Y53677562D02*
X112341907Y53725181D01*
X112341907Y53725181D02*
X112580002Y53725181D01*
X112580002Y53725181D02*
X112675240Y53677562D01*
X112675240Y53677562D02*
X112722859Y53629943D01*
X112722859Y53629943D02*
X112770478Y53534705D01*
X112770478Y53534705D02*
X112770478Y53439467D01*
X112770478Y53439467D02*
X112722859Y53296610D01*
X112722859Y53296610D02*
X112151431Y52725181D01*
X112151431Y52725181D02*
X112770478Y52725181D01*
X91341906Y53320420D02*
X91294287Y53272800D01*
X91294287Y53272800D02*
X91151430Y53225181D01*
X91151430Y53225181D02*
X91056192Y53225181D01*
X91056192Y53225181D02*
X90913335Y53272800D01*
X90913335Y53272800D02*
X90818097Y53368039D01*
X90818097Y53368039D02*
X90770478Y53463277D01*
X90770478Y53463277D02*
X90722859Y53653753D01*
X90722859Y53653753D02*
X90722859Y53796610D01*
X90722859Y53796610D02*
X90770478Y53987086D01*
X90770478Y53987086D02*
X90818097Y54082324D01*
X90818097Y54082324D02*
X90913335Y54177562D01*
X90913335Y54177562D02*
X91056192Y54225181D01*
X91056192Y54225181D02*
X91151430Y54225181D01*
X91151430Y54225181D02*
X91294287Y54177562D01*
X91294287Y54177562D02*
X91341906Y54129943D01*
X92294287Y53225181D02*
X91722859Y53225181D01*
X92008573Y53225181D02*
X92008573Y54225181D01*
X92008573Y54225181D02*
X91913335Y54082324D01*
X91913335Y54082324D02*
X91818097Y53987086D01*
X91818097Y53987086D02*
X91722859Y53939467D01*
X92913335Y54225181D02*
X93008573Y54225181D01*
X93008573Y54225181D02*
X93103811Y54177562D01*
X93103811Y54177562D02*
X93151430Y54129943D01*
X93151430Y54129943D02*
X93199049Y54034705D01*
X93199049Y54034705D02*
X93246668Y53844229D01*
X93246668Y53844229D02*
X93246668Y53606134D01*
X93246668Y53606134D02*
X93199049Y53415658D01*
X93199049Y53415658D02*
X93151430Y53320420D01*
X93151430Y53320420D02*
X93103811Y53272800D01*
X93103811Y53272800D02*
X93008573Y53225181D01*
X93008573Y53225181D02*
X92913335Y53225181D01*
X92913335Y53225181D02*
X92818097Y53272800D01*
X92818097Y53272800D02*
X92770478Y53320420D01*
X92770478Y53320420D02*
X92722859Y53415658D01*
X92722859Y53415658D02*
X92675240Y53606134D01*
X92675240Y53606134D02*
X92675240Y53844229D01*
X92675240Y53844229D02*
X92722859Y54034705D01*
X92722859Y54034705D02*
X92770478Y54129943D01*
X92770478Y54129943D02*
X92818097Y54177562D01*
X92818097Y54177562D02*
X92913335Y54225181D01*
X101222859Y53945181D02*
X101222859Y53135658D01*
X101222859Y53135658D02*
X101270478Y53040420D01*
X101270478Y53040420D02*
X101318097Y52992800D01*
X101318097Y52992800D02*
X101413335Y52945181D01*
X101413335Y52945181D02*
X101603811Y52945181D01*
X101603811Y52945181D02*
X101699049Y52992800D01*
X101699049Y52992800D02*
X101746668Y53040420D01*
X101746668Y53040420D02*
X101794287Y53135658D01*
X101794287Y53135658D02*
X101794287Y53945181D01*
X102794287Y52945181D02*
X102222859Y52945181D01*
X102508573Y52945181D02*
X102508573Y53945181D01*
X102508573Y53945181D02*
X102413335Y53802324D01*
X102413335Y53802324D02*
X102318097Y53707086D01*
X102318097Y53707086D02*
X102222859Y53659467D01*
X67498097Y57595181D02*
X67164764Y58071372D01*
X66926669Y57595181D02*
X66926669Y58595181D01*
X66926669Y58595181D02*
X67307621Y58595181D01*
X67307621Y58595181D02*
X67402859Y58547562D01*
X67402859Y58547562D02*
X67450478Y58499943D01*
X67450478Y58499943D02*
X67498097Y58404705D01*
X67498097Y58404705D02*
X67498097Y58261848D01*
X67498097Y58261848D02*
X67450478Y58166610D01*
X67450478Y58166610D02*
X67402859Y58118991D01*
X67402859Y58118991D02*
X67307621Y58071372D01*
X67307621Y58071372D02*
X66926669Y58071372D01*
X67974288Y57595181D02*
X68164764Y57595181D01*
X68164764Y57595181D02*
X68260002Y57642800D01*
X68260002Y57642800D02*
X68307621Y57690420D01*
X68307621Y57690420D02*
X68402859Y57833277D01*
X68402859Y57833277D02*
X68450478Y58023753D01*
X68450478Y58023753D02*
X68450478Y58404705D01*
X68450478Y58404705D02*
X68402859Y58499943D01*
X68402859Y58499943D02*
X68355240Y58547562D01*
X68355240Y58547562D02*
X68260002Y58595181D01*
X68260002Y58595181D02*
X68069526Y58595181D01*
X68069526Y58595181D02*
X67974288Y58547562D01*
X67974288Y58547562D02*
X67926669Y58499943D01*
X67926669Y58499943D02*
X67879050Y58404705D01*
X67879050Y58404705D02*
X67879050Y58166610D01*
X67879050Y58166610D02*
X67926669Y58071372D01*
X67926669Y58071372D02*
X67974288Y58023753D01*
X67974288Y58023753D02*
X68069526Y57976134D01*
X68069526Y57976134D02*
X68260002Y57976134D01*
X68260002Y57976134D02*
X68355240Y58023753D01*
X68355240Y58023753D02*
X68402859Y58071372D01*
X68402859Y58071372D02*
X68450478Y58166610D01*
X70841906Y55320420D02*
X70794287Y55272800D01*
X70794287Y55272800D02*
X70651430Y55225181D01*
X70651430Y55225181D02*
X70556192Y55225181D01*
X70556192Y55225181D02*
X70413335Y55272800D01*
X70413335Y55272800D02*
X70318097Y55368039D01*
X70318097Y55368039D02*
X70270478Y55463277D01*
X70270478Y55463277D02*
X70222859Y55653753D01*
X70222859Y55653753D02*
X70222859Y55796610D01*
X70222859Y55796610D02*
X70270478Y55987086D01*
X70270478Y55987086D02*
X70318097Y56082324D01*
X70318097Y56082324D02*
X70413335Y56177562D01*
X70413335Y56177562D02*
X70556192Y56225181D01*
X70556192Y56225181D02*
X70651430Y56225181D01*
X70651430Y56225181D02*
X70794287Y56177562D01*
X70794287Y56177562D02*
X70841906Y56129943D01*
X71222859Y56129943D02*
X71270478Y56177562D01*
X71270478Y56177562D02*
X71365716Y56225181D01*
X71365716Y56225181D02*
X71603811Y56225181D01*
X71603811Y56225181D02*
X71699049Y56177562D01*
X71699049Y56177562D02*
X71746668Y56129943D01*
X71746668Y56129943D02*
X71794287Y56034705D01*
X71794287Y56034705D02*
X71794287Y55939467D01*
X71794287Y55939467D02*
X71746668Y55796610D01*
X71746668Y55796610D02*
X71175240Y55225181D01*
X71175240Y55225181D02*
X71794287Y55225181D01*
X72746668Y55225181D02*
X72175240Y55225181D01*
X72460954Y55225181D02*
X72460954Y56225181D01*
X72460954Y56225181D02*
X72365716Y56082324D01*
X72365716Y56082324D02*
X72270478Y55987086D01*
X72270478Y55987086D02*
X72175240Y55939467D01*
X64222859Y57745181D02*
X64222859Y56935658D01*
X64222859Y56935658D02*
X64270478Y56840420D01*
X64270478Y56840420D02*
X64318097Y56792800D01*
X64318097Y56792800D02*
X64413335Y56745181D01*
X64413335Y56745181D02*
X64603811Y56745181D01*
X64603811Y56745181D02*
X64699049Y56792800D01*
X64699049Y56792800D02*
X64746668Y56840420D01*
X64746668Y56840420D02*
X64794287Y56935658D01*
X64794287Y56935658D02*
X64794287Y57745181D01*
X65699049Y57411848D02*
X65699049Y56745181D01*
X65460954Y57792800D02*
X65222859Y57078515D01*
X65222859Y57078515D02*
X65841906Y57078515D01*
X91818097Y61395181D02*
X91484764Y61871372D01*
X91246669Y61395181D02*
X91246669Y62395181D01*
X91246669Y62395181D02*
X91627621Y62395181D01*
X91627621Y62395181D02*
X91722859Y62347562D01*
X91722859Y62347562D02*
X91770478Y62299943D01*
X91770478Y62299943D02*
X91818097Y62204705D01*
X91818097Y62204705D02*
X91818097Y62061848D01*
X91818097Y62061848D02*
X91770478Y61966610D01*
X91770478Y61966610D02*
X91722859Y61918991D01*
X91722859Y61918991D02*
X91627621Y61871372D01*
X91627621Y61871372D02*
X91246669Y61871372D01*
X92389526Y61966610D02*
X92294288Y62014229D01*
X92294288Y62014229D02*
X92246669Y62061848D01*
X92246669Y62061848D02*
X92199050Y62157086D01*
X92199050Y62157086D02*
X92199050Y62204705D01*
X92199050Y62204705D02*
X92246669Y62299943D01*
X92246669Y62299943D02*
X92294288Y62347562D01*
X92294288Y62347562D02*
X92389526Y62395181D01*
X92389526Y62395181D02*
X92580002Y62395181D01*
X92580002Y62395181D02*
X92675240Y62347562D01*
X92675240Y62347562D02*
X92722859Y62299943D01*
X92722859Y62299943D02*
X92770478Y62204705D01*
X92770478Y62204705D02*
X92770478Y62157086D01*
X92770478Y62157086D02*
X92722859Y62061848D01*
X92722859Y62061848D02*
X92675240Y62014229D01*
X92675240Y62014229D02*
X92580002Y61966610D01*
X92580002Y61966610D02*
X92389526Y61966610D01*
X92389526Y61966610D02*
X92294288Y61918991D01*
X92294288Y61918991D02*
X92246669Y61871372D01*
X92246669Y61871372D02*
X92199050Y61776134D01*
X92199050Y61776134D02*
X92199050Y61585658D01*
X92199050Y61585658D02*
X92246669Y61490420D01*
X92246669Y61490420D02*
X92294288Y61442800D01*
X92294288Y61442800D02*
X92389526Y61395181D01*
X92389526Y61395181D02*
X92580002Y61395181D01*
X92580002Y61395181D02*
X92675240Y61442800D01*
X92675240Y61442800D02*
X92722859Y61490420D01*
X92722859Y61490420D02*
X92770478Y61585658D01*
X92770478Y61585658D02*
X92770478Y61776134D01*
X92770478Y61776134D02*
X92722859Y61871372D01*
X92722859Y61871372D02*
X92675240Y61918991D01*
X92675240Y61918991D02*
X92580002Y61966610D01*
X73994344Y60857143D02*
X74041964Y60809524D01*
X74041964Y60809524D02*
X74089583Y60666667D01*
X74089583Y60666667D02*
X74089583Y60571429D01*
X74089583Y60571429D02*
X74041964Y60428572D01*
X74041964Y60428572D02*
X73946725Y60333334D01*
X73946725Y60333334D02*
X73851487Y60285715D01*
X73851487Y60285715D02*
X73661011Y60238096D01*
X73661011Y60238096D02*
X73518154Y60238096D01*
X73518154Y60238096D02*
X73327678Y60285715D01*
X73327678Y60285715D02*
X73232440Y60333334D01*
X73232440Y60333334D02*
X73137202Y60428572D01*
X73137202Y60428572D02*
X73089583Y60571429D01*
X73089583Y60571429D02*
X73089583Y60666667D01*
X73089583Y60666667D02*
X73137202Y60809524D01*
X73137202Y60809524D02*
X73184821Y60857143D01*
X74089583Y61809524D02*
X74089583Y61238096D01*
X74089583Y61523810D02*
X73089583Y61523810D01*
X73089583Y61523810D02*
X73232440Y61428572D01*
X73232440Y61428572D02*
X73327678Y61333334D01*
X73327678Y61333334D02*
X73375297Y61238096D01*
X73089583Y62142858D02*
X73089583Y62761905D01*
X73089583Y62761905D02*
X73470535Y62428572D01*
X73470535Y62428572D02*
X73470535Y62571429D01*
X73470535Y62571429D02*
X73518154Y62666667D01*
X73518154Y62666667D02*
X73565773Y62714286D01*
X73565773Y62714286D02*
X73661011Y62761905D01*
X73661011Y62761905D02*
X73899106Y62761905D01*
X73899106Y62761905D02*
X73994344Y62714286D01*
X73994344Y62714286D02*
X74041964Y62666667D01*
X74041964Y62666667D02*
X74089583Y62571429D01*
X74089583Y62571429D02*
X74089583Y62285715D01*
X74089583Y62285715D02*
X74041964Y62190477D01*
X74041964Y62190477D02*
X73994344Y62142858D01*
X18841906Y15390420D02*
X18794287Y15342800D01*
X18794287Y15342800D02*
X18651430Y15295181D01*
X18651430Y15295181D02*
X18556192Y15295181D01*
X18556192Y15295181D02*
X18413335Y15342800D01*
X18413335Y15342800D02*
X18318097Y15438039D01*
X18318097Y15438039D02*
X18270478Y15533277D01*
X18270478Y15533277D02*
X18222859Y15723753D01*
X18222859Y15723753D02*
X18222859Y15866610D01*
X18222859Y15866610D02*
X18270478Y16057086D01*
X18270478Y16057086D02*
X18318097Y16152324D01*
X18318097Y16152324D02*
X18413335Y16247562D01*
X18413335Y16247562D02*
X18556192Y16295181D01*
X18556192Y16295181D02*
X18651430Y16295181D01*
X18651430Y16295181D02*
X18794287Y16247562D01*
X18794287Y16247562D02*
X18841906Y16199943D01*
X19222859Y16199943D02*
X19270478Y16247562D01*
X19270478Y16247562D02*
X19365716Y16295181D01*
X19365716Y16295181D02*
X19603811Y16295181D01*
X19603811Y16295181D02*
X19699049Y16247562D01*
X19699049Y16247562D02*
X19746668Y16199943D01*
X19746668Y16199943D02*
X19794287Y16104705D01*
X19794287Y16104705D02*
X19794287Y16009467D01*
X19794287Y16009467D02*
X19746668Y15866610D01*
X19746668Y15866610D02*
X19175240Y15295181D01*
X19175240Y15295181D02*
X19794287Y15295181D01*
X20127621Y16295181D02*
X20794287Y16295181D01*
X20794287Y16295181D02*
X20365716Y15295181D01*
X111768097Y60320420D02*
X111720478Y60272800D01*
X111720478Y60272800D02*
X111577621Y60225181D01*
X111577621Y60225181D02*
X111482383Y60225181D01*
X111482383Y60225181D02*
X111339526Y60272800D01*
X111339526Y60272800D02*
X111244288Y60368039D01*
X111244288Y60368039D02*
X111196669Y60463277D01*
X111196669Y60463277D02*
X111149050Y60653753D01*
X111149050Y60653753D02*
X111149050Y60796610D01*
X111149050Y60796610D02*
X111196669Y60987086D01*
X111196669Y60987086D02*
X111244288Y61082324D01*
X111244288Y61082324D02*
X111339526Y61177562D01*
X111339526Y61177562D02*
X111482383Y61225181D01*
X111482383Y61225181D02*
X111577621Y61225181D01*
X111577621Y61225181D02*
X111720478Y61177562D01*
X111720478Y61177562D02*
X111768097Y61129943D01*
X112101431Y61225181D02*
X112720478Y61225181D01*
X112720478Y61225181D02*
X112387145Y60844229D01*
X112387145Y60844229D02*
X112530002Y60844229D01*
X112530002Y60844229D02*
X112625240Y60796610D01*
X112625240Y60796610D02*
X112672859Y60748991D01*
X112672859Y60748991D02*
X112720478Y60653753D01*
X112720478Y60653753D02*
X112720478Y60415658D01*
X112720478Y60415658D02*
X112672859Y60320420D01*
X112672859Y60320420D02*
X112625240Y60272800D01*
X112625240Y60272800D02*
X112530002Y60225181D01*
X112530002Y60225181D02*
X112244288Y60225181D01*
X112244288Y60225181D02*
X112149050Y60272800D01*
X112149050Y60272800D02*
X112101431Y60320420D01*
X38151430Y14835181D02*
X38151430Y14120896D01*
X38151430Y14120896D02*
X38103811Y13978039D01*
X38103811Y13978039D02*
X38008573Y13882800D01*
X38008573Y13882800D02*
X37865716Y13835181D01*
X37865716Y13835181D02*
X37770478Y13835181D01*
X39103811Y14835181D02*
X38627621Y14835181D01*
X38627621Y14835181D02*
X38580002Y14358991D01*
X38580002Y14358991D02*
X38627621Y14406610D01*
X38627621Y14406610D02*
X38722859Y14454229D01*
X38722859Y14454229D02*
X38960954Y14454229D01*
X38960954Y14454229D02*
X39056192Y14406610D01*
X39056192Y14406610D02*
X39103811Y14358991D01*
X39103811Y14358991D02*
X39151430Y14263753D01*
X39151430Y14263753D02*
X39151430Y14025658D01*
X39151430Y14025658D02*
X39103811Y13930420D01*
X39103811Y13930420D02*
X39056192Y13882800D01*
X39056192Y13882800D02*
X38960954Y13835181D01*
X38960954Y13835181D02*
X38722859Y13835181D01*
X38722859Y13835181D02*
X38627621Y13882800D01*
X38627621Y13882800D02*
X38580002Y13930420D01*
X62524344Y54357143D02*
X62571964Y54309524D01*
X62571964Y54309524D02*
X62619583Y54166667D01*
X62619583Y54166667D02*
X62619583Y54071429D01*
X62619583Y54071429D02*
X62571964Y53928572D01*
X62571964Y53928572D02*
X62476725Y53833334D01*
X62476725Y53833334D02*
X62381487Y53785715D01*
X62381487Y53785715D02*
X62191011Y53738096D01*
X62191011Y53738096D02*
X62048154Y53738096D01*
X62048154Y53738096D02*
X61857678Y53785715D01*
X61857678Y53785715D02*
X61762440Y53833334D01*
X61762440Y53833334D02*
X61667202Y53928572D01*
X61667202Y53928572D02*
X61619583Y54071429D01*
X61619583Y54071429D02*
X61619583Y54166667D01*
X61619583Y54166667D02*
X61667202Y54309524D01*
X61667202Y54309524D02*
X61714821Y54357143D01*
X61714821Y54738096D02*
X61667202Y54785715D01*
X61667202Y54785715D02*
X61619583Y54880953D01*
X61619583Y54880953D02*
X61619583Y55119048D01*
X61619583Y55119048D02*
X61667202Y55214286D01*
X61667202Y55214286D02*
X61714821Y55261905D01*
X61714821Y55261905D02*
X61810059Y55309524D01*
X61810059Y55309524D02*
X61905297Y55309524D01*
X61905297Y55309524D02*
X62048154Y55261905D01*
X62048154Y55261905D02*
X62619583Y54690477D01*
X62619583Y54690477D02*
X62619583Y55309524D01*
X61619583Y55642858D02*
X61619583Y56261905D01*
X61619583Y56261905D02*
X62000535Y55928572D01*
X62000535Y55928572D02*
X62000535Y56071429D01*
X62000535Y56071429D02*
X62048154Y56166667D01*
X62048154Y56166667D02*
X62095773Y56214286D01*
X62095773Y56214286D02*
X62191011Y56261905D01*
X62191011Y56261905D02*
X62429106Y56261905D01*
X62429106Y56261905D02*
X62524344Y56214286D01*
X62524344Y56214286D02*
X62571964Y56166667D01*
X62571964Y56166667D02*
X62619583Y56071429D01*
X62619583Y56071429D02*
X62619583Y55785715D01*
X62619583Y55785715D02*
X62571964Y55690477D01*
X62571964Y55690477D02*
X62524344Y55642858D01*
X70841906Y61820420D02*
X70794287Y61772800D01*
X70794287Y61772800D02*
X70651430Y61725181D01*
X70651430Y61725181D02*
X70556192Y61725181D01*
X70556192Y61725181D02*
X70413335Y61772800D01*
X70413335Y61772800D02*
X70318097Y61868039D01*
X70318097Y61868039D02*
X70270478Y61963277D01*
X70270478Y61963277D02*
X70222859Y62153753D01*
X70222859Y62153753D02*
X70222859Y62296610D01*
X70222859Y62296610D02*
X70270478Y62487086D01*
X70270478Y62487086D02*
X70318097Y62582324D01*
X70318097Y62582324D02*
X70413335Y62677562D01*
X70413335Y62677562D02*
X70556192Y62725181D01*
X70556192Y62725181D02*
X70651430Y62725181D01*
X70651430Y62725181D02*
X70794287Y62677562D01*
X70794287Y62677562D02*
X70841906Y62629943D01*
X71794287Y61725181D02*
X71222859Y61725181D01*
X71508573Y61725181D02*
X71508573Y62725181D01*
X71508573Y62725181D02*
X71413335Y62582324D01*
X71413335Y62582324D02*
X71318097Y62487086D01*
X71318097Y62487086D02*
X71222859Y62439467D01*
X72651430Y62725181D02*
X72460954Y62725181D01*
X72460954Y62725181D02*
X72365716Y62677562D01*
X72365716Y62677562D02*
X72318097Y62629943D01*
X72318097Y62629943D02*
X72222859Y62487086D01*
X72222859Y62487086D02*
X72175240Y62296610D01*
X72175240Y62296610D02*
X72175240Y61915658D01*
X72175240Y61915658D02*
X72222859Y61820420D01*
X72222859Y61820420D02*
X72270478Y61772800D01*
X72270478Y61772800D02*
X72365716Y61725181D01*
X72365716Y61725181D02*
X72556192Y61725181D01*
X72556192Y61725181D02*
X72651430Y61772800D01*
X72651430Y61772800D02*
X72699049Y61820420D01*
X72699049Y61820420D02*
X72746668Y61915658D01*
X72746668Y61915658D02*
X72746668Y62153753D01*
X72746668Y62153753D02*
X72699049Y62248991D01*
X72699049Y62248991D02*
X72651430Y62296610D01*
X72651430Y62296610D02*
X72556192Y62344229D01*
X72556192Y62344229D02*
X72365716Y62344229D01*
X72365716Y62344229D02*
X72270478Y62296610D01*
X72270478Y62296610D02*
X72222859Y62248991D01*
X72222859Y62248991D02*
X72175240Y62153753D01*
X64164344Y54357143D02*
X64211964Y54309524D01*
X64211964Y54309524D02*
X64259583Y54166667D01*
X64259583Y54166667D02*
X64259583Y54071429D01*
X64259583Y54071429D02*
X64211964Y53928572D01*
X64211964Y53928572D02*
X64116725Y53833334D01*
X64116725Y53833334D02*
X64021487Y53785715D01*
X64021487Y53785715D02*
X63831011Y53738096D01*
X63831011Y53738096D02*
X63688154Y53738096D01*
X63688154Y53738096D02*
X63497678Y53785715D01*
X63497678Y53785715D02*
X63402440Y53833334D01*
X63402440Y53833334D02*
X63307202Y53928572D01*
X63307202Y53928572D02*
X63259583Y54071429D01*
X63259583Y54071429D02*
X63259583Y54166667D01*
X63259583Y54166667D02*
X63307202Y54309524D01*
X63307202Y54309524D02*
X63354821Y54357143D01*
X63354821Y54738096D02*
X63307202Y54785715D01*
X63307202Y54785715D02*
X63259583Y54880953D01*
X63259583Y54880953D02*
X63259583Y55119048D01*
X63259583Y55119048D02*
X63307202Y55214286D01*
X63307202Y55214286D02*
X63354821Y55261905D01*
X63354821Y55261905D02*
X63450059Y55309524D01*
X63450059Y55309524D02*
X63545297Y55309524D01*
X63545297Y55309524D02*
X63688154Y55261905D01*
X63688154Y55261905D02*
X64259583Y54690477D01*
X64259583Y54690477D02*
X64259583Y55309524D01*
X63259583Y56214286D02*
X63259583Y55738096D01*
X63259583Y55738096D02*
X63735773Y55690477D01*
X63735773Y55690477D02*
X63688154Y55738096D01*
X63688154Y55738096D02*
X63640535Y55833334D01*
X63640535Y55833334D02*
X63640535Y56071429D01*
X63640535Y56071429D02*
X63688154Y56166667D01*
X63688154Y56166667D02*
X63735773Y56214286D01*
X63735773Y56214286D02*
X63831011Y56261905D01*
X63831011Y56261905D02*
X64069106Y56261905D01*
X64069106Y56261905D02*
X64164344Y56214286D01*
X64164344Y56214286D02*
X64211964Y56166667D01*
X64211964Y56166667D02*
X64259583Y56071429D01*
X64259583Y56071429D02*
X64259583Y55833334D01*
X64259583Y55833334D02*
X64211964Y55738096D01*
X64211964Y55738096D02*
X64164344Y55690477D01*
X113230597Y61895181D02*
X112897264Y62371372D01*
X112659169Y61895181D02*
X112659169Y62895181D01*
X112659169Y62895181D02*
X113040121Y62895181D01*
X113040121Y62895181D02*
X113135359Y62847562D01*
X113135359Y62847562D02*
X113182978Y62799943D01*
X113182978Y62799943D02*
X113230597Y62704705D01*
X113230597Y62704705D02*
X113230597Y62561848D01*
X113230597Y62561848D02*
X113182978Y62466610D01*
X113182978Y62466610D02*
X113135359Y62418991D01*
X113135359Y62418991D02*
X113040121Y62371372D01*
X113040121Y62371372D02*
X112659169Y62371372D01*
X114087740Y62895181D02*
X113897264Y62895181D01*
X113897264Y62895181D02*
X113802026Y62847562D01*
X113802026Y62847562D02*
X113754407Y62799943D01*
X113754407Y62799943D02*
X113659169Y62657086D01*
X113659169Y62657086D02*
X113611550Y62466610D01*
X113611550Y62466610D02*
X113611550Y62085658D01*
X113611550Y62085658D02*
X113659169Y61990420D01*
X113659169Y61990420D02*
X113706788Y61942800D01*
X113706788Y61942800D02*
X113802026Y61895181D01*
X113802026Y61895181D02*
X113992502Y61895181D01*
X113992502Y61895181D02*
X114087740Y61942800D01*
X114087740Y61942800D02*
X114135359Y61990420D01*
X114135359Y61990420D02*
X114182978Y62085658D01*
X114182978Y62085658D02*
X114182978Y62323753D01*
X114182978Y62323753D02*
X114135359Y62418991D01*
X114135359Y62418991D02*
X114087740Y62466610D01*
X114087740Y62466610D02*
X113992502Y62514229D01*
X113992502Y62514229D02*
X113802026Y62514229D01*
X113802026Y62514229D02*
X113706788Y62466610D01*
X113706788Y62466610D02*
X113659169Y62418991D01*
X113659169Y62418991D02*
X113611550Y62323753D01*
X13134483Y66120786D02*
X13134483Y65406501D01*
X13134483Y65406501D02*
X13086864Y65263644D01*
X13086864Y65263644D02*
X12991626Y65168405D01*
X12991626Y65168405D02*
X12848769Y65120786D01*
X12848769Y65120786D02*
X12753531Y65120786D01*
X14039245Y65787453D02*
X14039245Y65120786D01*
X13801150Y66168405D02*
X13563055Y65454120D01*
X13563055Y65454120D02*
X14182102Y65454120D01*
X117972859Y4745181D02*
X117972859Y3935658D01*
X117972859Y3935658D02*
X118020478Y3840420D01*
X118020478Y3840420D02*
X118068097Y3792800D01*
X118068097Y3792800D02*
X118163335Y3745181D01*
X118163335Y3745181D02*
X118353811Y3745181D01*
X118353811Y3745181D02*
X118449049Y3792800D01*
X118449049Y3792800D02*
X118496668Y3840420D01*
X118496668Y3840420D02*
X118544287Y3935658D01*
X118544287Y3935658D02*
X118544287Y4745181D01*
X118925240Y4745181D02*
X119544287Y4745181D01*
X119544287Y4745181D02*
X119210954Y4364229D01*
X119210954Y4364229D02*
X119353811Y4364229D01*
X119353811Y4364229D02*
X119449049Y4316610D01*
X119449049Y4316610D02*
X119496668Y4268991D01*
X119496668Y4268991D02*
X119544287Y4173753D01*
X119544287Y4173753D02*
X119544287Y3935658D01*
X119544287Y3935658D02*
X119496668Y3840420D01*
X119496668Y3840420D02*
X119449049Y3792800D01*
X119449049Y3792800D02*
X119353811Y3745181D01*
X119353811Y3745181D02*
X119068097Y3745181D01*
X119068097Y3745181D02*
X118972859Y3792800D01*
X118972859Y3792800D02*
X118925240Y3840420D01*
%TO.C,C9*%
D11*
X81004764Y40000000D02*
G75*
G02*
X74464764Y40000000I-3270000J0D01*
G01*
X74464764Y40000000D02*
G75*
G02*
X81004764Y40000000I3270000J0D01*
G01*
%TO.C,R1*%
X121211828Y53735000D02*
X120757700Y53735000D01*
X121211828Y52265000D02*
X120757700Y52265000D01*
%TO.C,C17*%
X71223512Y63735000D02*
X71746016Y63735000D01*
X71223512Y62265000D02*
X71746016Y62265000D01*
%TO.C,C20*%
X63746016Y45735000D02*
X63223512Y45735000D01*
X63746016Y44265000D02*
X63223512Y44265000D01*
%TO.C,J1*%
X129982264Y65620000D02*
X142722264Y65620000D01*
X129982264Y55380000D02*
X129982264Y65620000D01*
X136102264Y64980000D02*
X136102264Y65620000D01*
X136102264Y59980000D02*
X136102264Y61020000D01*
X136102264Y55380000D02*
X136102264Y56020000D01*
X137550264Y64350000D02*
X142102264Y64350000D01*
X138082264Y59350000D02*
X142102264Y59350000D01*
X142102264Y64350000D02*
X142102264Y61650000D01*
X142102264Y61650000D02*
X137550264Y61650000D01*
X142102264Y59350000D02*
X142102264Y56650000D01*
X142102264Y56650000D02*
X138082264Y56650000D01*
X142722264Y65620000D02*
X142722264Y58300000D01*
X142722264Y57700000D02*
X142722264Y55380000D01*
X142722264Y55380000D02*
X129982264Y55380000D01*
X131602264Y64750000D02*
G75*
G02*
X131602264Y61250000I-459259J-1750000D01*
G01*
X131602264Y61250000D02*
G75*
G02*
X131602264Y64750000I459259J1750000D01*
G01*
X131602264Y59750000D02*
G75*
G02*
X131602264Y56250000I-459259J-1750000D01*
G01*
X131602264Y56250000D02*
G75*
G02*
X131602264Y59750000I459259J1750000D01*
G01*
X142722264Y58000000D02*
X143332264Y58440000D01*
X143332264Y57560000D01*
X142722264Y58000000D01*
G36*
X143332264Y57560000D02*
G01*
X142722264Y58000000D01*
X143332264Y58440000D01*
X143332264Y57560000D01*
G37*
%TO.C,C22*%
X71223512Y57235000D02*
X71746016Y57235000D01*
X71223512Y55765000D02*
X71746016Y55765000D01*
%TO.C,C1*%
X111723512Y54735000D02*
X112246016Y54735000D01*
X111723512Y53265000D02*
X112246016Y53265000D01*
%TO.C,\u30D5\u30A7\u30E9\u30A4\u30C8\u30D3\u30FC\u30BA11*%
X70820006Y44410000D02*
X69149522Y44410000D01*
X70820006Y42590000D02*
X69149522Y42590000D01*
%TO.C,C28*%
X17723512Y19735000D02*
X18246016Y19735000D01*
X17723512Y18265000D02*
X18246016Y18265000D01*
%TO.C,R3*%
X121211828Y59235000D02*
X120757700Y59235000D01*
X121211828Y57765000D02*
X120757700Y57765000D01*
%TO.C,C29*%
X17723512Y17235000D02*
X18246016Y17235000D01*
X17723512Y15765000D02*
X18246016Y15765000D01*
%TO.C,R4*%
X121211828Y64735000D02*
X120757700Y64735000D01*
X121211828Y63265000D02*
X120757700Y63265000D01*
%TO.C,C12*%
X69723512Y41235000D02*
X70246016Y41235000D01*
X69723512Y39765000D02*
X70246016Y39765000D01*
%TO.C,C24*%
X62249764Y55261252D02*
X62249764Y54738748D01*
X63719764Y55261252D02*
X63719764Y54738748D01*
%TO.C,C15*%
X69773512Y36735000D02*
X70296016Y36735000D01*
X69773512Y35265000D02*
X70296016Y35265000D01*
%TO.C,R7*%
X92211828Y61735000D02*
X91757700Y61735000D01*
X92211828Y60265000D02*
X91757700Y60265000D01*
%TO.C,U5*%
X59354764Y43310000D02*
X63474764Y43310000D01*
X59354764Y43215000D02*
X59354764Y43310000D01*
X59354764Y38190000D02*
X59354764Y38285000D01*
X63474764Y43310000D02*
X63474764Y43215000D01*
X63474764Y38285000D02*
X63474764Y38190000D01*
X63474764Y38190000D02*
X59354764Y38190000D01*
X58814764Y43220000D02*
X58574764Y43550000D01*
X59054764Y43550000D01*
X58814764Y43220000D01*
G36*
X58814764Y43220000D02*
G01*
X58574764Y43550000D01*
X59054764Y43550000D01*
X58814764Y43220000D01*
G37*
%TO.C,J2*%
X42604764Y12900000D02*
X42604764Y63920000D01*
X45254764Y15550000D02*
X45254764Y12900000D01*
X45254764Y12900000D02*
X42604764Y12900000D01*
X47904764Y63920000D02*
X42604764Y63920000D01*
X47904764Y15550000D02*
X45254764Y15550000D01*
X47904764Y15550000D02*
X47904764Y63920000D01*
X47904764Y14280000D02*
X47904764Y12900000D01*
X47904764Y12900000D02*
X46524764Y12900000D01*
%TO.C,C5*%
X91723512Y57735000D02*
X92246016Y57735000D01*
X91723512Y56265000D02*
X92246016Y56265000D01*
%TO.C,C6*%
X91723512Y55235000D02*
X92246016Y55235000D01*
X91723512Y53765000D02*
X92246016Y53765000D01*
%TO.C,C4*%
X112196016Y57235000D02*
X111673512Y57235000D01*
X112196016Y55765000D02*
X111673512Y55765000D01*
%TO.C,C26*%
X58723512Y37235000D02*
X59246016Y37235000D01*
X58723512Y35765000D02*
X59246016Y35765000D01*
%TO.C,C2*%
X111723512Y52235000D02*
X112246016Y52235000D01*
X111723512Y50765000D02*
X112246016Y50765000D01*
%TO.C,C10*%
X91723512Y52735000D02*
X92246016Y52735000D01*
X91723512Y51265000D02*
X92246016Y51265000D01*
%TO.C,U1*%
X98124764Y64760000D02*
X105844764Y64760000D01*
X98124764Y64505000D02*
X98124764Y64760000D01*
X98124764Y54240000D02*
X98124764Y54495000D01*
X105844764Y64760000D02*
X105844764Y64505000D01*
X105844764Y54495000D02*
X105844764Y54240000D01*
X105844764Y54240000D02*
X98124764Y54240000D01*
X106634764Y54490000D02*
X106974764Y54020000D01*
X106294764Y54020000D01*
X106634764Y54490000D01*
G36*
X106974764Y54020000D02*
G01*
X106294764Y54020000D01*
X106634764Y54490000D01*
X106974764Y54020000D01*
G37*
%TO.C,C21*%
X71223512Y54735000D02*
X71746016Y54735000D01*
X71223512Y53265000D02*
X71746016Y53265000D01*
%TO.C,U4*%
X62674764Y64785000D02*
X67294764Y64785000D01*
X67294764Y58015000D02*
X62674764Y58015000D01*
X68844764Y58470000D02*
X69174764Y58710000D01*
X69174764Y58230000D01*
X68844764Y58470000D01*
G36*
X69174764Y58230000D02*
G01*
X68844764Y58470000D01*
X69174764Y58710000D01*
X69174764Y58230000D01*
G37*
%TO.C,R8*%
X92211828Y64235000D02*
X91757700Y64235000D01*
X92211828Y62765000D02*
X91757700Y62765000D01*
%TO.C,C13*%
X74574764Y60788748D02*
X74574764Y62211252D01*
X76394764Y60788748D02*
X76394764Y62211252D01*
%TO.C,C27*%
X24604764Y9500000D02*
G75*
G02*
X14364764Y9500000I-5120000J0D01*
G01*
X14364764Y9500000D02*
G75*
G02*
X24604764Y9500000I5120000J0D01*
G01*
%TO.C,C3*%
X111673512Y59735000D02*
X112196016Y59735000D01*
X111673512Y58265000D02*
X112196016Y58265000D01*
%TO.C,J5*%
X37154764Y18330000D02*
X37154764Y64110000D01*
X37154764Y15730000D02*
X37154764Y17060000D01*
X38484764Y15730000D02*
X37154764Y15730000D01*
X39814764Y64110000D02*
X37154764Y64110000D01*
X39814764Y18330000D02*
X37154764Y18330000D01*
X39814764Y18330000D02*
X39814764Y64110000D01*
%TO.C,C23*%
X59749764Y55261252D02*
X59749764Y54738748D01*
X61219764Y55261252D02*
X61219764Y54738748D01*
%TO.C,C16*%
X71223512Y61235000D02*
X71746016Y61235000D01*
X71223512Y59765000D02*
X71746016Y59765000D01*
%TO.C,C25*%
X64749764Y54738748D02*
X64749764Y55261252D01*
X66219764Y54738748D02*
X66219764Y55261252D01*
%TO.C,R6*%
X113624328Y64735000D02*
X113170200Y64735000D01*
X113624328Y63265000D02*
X113170200Y63265000D01*
%TO.C,J4*%
X12137817Y61535605D02*
X12137817Y15755605D01*
X12137817Y61535605D02*
X14797817Y61535605D01*
X12137817Y15755605D02*
X14797817Y15755605D01*
X13467817Y64135605D02*
X14797817Y64135605D01*
X14797817Y64135605D02*
X14797817Y62805605D01*
X14797817Y61535605D02*
X14797817Y15755605D01*
%TO.C,U3*%
X93874764Y35760000D02*
X143594764Y35760000D01*
X93874764Y5040000D02*
X93874764Y35760000D01*
X143594764Y35760000D02*
X143594764Y16796000D01*
X143594764Y16204000D02*
X143594764Y5040000D01*
X143594764Y5040000D02*
X93874764Y5040000D01*
X143594764Y16500000D02*
X144204764Y16940000D01*
X144204764Y16060000D01*
X143594764Y16500000D01*
G36*
X144204764Y16060000D02*
G01*
X143594764Y16500000D01*
X144204764Y16940000D01*
X144204764Y16060000D01*
G37*
%TD*%
M02*
