M48
; DRILL file KiCad 10.0.2 date 2026-07-16T20:03:04
; FORMAT={-:-/ absolute / metric / decimal}
; #@! TF.CreationDate,2026-07-16T20:03:04+09:00
; #@! TF.GenerationSoftware,Kicad,Pcbnew,10.0.2
; #@! TF.FileFunction,Plated,1,2,PTH
FMAT,2
METRIC
; #@! TA.AperFunction,Plated,PTH,ViaDrill
T1C0.300
; #@! TA.AperFunction,Plated,PTH,ComponentDrill
T2C0.800
; #@! TA.AperFunction,Plated,PTH,ComponentDrill
T3C1.000
; #@! TA.AperFunction,Plated,PTH,ComponentDrill
T4C1.300
%
G90
G05
T1
X0.0Y70.0
X0.0Y10.0
X5.0Y15.0
X5.0Y5.0
X6.485Y47.0
X10.0Y70.0
X10.0Y40.0
X15.0Y5.0
X20.0Y70.0
X20.0Y60.0
X20.0Y50.0
X20.0Y40.0
X20.0Y30.0
X25.0Y55.0
X25.0Y45.0
X25.0Y35.0
X25.0Y25.0
X25.0Y15.0
X25.0Y5.0
X30.0Y70.0
X30.0Y60.0
X30.0Y50.0
X30.0Y40.0
X30.0Y30.0
X30.0Y20.0
X35.0Y55.0
X35.0Y45.0
X35.0Y35.0
X35.0Y25.0
X35.0Y15.0
X35.0Y5.0
X40.0Y70.0
X45.0Y5.0
X50.0Y70.0
X50.0Y10.0
X54.985Y24.0
X55.0Y15.0
X55.0Y5.0
X58.985Y45.5
X60.0Y70.0
X60.0Y30.0
X60.0Y20.0
X60.0Y20.0
X60.485Y62.6
X60.485Y61.8
X60.485Y61.0
X60.485Y60.0
X63.985Y57.5
X65.0Y35.0
X65.0Y25.0
X65.0Y5.0
X68.485Y53.5
X68.985Y28.0
X70.0Y70.0
X70.0Y50.0
X70.0Y10.0
X70.485Y59.0
X75.0Y55.0
X75.0Y25.0
X75.0Y15.0
X75.0Y5.0
X75.485Y58.5
X80.0Y70.0
X80.0Y50.0
X80.0Y20.0
X80.0Y10.0
X85.0Y55.0
X85.0Y45.0
X85.0Y35.0
X85.0Y15.0
X85.0Y5.0
X89.5Y58.5
X90.0Y70.0
X90.0Y50.0
X90.0Y40.0
X90.0Y30.0
X90.0Y10.0
X95.0Y45.0
X100.0Y70.0
X100.0Y50.0
X100.0Y40.0
X105.0Y45.0
X110.0Y70.0
X110.0Y50.0
X110.0Y40.0
X115.0Y45.0
X120.0Y70.0
X120.0Y50.0
X120.0Y40.0
X125.0Y45.0
X130.0Y70.0
X130.0Y50.0
X130.0Y40.0
X140.0Y70.0
X145.0Y65.0
X145.0Y55.0
X145.0Y45.0
X145.0Y35.0
X145.0Y25.0
X145.0Y15.0
X145.0Y5.0
T2
X16.985Y9.5
X21.985Y9.5
X76.485Y40.0
X78.985Y40.0
T3
X1.857Y62.866
X1.857Y60.326
X1.857Y57.786
X1.857Y55.246
X1.857Y52.706
X1.857Y50.166
X1.857Y47.626
X1.857Y45.086
X1.857Y42.546
X1.857Y40.006
X1.857Y37.466
X1.857Y34.926
X1.857Y32.386
X1.857Y29.846
X1.857Y27.306
X1.857Y24.766
X1.857Y22.226
X1.857Y19.686
X1.857Y17.146
X4.397Y62.866
X4.397Y60.326
X4.397Y57.786
X4.397Y55.246
X4.397Y52.706
X4.397Y50.166
X4.397Y47.626
X4.397Y45.086
X4.397Y42.546
X4.397Y40.006
X4.397Y37.466
X4.397Y34.926
X4.397Y32.386
X4.397Y29.846
X4.397Y27.306
X4.397Y24.766
X4.397Y22.226
X4.397Y19.686
X4.397Y17.146
X13.468Y62.806
X13.468Y60.266
X13.468Y57.726
X13.468Y55.186
X13.468Y52.646
X13.468Y50.106
X13.468Y47.566
X13.468Y45.026
X13.468Y42.486
X13.468Y39.946
X13.468Y37.406
X13.468Y34.866
X13.468Y32.326
X13.468Y29.786
X13.468Y27.246
X13.468Y24.706
X13.468Y22.166
X13.468Y19.626
X13.468Y17.086
X38.485Y62.78
X38.485Y60.24
X38.485Y57.7
X38.485Y55.16
X38.485Y52.62
X38.485Y50.08
X38.485Y47.54
X38.485Y45.0
X38.485Y42.46
X38.485Y39.92
X38.485Y37.38
X38.485Y34.84
X38.485Y32.3
X38.485Y29.76
X38.485Y27.22
X38.485Y24.68
X38.485Y22.14
X38.485Y19.6
X38.485Y17.06
X43.985Y62.54
X43.985Y60.0
X43.985Y57.46
X43.985Y54.92
X43.985Y52.38
X43.985Y49.84
X43.985Y47.3
X43.985Y44.76
X43.985Y42.22
X43.985Y39.68
X43.985Y37.14
X43.985Y34.6
X43.985Y32.06
X43.985Y29.52
X43.985Y26.98
X43.985Y24.44
X43.985Y21.9
X43.985Y19.36
X43.985Y16.82
X43.985Y14.28
X46.525Y62.54
X46.525Y60.0
X46.525Y57.46
X46.525Y54.92
X46.525Y52.38
X46.525Y49.84
X46.525Y47.3
X46.525Y44.76
X46.525Y42.22
X46.525Y39.68
X46.525Y37.14
X46.525Y34.6
X46.525Y32.06
X46.525Y29.52
X46.525Y26.98
X46.525Y24.44
X46.525Y21.9
X46.525Y19.36
X46.525Y16.82
X46.525Y14.28
X51.445Y62.78
X51.445Y60.24
X51.445Y57.7
X51.445Y55.16
X51.445Y52.62
X51.445Y50.08
X51.445Y47.54
X51.445Y45.0
X51.445Y42.46
X51.445Y39.92
X51.445Y37.38
X51.445Y34.84
X51.445Y32.3
X51.445Y29.76
X51.445Y27.22
X51.445Y24.68
X51.445Y22.14
X51.445Y19.6
X51.445Y17.06
X53.985Y62.78
X53.985Y60.24
X53.985Y57.7
X53.985Y55.16
X53.985Y52.62
X53.985Y50.08
X53.985Y47.54
X53.985Y45.0
X53.985Y42.46
X53.985Y39.92
X53.985Y37.38
X53.985Y34.84
X53.985Y32.3
X53.985Y29.76
X53.985Y27.22
X53.985Y24.68
X53.985Y22.14
X53.985Y19.6
X53.985Y17.06
T4
X97.485Y31.7
X97.485Y9.1
X136.102Y63.0
X136.102Y58.0
X139.985Y24.3
X139.985Y16.5
M30
