%TF.GenerationSoftware,KiCad,Pcbnew,10.0.2*%
%TF.CreationDate,2026-07-16T20:02:55+09:00*%
%TF.ProjectId,test_v4,74657374-5f76-4342-9e6b-696361645f70,rev?*%
%TF.SameCoordinates,PX5746964PY8a48640*%
%TF.FileFunction,Legend,Bot*%
%TF.FilePolarity,Positive*%
%FSLAX46Y46*%
G04 Gerber Fmt 4.6, Leading zero omitted, Abs format (unit mm)*
G04 Created by KiCad (PCBNEW 10.0.2) date 2026-07-16 20:02:55*
%MOMM*%
%LPD*%
G01*
G04 APERTURE LIST*
%ADD10C,0.150000*%
%ADD11C,0.120000*%
G04 APERTURE END LIST*
D10*
X3460473Y66180746D02*
X3460473Y65466461D01*
X3460473Y65466461D02*
X3508092Y65323604D01*
X3508092Y65323604D02*
X3603330Y65228365D01*
X3603330Y65228365D02*
X3746187Y65180746D01*
X3746187Y65180746D02*
X3841425Y65180746D01*
X3079520Y66180746D02*
X2460473Y66180746D01*
X2460473Y66180746D02*
X2793806Y65799794D01*
X2793806Y65799794D02*
X2650949Y65799794D01*
X2650949Y65799794D02*
X2555711Y65752175D01*
X2555711Y65752175D02*
X2508092Y65704556D01*
X2508092Y65704556D02*
X2460473Y65609318D01*
X2460473Y65609318D02*
X2460473Y65371223D01*
X2460473Y65371223D02*
X2508092Y65275985D01*
X2508092Y65275985D02*
X2555711Y65228365D01*
X2555711Y65228365D02*
X2650949Y65180746D01*
X2650949Y65180746D02*
X2936663Y65180746D01*
X2936663Y65180746D02*
X3031901Y65228365D01*
X3031901Y65228365D02*
X3079520Y65275985D01*
X53048097Y66095181D02*
X53048097Y65380896D01*
X53048097Y65380896D02*
X53095716Y65238039D01*
X53095716Y65238039D02*
X53190954Y65142800D01*
X53190954Y65142800D02*
X53333811Y65095181D01*
X53333811Y65095181D02*
X53429049Y65095181D01*
X52143335Y66095181D02*
X52333811Y66095181D01*
X52333811Y66095181D02*
X52429049Y66047562D01*
X52429049Y66047562D02*
X52476668Y65999943D01*
X52476668Y65999943D02*
X52571906Y65857086D01*
X52571906Y65857086D02*
X52619525Y65666610D01*
X52619525Y65666610D02*
X52619525Y65285658D01*
X52619525Y65285658D02*
X52571906Y65190420D01*
X52571906Y65190420D02*
X52524287Y65142800D01*
X52524287Y65142800D02*
X52429049Y65095181D01*
X52429049Y65095181D02*
X52238573Y65095181D01*
X52238573Y65095181D02*
X52143335Y65142800D01*
X52143335Y65142800D02*
X52095716Y65190420D01*
X52095716Y65190420D02*
X52048097Y65285658D01*
X52048097Y65285658D02*
X52048097Y65523753D01*
X52048097Y65523753D02*
X52095716Y65618991D01*
X52095716Y65618991D02*
X52143335Y65666610D01*
X52143335Y65666610D02*
X52238573Y65714229D01*
X52238573Y65714229D02*
X52429049Y65714229D01*
X52429049Y65714229D02*
X52524287Y65666610D01*
X52524287Y65666610D02*
X52571906Y65618991D01*
X52571906Y65618991D02*
X52619525Y65523753D01*
%TO.C,J3*%
D11*
X527140Y64195565D02*
X527140Y62865565D01*
X527140Y61595565D02*
X527140Y15815565D01*
X1857140Y64195565D02*
X527140Y64195565D01*
X3127140Y64195565D02*
X3127140Y61595565D01*
X3127140Y61595565D02*
X527140Y61595565D01*
X5727140Y64195565D02*
X3127140Y64195565D01*
X5727140Y64195565D02*
X5727140Y15815565D01*
X5727140Y15815565D02*
X527140Y15815565D01*
%TO.C,J6*%
X50114764Y64110000D02*
X50114764Y62780000D01*
X50114764Y61510000D02*
X50114764Y15730000D01*
X51444764Y64110000D02*
X50114764Y64110000D01*
X52714764Y64110000D02*
X52714764Y61510000D01*
X52714764Y61510000D02*
X50114764Y61510000D01*
X55314764Y64110000D02*
X52714764Y64110000D01*
X55314764Y64110000D02*
X55314764Y15730000D01*
X55314764Y15730000D02*
X50114764Y15730000D01*
%TD*%
M02*
