%TF.GenerationSoftware,KiCad,Pcbnew,10.0.2*%
%TF.CreationDate,2026-07-16T20:02:55+09:00*%
%TF.ProjectId,test_v4,74657374-5f76-4342-9e6b-696361645f70,rev?*%
%TF.SameCoordinates,PX5746964PY8a48640*%
%TF.FileFunction,Soldermask,Bot*%
%TF.FilePolarity,Negative*%
%FSLAX46Y46*%
G04 Gerber Fmt 4.6, Leading zero omitted, Abs format (unit mm)*
G04 Created by KiCad (PCBNEW 10.0.2) date 2026-07-16 20:02:55*
%MOMM*%
%LPD*%
G01*
G04 APERTURE LIST*
G04 Aperture macros list*
%AMRoundRect*
0 Rectangle with rounded corners*
0 $1 Rounding radius*
0 $2 $3 $4 $5 $6 $7 $8 $9 X,Y pos of 4 corners*
0 Add a 4 corners polygon primitive as box body*
4,1,4,$2,$3,$4,$5,$6,$7,$8,$9,$2,$3,0*
0 Add four circle primitives for the rounded corners*
1,1,$1+$1,$2,$3*
1,1,$1+$1,$4,$5*
1,1,$1+$1,$6,$7*
1,1,$1+$1,$8,$9*
0 Add four rect primitives between the rounded corners*
20,1,$1+$1,$2,$3,$4,$5,0*
20,1,$1+$1,$4,$5,$6,$7,0*
20,1,$1+$1,$6,$7,$8,$9,0*
20,1,$1+$1,$8,$9,$2,$3,0*%
G04 Aperture macros list end*
%ADD10C,1.600000*%
%ADD11RoundRect,0.249999X1.250001X-1.250001X1.250001X1.250001X-1.250001X1.250001X-1.250001X-1.250001X0*%
%ADD12C,3.000000*%
%ADD13R,1.700000X1.700000*%
%ADD14C,1.700000*%
%ADD15RoundRect,0.250000X0.750000X0.900000X-0.750000X0.900000X-0.750000X-0.900000X0.750000X-0.900000X0*%
%ADD16O,2.000000X2.300000*%
G04 APERTURE END LIST*
D10*
%TO.C,C9*%
X78984764Y40000000D03*
X76484764Y40000000D03*
%TD*%
D11*
%TO.C,J1*%
X136102264Y58000000D03*
D12*
X136102264Y63000000D03*
%TD*%
D13*
%TO.C,J2*%
X46524764Y14280000D03*
D14*
X43984764Y14280000D03*
X46524764Y16820000D03*
X43984764Y16820000D03*
X46524764Y19360000D03*
X43984764Y19360000D03*
X46524764Y21900000D03*
X43984764Y21900000D03*
X46524764Y24440000D03*
X43984764Y24440000D03*
X46524764Y26980000D03*
X43984764Y26980000D03*
X46524764Y29520000D03*
X43984764Y29520000D03*
X46524764Y32060000D03*
X43984764Y32060000D03*
X46524764Y34600000D03*
X43984764Y34600000D03*
X46524764Y37140000D03*
X43984764Y37140000D03*
X46524764Y39680000D03*
X43984764Y39680000D03*
X46524764Y42220000D03*
X43984764Y42220000D03*
X46524764Y44760000D03*
X43984764Y44760000D03*
X46524764Y47300000D03*
X43984764Y47300000D03*
X46524764Y49840000D03*
X43984764Y49840000D03*
X46524764Y52380000D03*
X43984764Y52380000D03*
X46524764Y54920000D03*
X43984764Y54920000D03*
X46524764Y57460000D03*
X43984764Y57460000D03*
X46524764Y60000000D03*
X43984764Y60000000D03*
X46524764Y62540000D03*
X43984764Y62540000D03*
%TD*%
D10*
%TO.C,C27*%
X16984764Y9500000D03*
X21984764Y9500000D03*
%TD*%
D13*
%TO.C,J5*%
X38484764Y17060000D03*
D14*
X38484764Y19600000D03*
X38484764Y22140000D03*
X38484764Y24680000D03*
X38484764Y27220000D03*
X38484764Y29760000D03*
X38484764Y32300000D03*
X38484764Y34840000D03*
X38484764Y37380000D03*
X38484764Y39920000D03*
X38484764Y42460000D03*
X38484764Y45000000D03*
X38484764Y47540000D03*
X38484764Y50080000D03*
X38484764Y52620000D03*
X38484764Y55160000D03*
X38484764Y57700000D03*
X38484764Y60240000D03*
X38484764Y62780000D03*
%TD*%
D13*
%TO.C,J4*%
X13467817Y62805605D03*
D14*
X13467817Y60265605D03*
X13467817Y57725605D03*
X13467817Y55185605D03*
X13467817Y52645605D03*
X13467817Y50105605D03*
X13467817Y47565605D03*
X13467817Y45025605D03*
X13467817Y42485605D03*
X13467817Y39945605D03*
X13467817Y37405605D03*
X13467817Y34865605D03*
X13467817Y32325605D03*
X13467817Y29785605D03*
X13467817Y27245605D03*
X13467817Y24705605D03*
X13467817Y22165605D03*
X13467817Y19625605D03*
X13467817Y17085605D03*
%TD*%
D15*
%TO.C,U3*%
X139984764Y16500000D03*
D16*
X139984764Y24300000D03*
X97484764Y9100000D03*
X97484764Y31700000D03*
%TD*%
D13*
%TO.C,J3*%
X1857140Y62865565D03*
D14*
X4397140Y62865565D03*
X1857140Y60325565D03*
X4397140Y60325565D03*
X1857140Y57785565D03*
X4397140Y57785565D03*
X1857140Y55245565D03*
X4397140Y55245565D03*
X1857140Y52705565D03*
X4397140Y52705565D03*
X1857140Y50165565D03*
X4397140Y50165565D03*
X1857140Y47625565D03*
X4397140Y47625565D03*
X1857140Y45085565D03*
X4397140Y45085565D03*
X1857140Y42545565D03*
X4397140Y42545565D03*
X1857140Y40005565D03*
X4397140Y40005565D03*
X1857140Y37465565D03*
X4397140Y37465565D03*
X1857140Y34925565D03*
X4397140Y34925565D03*
X1857140Y32385565D03*
X4397140Y32385565D03*
X1857140Y29845565D03*
X4397140Y29845565D03*
X1857140Y27305565D03*
X4397140Y27305565D03*
X1857140Y24765565D03*
X4397140Y24765565D03*
X1857140Y22225565D03*
X4397140Y22225565D03*
X1857140Y19685565D03*
X4397140Y19685565D03*
X1857140Y17145565D03*
X4397140Y17145565D03*
%TD*%
D13*
%TO.C,J6*%
X51444764Y62780000D03*
D14*
X53984764Y62780000D03*
X51444764Y60240000D03*
X53984764Y60240000D03*
X51444764Y57700000D03*
X53984764Y57700000D03*
X51444764Y55160000D03*
X53984764Y55160000D03*
X51444764Y52620000D03*
X53984764Y52620000D03*
X51444764Y50080000D03*
X53984764Y50080000D03*
X51444764Y47540000D03*
X53984764Y47540000D03*
X51444764Y45000000D03*
X53984764Y45000000D03*
X51444764Y42460000D03*
X53984764Y42460000D03*
X51444764Y39920000D03*
X53984764Y39920000D03*
X51444764Y37380000D03*
X53984764Y37380000D03*
X51444764Y34840000D03*
X53984764Y34840000D03*
X51444764Y32300000D03*
X53984764Y32300000D03*
X51444764Y29760000D03*
X53984764Y29760000D03*
X51444764Y27220000D03*
X53984764Y27220000D03*
X51444764Y24680000D03*
X53984764Y24680000D03*
X51444764Y22140000D03*
X53984764Y22140000D03*
X51444764Y19600000D03*
X53984764Y19600000D03*
X51444764Y17060000D03*
X53984764Y17060000D03*
%TD*%
M02*
