G04 #@! TF.GenerationSoftware,KiCad,Pcbnew,10.0.2*
G04 #@! TF.CreationDate,2026-07-16T20:16:55+09:00*
G04 #@! TF.ProjectId,test_v4,74657374-5f76-4342-9e6b-696361645f70,rev?*
G04 #@! TF.SameCoordinates,PX5746964PY8a48640*
G04 #@! TF.FileFunction,Soldermask,Top*
G04 #@! TF.FilePolarity,Negative*
%FSLAX46Y46*%
G04 Gerber Fmt 4.6, Leading zero omitted, Abs format (unit mm)*
G04 Created by KiCad (PCBNEW 10.0.2) date 2026-07-16 20:16:55*
%MOMM*%
%LPD*%
G01*
G04 APERTURE LIST*
G04 Aperture macros list*
%AMRoundRect*
0 Rectangle with rounded corners*
0 $1 Rounding radius*
0 $2 $3 $4 $5 $6 $7 $8 $9 X,Y pos of 4 corners*
0 Add a 4 corners polygon primitive as box body*
4,1,4,$2,$3,$4,$5,$6,$7,$8,$9,$2,$3,0*
0 Add four circle primitives for the rounded corners*
1,1,$1+$1,$2,$3*
1,1,$1+$1,$4,$5*
1,1,$1+$1,$6,$7*
1,1,$1+$1,$8,$9*
0 Add four rect primitives between the rounded corners*
20,1,$1+$1,$2,$3,$4,$5,0*
20,1,$1+$1,$4,$5,$6,$7,0*
20,1,$1+$1,$6,$7,$8,$9,0*
20,1,$1+$1,$8,$9,$2,$3,0*%
G04 Aperture macros list end*
%ADD10C,1.600000*%
%ADD11RoundRect,0.250000X0.262500X0.450000X-0.262500X0.450000X-0.262500X-0.450000X0.262500X-0.450000X0*%
%ADD12RoundRect,0.250000X-0.250000X-0.475000X0.250000X-0.475000X0.250000X0.475000X-0.250000X0.475000X0*%
%ADD13RoundRect,0.250000X0.250000X0.475000X-0.250000X0.475000X-0.250000X-0.475000X0.250000X-0.475000X0*%
%ADD14RoundRect,0.249999X1.250001X-1.250001X1.250001X1.250001X-1.250001X1.250001X-1.250001X-1.250001X0*%
%ADD15C,3.000000*%
%ADD16RoundRect,0.250000X0.275000X0.700000X-0.275000X0.700000X-0.275000X-0.700000X0.275000X-0.700000X0*%
%ADD17RoundRect,0.250000X-0.475000X0.250000X-0.475000X-0.250000X0.475000X-0.250000X0.475000X0.250000X0*%
%ADD18RoundRect,0.150000X-0.825000X-0.150000X0.825000X-0.150000X0.825000X0.150000X-0.825000X0.150000X0*%
%ADD19R,2.290000X3.000000*%
%ADD20R,1.700000X1.700000*%
%ADD21C,1.700000*%
%ADD22RoundRect,0.150000X0.875000X0.150000X-0.875000X0.150000X-0.875000X-0.150000X0.875000X-0.150000X0*%
%ADD23RoundRect,0.100000X-0.130000X-0.100000X0.130000X-0.100000X0.130000X0.100000X-0.130000X0.100000X0*%
%ADD24RoundRect,0.100000X0.637500X0.100000X-0.637500X0.100000X-0.637500X-0.100000X0.637500X-0.100000X0*%
%ADD25RoundRect,0.250000X0.650000X-0.325000X0.650000X0.325000X-0.650000X0.325000X-0.650000X-0.325000X0*%
%ADD26RoundRect,0.250000X0.475000X-0.250000X0.475000X0.250000X-0.475000X0.250000X-0.475000X-0.250000X0*%
%ADD27RoundRect,0.250000X0.750000X0.900000X-0.750000X0.900000X-0.750000X-0.900000X0.750000X-0.900000X0*%
%ADD28O,2.000000X2.300000*%
G04 APERTURE END LIST*
D10*
G04 #@! TO.C,C9*
X78984764Y40000000D03*
X76484764Y40000000D03*
G04 #@! TD*
D11*
G04 #@! TO.C,R1*
X121897264Y53000000D03*
X120072264Y53000000D03*
G04 #@! TD*
D12*
G04 #@! TO.C,C17*
X70534764Y63000000D03*
X72434764Y63000000D03*
G04 #@! TD*
D13*
G04 #@! TO.C,C20*
X64434764Y45000000D03*
X62534764Y45000000D03*
G04 #@! TD*
D14*
G04 #@! TO.C,J1*
X136102264Y58000000D03*
D15*
X136102264Y63000000D03*
G04 #@! TD*
D12*
G04 #@! TO.C,C22*
X70534764Y56500000D03*
X72434764Y56500000D03*
G04 #@! TD*
G04 #@! TO.C,C1*
X111034764Y54000000D03*
X112934764Y54000000D03*
G04 #@! TD*
D16*
G04 #@! TO.C,\u30D5\u30A7\u30E9\u30A4\u30C8\u30D3\u30FC\u30BA11*
X71559764Y43500000D03*
X68409764Y43500000D03*
G04 #@! TD*
D12*
G04 #@! TO.C,C28*
X17034764Y19000000D03*
X18934764Y19000000D03*
G04 #@! TD*
D11*
G04 #@! TO.C,R3*
X121897264Y58500000D03*
X120072264Y58500000D03*
G04 #@! TD*
D12*
G04 #@! TO.C,C29*
X17034764Y16500000D03*
X18934764Y16500000D03*
G04 #@! TD*
D11*
G04 #@! TO.C,R4*
X121897264Y64000000D03*
X120072264Y64000000D03*
G04 #@! TD*
D12*
G04 #@! TO.C,C12*
X69034764Y40500000D03*
X70934764Y40500000D03*
G04 #@! TD*
D17*
G04 #@! TO.C,C24*
X62984764Y55950000D03*
X62984764Y54050000D03*
G04 #@! TD*
D12*
G04 #@! TO.C,C15*
X69084764Y36000000D03*
X70984764Y36000000D03*
G04 #@! TD*
D11*
G04 #@! TO.C,R7*
X92897264Y61000000D03*
X91072264Y61000000D03*
G04 #@! TD*
D18*
G04 #@! TO.C,U5*
X58939764Y42655000D03*
X58939764Y41385000D03*
X58939764Y40115000D03*
X58939764Y38845000D03*
X63889764Y38845000D03*
X63889764Y40115000D03*
X63889764Y41385000D03*
X63889764Y42655000D03*
D19*
X61414764Y40750000D03*
G04 #@! TD*
D20*
G04 #@! TO.C,J2*
X46524764Y14280000D03*
D21*
X43984764Y14280000D03*
X46524764Y16820000D03*
X43984764Y16820000D03*
X46524764Y19360000D03*
X43984764Y19360000D03*
X46524764Y21900000D03*
X43984764Y21900000D03*
X46524764Y24440000D03*
X43984764Y24440000D03*
X46524764Y26980000D03*
X43984764Y26980000D03*
X46524764Y29520000D03*
X43984764Y29520000D03*
X46524764Y32060000D03*
X43984764Y32060000D03*
X46524764Y34600000D03*
X43984764Y34600000D03*
X46524764Y37140000D03*
X43984764Y37140000D03*
X46524764Y39680000D03*
X43984764Y39680000D03*
X46524764Y42220000D03*
X43984764Y42220000D03*
X46524764Y44760000D03*
X43984764Y44760000D03*
X46524764Y47300000D03*
X43984764Y47300000D03*
X46524764Y49840000D03*
X43984764Y49840000D03*
X46524764Y52380000D03*
X43984764Y52380000D03*
X46524764Y54920000D03*
X43984764Y54920000D03*
X46524764Y57460000D03*
X43984764Y57460000D03*
X46524764Y60000000D03*
X43984764Y60000000D03*
X46524764Y62540000D03*
X43984764Y62540000D03*
G04 #@! TD*
D12*
G04 #@! TO.C,C5*
X91034764Y57000000D03*
X92934764Y57000000D03*
G04 #@! TD*
G04 #@! TO.C,C6*
X91034764Y54500000D03*
X92934764Y54500000D03*
G04 #@! TD*
D13*
G04 #@! TO.C,C4*
X112884764Y56500000D03*
X110984764Y56500000D03*
G04 #@! TD*
D12*
G04 #@! TO.C,C26*
X58034764Y36500000D03*
X59934764Y36500000D03*
G04 #@! TD*
G04 #@! TO.C,C2*
X111034764Y51500000D03*
X112934764Y51500000D03*
G04 #@! TD*
G04 #@! TO.C,C10*
X91034764Y52000000D03*
X92934764Y52000000D03*
G04 #@! TD*
D22*
G04 #@! TO.C,U1*
X106634764Y55055000D03*
X106634764Y56325000D03*
X106634764Y57595000D03*
X106634764Y58865000D03*
X106634764Y60135000D03*
X106634764Y61405000D03*
X106634764Y62675000D03*
X106634764Y63945000D03*
X97334764Y63945000D03*
X97334764Y62675000D03*
X97334764Y61405000D03*
X97334764Y60135000D03*
X97334764Y58865000D03*
X97334764Y57595000D03*
X97334764Y56325000D03*
X97334764Y55055000D03*
G04 #@! TD*
D23*
G04 #@! TO.C,R9*
X67344764Y57000000D03*
X67984764Y57000000D03*
G04 #@! TD*
D12*
G04 #@! TO.C,C21*
X70534764Y54000000D03*
X72434764Y54000000D03*
G04 #@! TD*
D24*
G04 #@! TO.C,U4*
X67847264Y58475000D03*
X67847264Y59125000D03*
X67847264Y59775000D03*
X67847264Y60425000D03*
X67847264Y61075000D03*
X67847264Y61725000D03*
X67847264Y62375000D03*
X67847264Y63025000D03*
X67847264Y63675000D03*
X67847264Y64325000D03*
X62122264Y64325000D03*
X62122264Y63675000D03*
X62122264Y63025000D03*
X62122264Y62375000D03*
X62122264Y61725000D03*
X62122264Y61075000D03*
X62122264Y60425000D03*
X62122264Y59775000D03*
X62122264Y59125000D03*
X62122264Y58475000D03*
G04 #@! TD*
D11*
G04 #@! TO.C,R8*
X92897264Y63500000D03*
X91072264Y63500000D03*
G04 #@! TD*
D25*
G04 #@! TO.C,C13*
X75484764Y60025000D03*
X75484764Y62975000D03*
G04 #@! TD*
D10*
G04 #@! TO.C,C27*
X16984764Y9500000D03*
X21984764Y9500000D03*
G04 #@! TD*
D12*
G04 #@! TO.C,C3*
X110984764Y59000000D03*
X112884764Y59000000D03*
G04 #@! TD*
D20*
G04 #@! TO.C,J5*
X38484764Y17060000D03*
D21*
X38484764Y19600000D03*
X38484764Y22140000D03*
X38484764Y24680000D03*
X38484764Y27220000D03*
X38484764Y29760000D03*
X38484764Y32300000D03*
X38484764Y34840000D03*
X38484764Y37380000D03*
X38484764Y39920000D03*
X38484764Y42460000D03*
X38484764Y45000000D03*
X38484764Y47540000D03*
X38484764Y50080000D03*
X38484764Y52620000D03*
X38484764Y55160000D03*
X38484764Y57700000D03*
X38484764Y60240000D03*
X38484764Y62780000D03*
G04 #@! TD*
D17*
G04 #@! TO.C,C23*
X60484764Y55950000D03*
X60484764Y54050000D03*
G04 #@! TD*
D12*
G04 #@! TO.C,C16*
X70534764Y60500000D03*
X72434764Y60500000D03*
G04 #@! TD*
D26*
G04 #@! TO.C,C25*
X65484764Y54050000D03*
X65484764Y55950000D03*
G04 #@! TD*
D11*
G04 #@! TO.C,R6*
X114309764Y64000000D03*
X112484764Y64000000D03*
G04 #@! TD*
D20*
G04 #@! TO.C,J4*
X13467817Y62805605D03*
D21*
X13467817Y60265605D03*
X13467817Y57725605D03*
X13467817Y55185605D03*
X13467817Y52645605D03*
X13467817Y50105605D03*
X13467817Y47565605D03*
X13467817Y45025605D03*
X13467817Y42485605D03*
X13467817Y39945605D03*
X13467817Y37405605D03*
X13467817Y34865605D03*
X13467817Y32325605D03*
X13467817Y29785605D03*
X13467817Y27245605D03*
X13467817Y24705605D03*
X13467817Y22165605D03*
X13467817Y19625605D03*
X13467817Y17085605D03*
G04 #@! TD*
D27*
G04 #@! TO.C,U3*
X139984764Y16500000D03*
D28*
X139984764Y24300000D03*
X97484764Y9100000D03*
X97484764Y31700000D03*
G04 #@! TD*
D20*
G04 #@! TO.C,J3*
X1857140Y62865565D03*
D21*
X4397140Y62865565D03*
X1857140Y60325565D03*
X4397140Y60325565D03*
X1857140Y57785565D03*
X4397140Y57785565D03*
X1857140Y55245565D03*
X4397140Y55245565D03*
X1857140Y52705565D03*
X4397140Y52705565D03*
X1857140Y50165565D03*
X4397140Y50165565D03*
X1857140Y47625565D03*
X4397140Y47625565D03*
X1857140Y45085565D03*
X4397140Y45085565D03*
X1857140Y42545565D03*
X4397140Y42545565D03*
X1857140Y40005565D03*
X4397140Y40005565D03*
X1857140Y37465565D03*
X4397140Y37465565D03*
X1857140Y34925565D03*
X4397140Y34925565D03*
X1857140Y32385565D03*
X4397140Y32385565D03*
X1857140Y29845565D03*
X4397140Y29845565D03*
X1857140Y27305565D03*
X4397140Y27305565D03*
X1857140Y24765565D03*
X4397140Y24765565D03*
X1857140Y22225565D03*
X4397140Y22225565D03*
X1857140Y19685565D03*
X4397140Y19685565D03*
X1857140Y17145565D03*
X4397140Y17145565D03*
G04 #@! TD*
D20*
G04 #@! TO.C,J6*
X51444764Y62780000D03*
D21*
X53984764Y62780000D03*
X51444764Y60240000D03*
X53984764Y60240000D03*
X51444764Y57700000D03*
X53984764Y57700000D03*
X51444764Y55160000D03*
X53984764Y55160000D03*
X51444764Y52620000D03*
X53984764Y52620000D03*
X51444764Y50080000D03*
X53984764Y50080000D03*
X51444764Y47540000D03*
X53984764Y47540000D03*
X51444764Y45000000D03*
X53984764Y45000000D03*
X51444764Y42460000D03*
X53984764Y42460000D03*
X51444764Y39920000D03*
X53984764Y39920000D03*
X51444764Y37380000D03*
X53984764Y37380000D03*
X51444764Y34840000D03*
X53984764Y34840000D03*
X51444764Y32300000D03*
X53984764Y32300000D03*
X51444764Y29760000D03*
X53984764Y29760000D03*
X51444764Y27220000D03*
X53984764Y27220000D03*
X51444764Y24680000D03*
X53984764Y24680000D03*
X51444764Y22140000D03*
X53984764Y22140000D03*
X51444764Y19600000D03*
X53984764Y19600000D03*
X51444764Y17060000D03*
X53984764Y17060000D03*
G04 #@! TD*
M02*
