%TF.GenerationSoftware,KiCad,Pcbnew,10.0.2*%
%TF.CreationDate,2026-07-16T20:02:54+09:00*%
%TF.ProjectId,test_v4,74657374-5f76-4342-9e6b-696361645f70,rev?*%
%TF.SameCoordinates,PX5746964PY8a48640*%
%TF.FileFunction,Copper,L2,Bot*%
%TF.FilePolarity,Positive*%
%FSLAX46Y46*%
G04 Gerber Fmt 4.6, Leading zero omitted, Abs format (unit mm)*
G04 Created by KiCad (PCBNEW 10.0.2) date 2026-07-16 20:02:54*
%MOMM*%
%LPD*%
G01*
G04 APERTURE LIST*
G04 Aperture macros list*
%AMRoundRect*
0 Rectangle with rounded corners*
0 $1 Rounding radius*
0 $2 $3 $4 $5 $6 $7 $8 $9 X,Y pos of 4 corners*
0 Add a 4 corners polygon primitive as box body*
4,1,4,$2,$3,$4,$5,$6,$7,$8,$9,$2,$3,0*
0 Add four circle primitives for the rounded corners*
1,1,$1+$1,$2,$3*
1,1,$1+$1,$4,$5*
1,1,$1+$1,$6,$7*
1,1,$1+$1,$8,$9*
0 Add four rect primitives between the rounded corners*
20,1,$1+$1,$2,$3,$4,$5,0*
20,1,$1+$1,$4,$5,$6,$7,0*
20,1,$1+$1,$6,$7,$8,$9,0*
20,1,$1+$1,$8,$9,$2,$3,0*%
G04 Aperture macros list end*
%TA.AperFunction,ComponentPad*%
%ADD10C,1.600000*%
%TD*%
%TA.AperFunction,ComponentPad*%
%ADD11RoundRect,0.249999X1.250001X-1.250001X1.250001X1.250001X-1.250001X1.250001X-1.250001X-1.250001X0*%
%TD*%
%TA.AperFunction,ComponentPad*%
%ADD12C,3.000000*%
%TD*%
%TA.AperFunction,ComponentPad*%
%ADD13R,1.700000X1.700000*%
%TD*%
%TA.AperFunction,ComponentPad*%
%ADD14C,1.700000*%
%TD*%
%TA.AperFunction,ComponentPad*%
%ADD15RoundRect,0.250000X0.750000X0.900000X-0.750000X0.900000X-0.750000X-0.900000X0.750000X-0.900000X0*%
%TD*%
%TA.AperFunction,ComponentPad*%
%ADD16O,2.000000X2.300000*%
%TD*%
%TA.AperFunction,ViaPad*%
%ADD17C,0.600000*%
%TD*%
%TA.AperFunction,Conductor*%
%ADD18C,0.500000*%
%TD*%
%TA.AperFunction,Conductor*%
%ADD19C,0.800000*%
%TD*%
%TA.AperFunction,Conductor*%
%ADD20C,0.200000*%
%TD*%
G04 APERTURE END LIST*
D10*
%TO.P,C9,1*%
%TO.N,Net-(U3-+Vout)*%
X78984764Y40000000D03*
%TO.P,C9,2*%
%TO.N,DGND*%
X76484764Y40000000D03*
%TD*%
D11*
%TO.P,J1,1,Pin_1_1*%
%TO.N,/Lnode*%
X136102264Y58000000D03*
D12*
%TO.P,J1,2,Pin_2_2*%
%TO.N,HGND*%
X136102264Y63000000D03*
%TD*%
D13*
%TO.P,J2,1,Pin_1_1*%
%TO.N,unconnected-(J2-Pin_1-Pad1)*%
X46524764Y14280000D03*
D14*
%TO.P,J2,2,Pin_2_2*%
%TO.N,+5V*%
X43984764Y14280000D03*
%TO.P,J2,3,Pin_3_3*%
%TO.N,unconnected-(J2-Pin_3-Pad3)*%
X46524764Y16820000D03*
%TO.P,J2,4,Pin_4_4*%
%TO.N,unconnected-(J2-Pin_4-Pad4)*%
X43984764Y16820000D03*
%TO.P,J2,5,Pin_5_5*%
%TO.N,unconnected-(J2-Pin_5-Pad5)*%
X46524764Y19360000D03*
%TO.P,J2,6,Pin_6_6*%
%TO.N,DGND*%
X43984764Y19360000D03*
%TO.P,J2,7,Pin_7_7*%
%TO.N,/PPS*%
X46524764Y21900000D03*
%TO.P,J2,8,Pin_8_8*%
%TO.N,/USART2_RX*%
X43984764Y21900000D03*
%TO.P,J2,9,Pin_9_9*%
%TO.N,unconnected-(J2-Pin_9-Pad9)*%
X46524764Y24440000D03*
%TO.P,J2,10,Pin_10_10*%
%TO.N,/USART2_TX*%
X43984764Y24440000D03*
%TO.P,J2,11,Pin_11_11*%
%TO.N,unconnected-(J2-Pin_11-Pad11)*%
X46524764Y26980000D03*
%TO.P,J2,12,Pin_12_12*%
%TO.N,unconnected-(J2-Pin_12-Pad12)*%
X43984764Y26980000D03*
%TO.P,J2,13,Pin_13_13*%
%TO.N,unconnected-(J2-Pin_13-Pad13)*%
X46524764Y29520000D03*
%TO.P,J2,14,Pin_14_14*%
%TO.N,unconnected-(J2-Pin_14-Pad14)*%
X43984764Y29520000D03*
%TO.P,J2,15,Pin_15_15*%
%TO.N,unconnected-(J2-Pin_15-Pad15)*%
X46524764Y32060000D03*
%TO.P,J2,16,Pin_16_16*%
%TO.N,unconnected-(J2-Pin_16-Pad16)*%
X43984764Y32060000D03*
%TO.P,J2,17,Pin_17_17*%
%TO.N,unconnected-(J2-Pin_17-Pad17)*%
X46524764Y34600000D03*
%TO.P,J2,18,Pin_18_18*%
%TO.N,unconnected-(J2-Pin_18-Pad18)*%
X43984764Y34600000D03*
%TO.P,J2,19,Pin_19_19*%
%TO.N,unconnected-(J2-Pin_19-Pad19)*%
X46524764Y37140000D03*
%TO.P,J2,20,Pin_20_20*%
%TO.N,unconnected-(J2-Pin_20-Pad20)*%
X43984764Y37140000D03*
%TO.P,J2,21,Pin_21_21*%
%TO.N,unconnected-(J2-Pin_21-Pad21)*%
X46524764Y39680000D03*
%TO.P,J2,22,Pin_22_22*%
%TO.N,unconnected-(J2-Pin_22-Pad22)*%
X43984764Y39680000D03*
%TO.P,J2,23,Pin_23_23*%
%TO.N,unconnected-(J2-Pin_23-Pad23)*%
X46524764Y42220000D03*
%TO.P,J2,24,Pin_24_24*%
%TO.N,unconnected-(J2-Pin_24-Pad24)*%
X43984764Y42220000D03*
%TO.P,J2,25,Pin_25_25*%
%TO.N,unconnected-(J2-Pin_25-Pad25)*%
X46524764Y44760000D03*
%TO.P,J2,26,Pin_26_26*%
%TO.N,unconnected-(J2-Pin_26-Pad26)*%
X43984764Y44760000D03*
%TO.P,J2,27,Pin_27_27*%
%TO.N,unconnected-(J2-Pin_27-Pad27)*%
X46524764Y47300000D03*
%TO.P,J2,28,Pin_28_28*%
%TO.N,unconnected-(J2-Pin_28-Pad28)*%
X43984764Y47300000D03*
%TO.P,J2,29,Pin_29_29*%
%TO.N,unconnected-(J2-Pin_29-Pad29)*%
X46524764Y49840000D03*
%TO.P,J2,30,Pin_30_30*%
%TO.N,unconnected-(J2-Pin_30-Pad30)*%
X43984764Y49840000D03*
%TO.P,J2,31,Pin_31_31*%
%TO.N,unconnected-(J2-Pin_31-Pad31)*%
X46524764Y52380000D03*
%TO.P,J2,32,Pin_32_32*%
%TO.N,unconnected-(J2-Pin_32-Pad32)*%
X43984764Y52380000D03*
%TO.P,J2,33,Pin_33_33*%
%TO.N,unconnected-(J2-Pin_33-Pad33)*%
X46524764Y54920000D03*
%TO.P,J2,34,Pin_34_34*%
%TO.N,unconnected-(J2-Pin_34-Pad34)*%
X43984764Y54920000D03*
%TO.P,J2,35,Pin_35_35*%
%TO.N,unconnected-(J2-Pin_35-Pad35)*%
X46524764Y57460000D03*
%TO.P,J2,36,Pin_36_36*%
%TO.N,unconnected-(J2-Pin_36-Pad36)*%
X43984764Y57460000D03*
%TO.P,J2,37,Pin_37_37*%
%TO.N,unconnected-(J2-Pin_37-Pad37)*%
X46524764Y60000000D03*
%TO.P,J2,38,Pin_38_38*%
%TO.N,unconnected-(J2-Pin_38-Pad38)*%
X43984764Y60000000D03*
%TO.P,J2,39,Pin_39_39*%
%TO.N,unconnected-(J2-Pin_39-Pad39)*%
X46524764Y62540000D03*
%TO.P,J2,40,Pin_40_40*%
%TO.N,unconnected-(J2-Pin_40-Pad40)*%
X43984764Y62540000D03*
%TD*%
D10*
%TO.P,C27,1*%
%TO.N,+5V*%
X16984764Y9500000D03*
%TO.P,C27,2*%
%TO.N,DGND*%
X21984764Y9500000D03*
%TD*%
D13*
%TO.P,J5,1,Pin_1_1*%
%TO.N,unconnected-(J5-Pin_1-Pad1)*%
X38484764Y17060000D03*
D14*
%TO.P,J5,2,Pin_2_2*%
%TO.N,unconnected-(J5-Pin_2-Pad2)*%
X38484764Y19600000D03*
%TO.P,J5,3,Pin_3_3*%
%TO.N,unconnected-(J5-Pin_3-Pad3)*%
X38484764Y22140000D03*
%TO.P,J5,4,Pin_4_4*%
%TO.N,unconnected-(J5-Pin_4-Pad4)*%
X38484764Y24680000D03*
%TO.P,J5,5,Pin_5_5*%
%TO.N,unconnected-(J5-Pin_5-Pad5)*%
X38484764Y27220000D03*
%TO.P,J5,6,Pin_6_6*%
%TO.N,unconnected-(J5-Pin_6-Pad6)*%
X38484764Y29760000D03*
%TO.P,J5,7,Pin_7_7*%
%TO.N,unconnected-(J5-Pin_7-Pad7)*%
X38484764Y32300000D03*
%TO.P,J5,8,Pin_8_8*%
%TO.N,unconnected-(J5-Pin_8-Pad8)*%
X38484764Y34840000D03*
%TO.P,J5,9,Pin_9_9*%
%TO.N,unconnected-(J5-Pin_9-Pad9)*%
X38484764Y37380000D03*
%TO.P,J5,10,Pin_10_10*%
%TO.N,unconnected-(J5-Pin_10-Pad10)*%
X38484764Y39920000D03*
%TO.P,J5,11,Pin_11_11*%
%TO.N,unconnected-(J5-Pin_11-Pad11)*%
X38484764Y42460000D03*
%TO.P,J5,12,Pin_12_12*%
%TO.N,unconnected-(J5-Pin_12-Pad12)*%
X38484764Y45000000D03*
%TO.P,J5,13,Pin_13_13*%
%TO.N,unconnected-(J5-Pin_13-Pad13)*%
X38484764Y47540000D03*
%TO.P,J5,14,Pin_14_14*%
%TO.N,unconnected-(J5-Pin_14-Pad14)*%
X38484764Y50080000D03*
%TO.P,J5,15,Pin_15_15*%
%TO.N,/USART1_TX*%
X38484764Y52620000D03*
%TO.P,J5,16,Pin_16_16*%
%TO.N,/USART1_RX*%
X38484764Y55160000D03*
%TO.P,J5,17,Pin_17_17*%
%TO.N,unconnected-(J5-Pin_17-Pad17)*%
X38484764Y57700000D03*
%TO.P,J5,18,Pin_18_18*%
%TO.N,unconnected-(J5-Pin_18-Pad18)*%
X38484764Y60240000D03*
%TO.P,J5,19,Pin_19_19*%
%TO.N,DGND*%
X38484764Y62780000D03*
%TD*%
D13*
%TO.P,J4,1,Pin_1_1*%
%TO.N,unconnected-(J4-Pin_1-Pad1)*%
X13467817Y62805605D03*
D14*
%TO.P,J4,2,Pin_2_2*%
%TO.N,unconnected-(J4-Pin_2-Pad2)*%
X13467817Y60265605D03*
%TO.P,J4,3,Pin_3_3*%
%TO.N,unconnected-(J4-Pin_3-Pad3)*%
X13467817Y57725605D03*
%TO.P,J4,4,Pin_4_4*%
%TO.N,unconnected-(J4-Pin_4-Pad4)*%
X13467817Y55185605D03*
%TO.P,J4,5,Pin_5_5*%
%TO.N,unconnected-(J4-Pin_5-Pad5)*%
X13467817Y52645605D03*
%TO.P,J4,6,Pin_6_6*%
%TO.N,unconnected-(J4-Pin_6-Pad6)*%
X13467817Y50105605D03*
%TO.P,J4,7,Pin_7_7*%
%TO.N,unconnected-(J4-Pin_7-Pad7)*%
X13467817Y47565605D03*
%TO.P,J4,8,Pin_8_8*%
%TO.N,unconnected-(J4-Pin_8-Pad8)*%
X13467817Y45025605D03*
%TO.P,J4,9,Pin_9_9*%
%TO.N,unconnected-(J4-Pin_9-Pad9)*%
X13467817Y42485605D03*
%TO.P,J4,10,Pin_10_10*%
%TO.N,unconnected-(J4-Pin_10-Pad10)*%
X13467817Y39945605D03*
%TO.P,J4,11,Pin_11_11*%
%TO.N,unconnected-(J4-Pin_11-Pad11)*%
X13467817Y37405605D03*
%TO.P,J4,12,Pin_12_12*%
%TO.N,unconnected-(J4-Pin_12-Pad12)*%
X13467817Y34865605D03*
%TO.P,J4,13,Pin_13_13*%
%TO.N,unconnected-(J4-Pin_13-Pad13)*%
X13467817Y32325605D03*
%TO.P,J4,14,Pin_14_14*%
%TO.N,unconnected-(J4-Pin_14-Pad14)*%
X13467817Y29785605D03*
%TO.P,J4,15,Pin_15_15*%
%TO.N,unconnected-(J4-Pin_15-Pad15)*%
X13467817Y27245605D03*
%TO.P,J4,16,Pin_16_16*%
%TO.N,unconnected-(J4-Pin_16-Pad16)*%
X13467817Y24705605D03*
%TO.P,J4,17,Pin_17_17*%
%TO.N,unconnected-(J4-Pin_17-Pad17)*%
X13467817Y22165605D03*
%TO.P,J4,18,Pin_18_18*%
%TO.N,unconnected-(J4-Pin_18-Pad18)*%
X13467817Y19625605D03*
%TO.P,J4,19,Pin_19_19*%
%TO.N,+5V*%
X13467817Y17085605D03*
%TD*%
D15*
%TO.P,U3,1,AC/L_1*%
%TO.N,/Lnode*%
X139984764Y16500000D03*
D16*
%TO.P,U3,2,AC/N_2*%
%TO.N,HGND*%
X139984764Y24300000D03*
%TO.P,U3,3,-Vout_3*%
%TO.N,DGND*%
X97484764Y9100000D03*
%TO.P,U3,4,+Vout_4*%
%TO.N,Net-(U3-+Vout)*%
X97484764Y31700000D03*
%TD*%
D13*
%TO.P,J3,1,Pin_1_1*%
%TO.N,/SYNC{slash}RESET*%
X1857140Y62865565D03*
D14*
%TO.P,J3,2,Pin_2_2*%
%TO.N,unconnected-(J3-Pin_2-Pad2)*%
X4397140Y62865565D03*
%TO.P,J3,3,Pin_3_3*%
%TO.N,unconnected-(J3-Pin_3-Pad3)*%
X1857140Y60325565D03*
%TO.P,J3,4,Pin_4_4*%
%TO.N,unconnected-(J3-Pin_4-Pad4)*%
X4397140Y60325565D03*
%TO.P,J3,5,Pin_5_5*%
%TO.N,unconnected-(J3-Pin_5-Pad5)*%
X1857140Y57785565D03*
%TO.P,J3,6,Pin_6_6*%
%TO.N,unconnected-(J3-Pin_6-Pad6)*%
X4397140Y57785565D03*
%TO.P,J3,7,Pin_7_7*%
%TO.N,unconnected-(J3-Pin_7-Pad7)*%
X1857140Y55245565D03*
%TO.P,J3,8,Pin_8_8*%
%TO.N,unconnected-(J3-Pin_8-Pad8)*%
X4397140Y55245565D03*
%TO.P,J3,9,Pin_9_9*%
%TO.N,unconnected-(J3-Pin_9-Pad9)*%
X1857140Y52705565D03*
%TO.P,J3,10,Pin_10_10*%
%TO.N,unconnected-(J3-Pin_10-Pad10)*%
X4397140Y52705565D03*
%TO.P,J3,11,Pin_11_11*%
%TO.N,unconnected-(J3-Pin_11-Pad11)*%
X1857140Y50165565D03*
%TO.P,J3,12,Pin_12_12*%
%TO.N,unconnected-(J3-Pin_12-Pad12)*%
X4397140Y50165565D03*
%TO.P,J3,13,Pin_13_13*%
%TO.N,unconnected-(J3-Pin_13-Pad13)*%
X1857140Y47625565D03*
%TO.P,J3,14,Pin_14_14*%
%TO.N,unconnected-(J3-Pin_14-Pad14)*%
X4397140Y47625565D03*
%TO.P,J3,15,Pin_15_15*%
%TO.N,unconnected-(J3-Pin_15-Pad15)*%
X1857140Y45085565D03*
%TO.P,J3,16,Pin_16_16*%
%TO.N,+3.3DVDD*%
X4397140Y45085565D03*
%TO.P,J3,17,Pin_17_17*%
%TO.N,unconnected-(J3-Pin_17-Pad17)*%
X1857140Y42545565D03*
%TO.P,J3,18,Pin_18_18*%
%TO.N,+5V*%
X4397140Y42545565D03*
%TO.P,J3,19,Pin_19_19*%
%TO.N,unconnected-(J3-Pin_19-Pad19)*%
X1857140Y40005565D03*
%TO.P,J3,20,Pin_20_20*%
%TO.N,DGND*%
X4397140Y40005565D03*
%TO.P,J3,21,Pin_21_21*%
%TO.N,unconnected-(J3-Pin_21-Pad21)*%
X1857140Y37465565D03*
%TO.P,J3,22,Pin_22_22*%
%TO.N,unconnected-(J3-Pin_22-Pad22)*%
X4397140Y37465565D03*
%TO.P,J3,23,Pin_23_23*%
%TO.N,unconnected-(J3-Pin_23-Pad23)*%
X1857140Y34925565D03*
%TO.P,J3,24,Pin_24_24*%
%TO.N,unconnected-(J3-Pin_24-Pad24)*%
X4397140Y34925565D03*
%TO.P,J3,25,Pin_25_25*%
%TO.N,unconnected-(J3-Pin_25-Pad25)*%
X1857140Y32385565D03*
%TO.P,J3,26,Pin_26_26*%
%TO.N,unconnected-(J3-Pin_26-Pad26)*%
X4397140Y32385565D03*
%TO.P,J3,27,Pin_27_27*%
%TO.N,unconnected-(J3-Pin_27-Pad27)*%
X1857140Y29845565D03*
%TO.P,J3,28,Pin_28_28*%
%TO.N,unconnected-(J3-Pin_28-Pad28)*%
X4397140Y29845565D03*
%TO.P,J3,29,Pin_29_29*%
%TO.N,unconnected-(J3-Pin_29-Pad29)*%
X1857140Y27305565D03*
%TO.P,J3,30,Pin_30_30*%
%TO.N,unconnected-(J3-Pin_30-Pad30)*%
X4397140Y27305565D03*
%TO.P,J3,31,Pin_31_31*%
%TO.N,unconnected-(J3-Pin_31-Pad31)*%
X1857140Y24765565D03*
%TO.P,J3,32,Pin_32_32*%
%TO.N,unconnected-(J3-Pin_32-Pad32)*%
X4397140Y24765565D03*
%TO.P,J3,33,Pin_33_33*%
%TO.N,unconnected-(J3-Pin_33-Pad33)*%
X1857140Y22225565D03*
%TO.P,J3,34,Pin_34_34*%
%TO.N,unconnected-(J3-Pin_34-Pad34)*%
X4397140Y22225565D03*
%TO.P,J3,35,Pin_35_35*%
%TO.N,unconnected-(J3-Pin_35-Pad35)*%
X1857140Y19685565D03*
%TO.P,J3,36,Pin_36_36*%
%TO.N,unconnected-(J3-Pin_36-Pad36)*%
X4397140Y19685565D03*
%TO.P,J3,37,Pin_37_37*%
%TO.N,unconnected-(J3-Pin_37-Pad37)*%
X1857140Y17145565D03*
%TO.P,J3,38,Pin_38_38*%
%TO.N,unconnected-(J3-Pin_38-Pad38)*%
X4397140Y17145565D03*
%TD*%
D13*
%TO.P,J6,1,Pin_1_1*%
%TO.N,unconnected-(J6-Pin_1-Pad1)*%
X51444764Y62780000D03*
D14*
%TO.P,J6,2,Pin_2_2*%
%TO.N,unconnected-(J6-Pin_2-Pad2)*%
X53984764Y62780000D03*
%TO.P,J6,3,Pin_3_3*%
%TO.N,unconnected-(J6-Pin_3-Pad3)*%
X51444764Y60240000D03*
%TO.P,J6,4,Pin_4_4*%
%TO.N,unconnected-(J6-Pin_4-Pad4)*%
X53984764Y60240000D03*
%TO.P,J6,5,Pin_5_5*%
%TO.N,unconnected-(J6-Pin_5-Pad5)*%
X51444764Y57700000D03*
%TO.P,J6,6,Pin_6_6*%
%TO.N,unconnected-(J6-Pin_6-Pad6)*%
X53984764Y57700000D03*
%TO.P,J6,7,Pin_7_7*%
%TO.N,unconnected-(J6-Pin_7-Pad7)*%
X51444764Y55160000D03*
%TO.P,J6,8,Pin_8_8*%
%TO.N,unconnected-(J6-Pin_8-Pad8)*%
X53984764Y55160000D03*
%TO.P,J6,9,Pin_9_9*%
%TO.N,unconnected-(J6-Pin_9-Pad9)*%
X51444764Y52620000D03*
%TO.P,J6,10,Pin_10_10*%
%TO.N,unconnected-(J6-Pin_10-Pad10)*%
X53984764Y52620000D03*
%TO.P,J6,11,Pin_11_11*%
%TO.N,unconnected-(J6-Pin_11-Pad11)*%
X51444764Y50080000D03*
%TO.P,J6,12,Pin_12_12*%
%TO.N,unconnected-(J6-Pin_12-Pad12)*%
X53984764Y50080000D03*
%TO.P,J6,13,Pin_13_13*%
%TO.N,unconnected-(J6-Pin_13-Pad13)*%
X51444764Y47540000D03*
%TO.P,J6,14,Pin_14_14*%
%TO.N,unconnected-(J6-Pin_14-Pad14)*%
X53984764Y47540000D03*
%TO.P,J6,15,Pin_15_15*%
%TO.N,/SPI1_SCLK*%
X51444764Y45000000D03*
%TO.P,J6,16,Pin_16_16*%
%TO.N,unconnected-(J6-Pin_16-Pad16)*%
X53984764Y45000000D03*
%TO.P,J6,17,Pin_17_17*%
%TO.N,/SPI1_MISO*%
X51444764Y42460000D03*
%TO.P,J6,18,Pin_18_18*%
%TO.N,unconnected-(J6-Pin_18-Pad18)*%
X53984764Y42460000D03*
%TO.P,J6,19,Pin_19_19*%
%TO.N,/SPI1_MOSI*%
X51444764Y39920000D03*
%TO.P,J6,20,Pin_20_20*%
%TO.N,unconnected-(J6-Pin_20-Pad20)*%
X53984764Y39920000D03*
%TO.P,J6,21,Pin_21_21*%
%TO.N,/USART1_TX*%
X51444764Y37380000D03*
%TO.P,J6,22,Pin_22_22*%
%TO.N,unconnected-(J6-Pin_22-Pad22)*%
X53984764Y37380000D03*
%TO.P,J6,23,Pin_23_23*%
%TO.N,/MCO1*%
X51444764Y34840000D03*
%TO.P,J6,24,Pin_24_24*%
%TO.N,unconnected-(J6-Pin_24-Pad24)*%
X53984764Y34840000D03*
%TO.P,J6,25,Pin_25_25*%
%TO.N,unconnected-(J6-Pin_25-Pad25)*%
X51444764Y32300000D03*
%TO.P,J6,26,Pin_26_26*%
%TO.N,/DRDY*%
X53984764Y32300000D03*
%TO.P,J6,27,Pin_27_27*%
%TO.N,unconnected-(J6-Pin_27-Pad27)*%
X51444764Y29760000D03*
%TO.P,J6,28,Pin_28_28*%
%TO.N,unconnected-(J6-Pin_28-Pad28)*%
X53984764Y29760000D03*
%TO.P,J6,29,Pin_29_29*%
%TO.N,unconnected-(J6-Pin_29-Pad29)*%
X51444764Y27220000D03*
%TO.P,J6,30,Pin_30_30*%
%TO.N,unconnected-(J6-Pin_30-Pad30)*%
X53984764Y27220000D03*
%TO.P,J6,31,Pin_31_31*%
%TO.N,unconnected-(J6-Pin_31-Pad31)*%
X51444764Y24680000D03*
%TO.P,J6,32,Pin_32_32*%
%TO.N,/PPS*%
X53984764Y24680000D03*
%TO.P,J6,33,Pin_33_33*%
%TO.N,/USART1_RX*%
X51444764Y22140000D03*
%TO.P,J6,34,Pin_34_34*%
%TO.N,unconnected-(J6-Pin_34-Pad34)*%
X53984764Y22140000D03*
%TO.P,J6,35,Pin_35_35*%
%TO.N,/USART2_TX*%
X51444764Y19600000D03*
%TO.P,J6,36,Pin_36_36*%
%TO.N,/SPI1_CS*%
X53984764Y19600000D03*
%TO.P,J6,37,Pin_37_37*%
%TO.N,/USART2_RX*%
X51444764Y17060000D03*
%TO.P,J6,38,Pin_38_38*%
%TO.N,unconnected-(J6-Pin_38-Pad38)*%
X53984764Y17060000D03*
%TD*%
D17*
%TO.N,+3.3AVDD*%
X89500000Y58500000D03*
%TO.N,DGND*%
X145000000Y5000000D03*
X145000000Y15000000D03*
X145000000Y25000000D03*
X145000000Y35000000D03*
X145000000Y45000000D03*
X145000000Y55000000D03*
X145000000Y65000000D03*
X140000000Y70000000D03*
X130000000Y70000000D03*
X120000000Y70000000D03*
X110000000Y70000000D03*
X100000000Y70000000D03*
X90000000Y70000000D03*
X80000000Y70000000D03*
X70000000Y70000000D03*
X60000000Y70000000D03*
X50000000Y70000000D03*
X40000000Y70000000D03*
X30000000Y70000000D03*
X0Y70000000D03*
X10000000Y70000000D03*
X20000000Y70000000D03*
X10000000Y40000000D03*
X20000000Y50000000D03*
X20000000Y60000000D03*
X30000000Y60000000D03*
X25000000Y55000000D03*
X30000000Y50000000D03*
X35000000Y55000000D03*
X35000000Y45000000D03*
X25000000Y45000000D03*
X30000000Y40000000D03*
X20000000Y40000000D03*
X20000000Y30000000D03*
X30000000Y20000000D03*
X30000000Y30000000D03*
X25000000Y35000000D03*
X35000000Y35000000D03*
X35000000Y25000000D03*
X25000000Y25000000D03*
X25000000Y15000000D03*
X35000000Y15000000D03*
X0Y10000000D03*
X5000000Y15000000D03*
X5000000Y5000000D03*
X15000000Y5000000D03*
X25000000Y5000000D03*
X35000000Y5000000D03*
X45000000Y5000000D03*
X55000000Y5000000D03*
X50000000Y10000000D03*
X55000000Y15000000D03*
X65000000Y35000000D03*
X60000000Y30000000D03*
X60000000Y20000000D03*
X60000000Y20000000D03*
X65000000Y25000000D03*
X65000000Y5000000D03*
X70000000Y10000000D03*
X85000000Y5000000D03*
X80000000Y10000000D03*
X75000000Y5000000D03*
X75000000Y25000000D03*
X80000000Y20000000D03*
X75000000Y15000000D03*
X90000000Y10000000D03*
X85000000Y15000000D03*
X85000000Y35000000D03*
X90000000Y30000000D03*
X85000000Y55000000D03*
X75000000Y55000000D03*
X70000000Y50000000D03*
X80000000Y50000000D03*
X85000000Y45000000D03*
X90000000Y40000000D03*
X90000000Y50000000D03*
X95000000Y45000000D03*
X100000000Y40000000D03*
X100000000Y50000000D03*
X105000000Y45000000D03*
X110000000Y40000000D03*
X110000000Y50000000D03*
X115000000Y45000000D03*
X120000000Y40000000D03*
X120000000Y50000000D03*
X125000000Y45000000D03*
X130000000Y40000000D03*
X130000000Y50000000D03*
%TO.N,+5V*%
X68984764Y28000000D03*
%TO.N,+3.3AVDD*%
X68484764Y53500000D03*
X58984764Y45500000D03*
%TO.N,+3.3DVDD*%
X63984764Y57500000D03*
X6484764Y47000000D03*
%TO.N,Net-(U4-AIN0P)*%
X75484764Y58500000D03*
X70484764Y59000000D03*
%TO.N,/PPS*%
X54984764Y24000000D03*
%TO.N,/SPI1_SCLK*%
X60484764Y62600006D03*
%TO.N,/SPI1_MISO*%
X60484764Y61800003D03*
%TO.N,/SPI1_MOSI*%
X60484764Y61000000D03*
%TO.N,/MCO1*%
X60484764Y60000000D03*
%TD*%
%TO.N,+3.3AVDD*%
D18*
X89500000Y58000000D02*
X89500000Y58500000D01*
X83507618Y52007618D02*
X89500000Y58000000D01*
X65492382Y52007618D02*
X83507618Y52007618D01*
X65492382Y52007618D02*
X66984764Y53500000D01*
%TO.N,+5V*%
D19*
X68984764Y17500000D02*
X59484764Y8000000D01*
X10484764Y36457941D02*
X4397140Y42545565D01*
X46984764Y8000000D02*
X26484764Y8000000D01*
X43984764Y11000000D02*
X43984764Y14280000D01*
X68984764Y28000000D02*
X68984764Y17500000D01*
X26484764Y8000000D02*
X11484764Y8000000D01*
X10484764Y9000000D02*
X10484764Y36457941D01*
X59484764Y8000000D02*
X46984764Y8000000D01*
X46984764Y8000000D02*
X43984764Y11000000D01*
X18484764Y8000000D02*
X16984764Y9500000D01*
X26484764Y8000000D02*
X18484764Y8000000D01*
X11484764Y8000000D02*
X10484764Y9000000D01*
%TO.N,+3.3AVDD*%
D18*
X58984764Y45500000D02*
X65492382Y52007618D01*
X66984764Y53500000D02*
X68484764Y53500000D01*
%TO.N,+3.3DVDD*%
X63984764Y60160667D02*
X63984764Y57500000D01*
X6484764Y47000000D02*
X6484764Y58422552D01*
X12167817Y64105605D02*
X60039826Y64105605D01*
X60039826Y64105605D02*
X63984764Y60160667D01*
X6484764Y58422552D02*
X12167817Y64105605D01*
%TO.N,Net-(U4-AIN0P)*%
D20*
X74984764Y58000000D02*
X71484764Y58000000D01*
X71484764Y58000000D02*
X70484764Y59000000D01*
X75484764Y58500000D02*
X74984764Y58000000D01*
%TO.N,/PPS*%
X54984764Y24000000D02*
X54274764Y23290000D01*
X54274764Y23290000D02*
X47914764Y23290000D01*
X47914764Y23290000D02*
X46524764Y21900000D01*
%TO.N,/SPI1_SCLK*%
X59684776Y62600006D02*
X59584770Y62500000D01*
X60484764Y62600006D02*
X59684776Y62600006D01*
X59584770Y62500000D02*
X59584770Y61600006D01*
X53508418Y56310000D02*
X52594764Y55396346D01*
X59584770Y61600006D02*
X54294764Y56310000D01*
X52594764Y55396346D02*
X52594764Y46150000D01*
X54294764Y56310000D02*
X53508418Y56310000D01*
X52594764Y46150000D02*
X51444764Y45000000D01*
%TO.N,/SPI1_MISO*%
X52834764Y43850000D02*
X51444764Y42460000D01*
X54461110Y46150000D02*
X53508418Y46150000D01*
X55134764Y56498529D02*
X55134764Y46823654D01*
X53508418Y46150000D02*
X52834764Y45476346D01*
X60436238Y61800003D02*
X55134764Y56498529D01*
X55134764Y46823654D02*
X54461110Y46150000D01*
X52834764Y45476346D02*
X52834764Y43850000D01*
X60484764Y61800003D02*
X60436238Y61800003D01*
%TO.N,/SPI1_MOSI*%
X60484764Y61000000D02*
X55984764Y56500000D01*
X55984764Y56500000D02*
X55984764Y39000000D01*
X55984764Y39000000D02*
X55754764Y38770000D01*
X55754764Y38770000D02*
X52594764Y38770000D01*
X52594764Y38770000D02*
X51444764Y39920000D01*
%TO.N,/MCO1*%
X54271110Y33500000D02*
X52784764Y33500000D01*
X52784764Y33500000D02*
X51444764Y34840000D01*
X60484764Y60000000D02*
X56984764Y56500000D01*
X56984764Y56500000D02*
X56984764Y36213654D01*
X56984764Y36213654D02*
X54271110Y33500000D01*
%TD*%
%TA.AperFunction,Conductor*%
%TO.N,DGND*%
G36*
X37148521Y63335420D02*
G01*
X37194276Y63282616D01*
X37204220Y63213458D01*
X37199413Y63192786D01*
X37168005Y63096127D01*
X37134764Y62886247D01*
X37134764Y62673754D01*
X37168006Y62463873D01*
X37168006Y62463870D01*
X37233668Y62261783D01*
X37330139Y62072450D01*
X37369492Y62018284D01*
X38001800Y62650593D01*
X38018839Y62587007D01*
X38084665Y62472993D01*
X38177757Y62379901D01*
X38291771Y62314075D01*
X38355354Y62297038D01*
X37723046Y61664731D01*
X37723046Y61664730D01*
X37777216Y61625374D01*
X37777215Y61625374D01*
X37786259Y61620766D01*
X37837056Y61572792D01*
X37853851Y61504971D01*
X37831314Y61438836D01*
X37786263Y61399798D01*
X37776946Y61395051D01*
X37604977Y61270110D01*
X37454654Y61119787D01*
X37329715Y60947821D01*
X37233208Y60758415D01*
X37167517Y60556240D01*
X37134264Y60346287D01*
X37134264Y60133714D01*
X37165766Y59934814D01*
X37167518Y59923757D01*
X37224887Y59747193D01*
X37233208Y59721586D01*
X37329715Y59532180D01*
X37454654Y59360214D01*
X37604977Y59209891D01*
X37776946Y59084950D01*
X37785710Y59080484D01*
X37836506Y59032509D01*
X37853300Y58964688D01*
X37830762Y58898553D01*
X37785710Y58859516D01*
X37776946Y58855051D01*
X37604977Y58730110D01*
X37454654Y58579787D01*
X37329715Y58407821D01*
X37233208Y58218415D01*
X37167517Y58016240D01*
X37134264Y57806287D01*
X37134264Y57593714D01*
X37165024Y57399499D01*
X37167518Y57383757D01*
X37224887Y57207193D01*
X37233208Y57181586D01*
X37329715Y56992180D01*
X37454654Y56820214D01*
X37604977Y56669891D01*
X37776946Y56544950D01*
X37785710Y56540484D01*
X37836506Y56492509D01*
X37853300Y56424688D01*
X37830762Y56358553D01*
X37785710Y56319516D01*
X37776946Y56315051D01*
X37604977Y56190110D01*
X37454654Y56039787D01*
X37329715Y55867821D01*
X37233208Y55678415D01*
X37167517Y55476240D01*
X37134264Y55266287D01*
X37134264Y55053714D01*
X37163462Y54869362D01*
X37167518Y54843757D01*
X37224887Y54667193D01*
X37233208Y54641586D01*
X37329715Y54452180D01*
X37454654Y54280214D01*
X37604977Y54129891D01*
X37776946Y54004950D01*
X37785710Y54000484D01*
X37836506Y53952509D01*
X37853300Y53884688D01*
X37830762Y53818553D01*
X37785710Y53779516D01*
X37776946Y53775051D01*
X37604977Y53650110D01*
X37454654Y53499787D01*
X37329715Y53327821D01*
X37233208Y53138415D01*
X37167517Y52936240D01*
X37134264Y52726287D01*
X37134264Y52513714D01*
X37163462Y52329362D01*
X37167518Y52303757D01*
X37224887Y52127193D01*
X37233208Y52101586D01*
X37329715Y51912180D01*
X37454654Y51740214D01*
X37604977Y51589891D01*
X37776946Y51464950D01*
X37785710Y51460484D01*
X37836506Y51412509D01*
X37853300Y51344688D01*
X37830762Y51278553D01*
X37785710Y51239516D01*
X37776946Y51235051D01*
X37604977Y51110110D01*
X37454654Y50959787D01*
X37329715Y50787821D01*
X37233208Y50598415D01*
X37167517Y50396240D01*
X37134264Y50186287D01*
X37134264Y49973714D01*
X37163462Y49789362D01*
X37167518Y49763757D01*
X37224887Y49587193D01*
X37233208Y49561586D01*
X37329715Y49372180D01*
X37454654Y49200214D01*
X37604977Y49049891D01*
X37776946Y48924950D01*
X37785710Y48920484D01*
X37836506Y48872509D01*
X37853300Y48804688D01*
X37830762Y48738553D01*
X37785710Y48699516D01*
X37776946Y48695051D01*
X37604977Y48570110D01*
X37454654Y48419787D01*
X37329715Y48247821D01*
X37233208Y48058415D01*
X37167517Y47856240D01*
X37134264Y47646287D01*
X37134264Y47433714D01*
X37165976Y47233489D01*
X37167518Y47223757D01*
X37224887Y47047193D01*
X37233208Y47021586D01*
X37329715Y46832180D01*
X37454654Y46660214D01*
X37604977Y46509891D01*
X37776946Y46384950D01*
X37785710Y46380484D01*
X37836506Y46332509D01*
X37853300Y46264688D01*
X37830762Y46198553D01*
X37785710Y46159516D01*
X37776946Y46155051D01*
X37604977Y46030110D01*
X37454654Y45879787D01*
X37329715Y45707821D01*
X37233208Y45518415D01*
X37167517Y45316240D01*
X37134264Y45106287D01*
X37134264Y44893714D01*
X37165024Y44699500D01*
X37167518Y44683757D01*
X37224887Y44507193D01*
X37233208Y44481586D01*
X37329715Y44292180D01*
X37454654Y44120214D01*
X37604977Y43969891D01*
X37776946Y43844950D01*
X37785710Y43840484D01*
X37836506Y43792509D01*
X37853300Y43724688D01*
X37830762Y43658553D01*
X37785710Y43619516D01*
X37776946Y43615051D01*
X37604977Y43490110D01*
X37454654Y43339787D01*
X37329715Y43167821D01*
X37233208Y42978415D01*
X37167517Y42776240D01*
X37134264Y42566287D01*
X37134264Y42353714D01*
X37163462Y42169362D01*
X37167518Y42143757D01*
X37224887Y41967193D01*
X37233208Y41941586D01*
X37329715Y41752180D01*
X37454654Y41580214D01*
X37604977Y41429891D01*
X37776946Y41304950D01*
X37785710Y41300484D01*
X37836506Y41252509D01*
X37853300Y41184688D01*
X37830762Y41118553D01*
X37785710Y41079516D01*
X37776946Y41075051D01*
X37604977Y40950110D01*
X37454654Y40799787D01*
X37329715Y40627821D01*
X37233208Y40438415D01*
X37167517Y40236240D01*
X37146306Y40102318D01*
X37134264Y40026287D01*
X37134264Y39813713D01*
X37143659Y39754394D01*
X37163795Y39627259D01*
X37167518Y39603757D01*
X37224887Y39427193D01*
X37233208Y39401586D01*
X37329715Y39212180D01*
X37454654Y39040214D01*
X37604977Y38889891D01*
X37776946Y38764950D01*
X37785710Y38760484D01*
X37836506Y38712509D01*
X37853300Y38644688D01*
X37830762Y38578553D01*
X37785710Y38539516D01*
X37776946Y38535051D01*
X37604977Y38410110D01*
X37604973Y38410106D01*
X37454660Y38259792D01*
X37454654Y38259787D01*
X37329715Y38087821D01*
X37233208Y37898415D01*
X37167517Y37696240D01*
X37134264Y37486287D01*
X37134264Y37273714D01*
X37163462Y37089362D01*
X37167518Y37063757D01*
X37225768Y36884482D01*
X37233208Y36861586D01*
X37329715Y36672180D01*
X37454654Y36500214D01*
X37604977Y36349891D01*
X37776946Y36224950D01*
X37785710Y36220484D01*
X37836506Y36172509D01*
X37853300Y36104688D01*
X37830762Y36038553D01*
X37785710Y35999516D01*
X37776946Y35995051D01*
X37604977Y35870110D01*
X37454654Y35719787D01*
X37329715Y35547821D01*
X37233208Y35358415D01*
X37167517Y35156240D01*
X37134264Y34946287D01*
X37134264Y34733714D01*
X37163462Y34549362D01*
X37167518Y34523757D01*
X37224887Y34347193D01*
X37233208Y34321586D01*
X37329715Y34132180D01*
X37454654Y33960214D01*
X37604977Y33809891D01*
X37776946Y33684950D01*
X37785710Y33680484D01*
X37836506Y33632509D01*
X37853300Y33564688D01*
X37830762Y33498553D01*
X37785710Y33459516D01*
X37776946Y33455051D01*
X37604977Y33330110D01*
X37454654Y33179787D01*
X37329715Y33007821D01*
X37233208Y32818415D01*
X37167517Y32616240D01*
X37134264Y32406287D01*
X37134264Y32193714D01*
X37163462Y32009362D01*
X37167518Y31983757D01*
X37224887Y31807193D01*
X37233208Y31781586D01*
X37329715Y31592180D01*
X37454654Y31420214D01*
X37604977Y31269891D01*
X37776946Y31144950D01*
X37785710Y31140484D01*
X37836506Y31092509D01*
X37853300Y31024688D01*
X37830762Y30958553D01*
X37785710Y30919516D01*
X37776946Y30915051D01*
X37604977Y30790110D01*
X37454654Y30639787D01*
X37329715Y30467821D01*
X37233208Y30278415D01*
X37167517Y30076240D01*
X37134264Y29866287D01*
X37134264Y29653714D01*
X37163462Y29469362D01*
X37167518Y29443757D01*
X37224887Y29267193D01*
X37233208Y29241586D01*
X37329715Y29052180D01*
X37454654Y28880214D01*
X37604977Y28729891D01*
X37776946Y28604950D01*
X37785710Y28600484D01*
X37836506Y28552509D01*
X37853300Y28484688D01*
X37830762Y28418553D01*
X37785710Y28379516D01*
X37776946Y28375051D01*
X37604977Y28250110D01*
X37454654Y28099787D01*
X37329715Y27927821D01*
X37233208Y27738415D01*
X37167517Y27536240D01*
X37134264Y27326287D01*
X37134264Y27113714D01*
X37163462Y26929362D01*
X37167518Y26903757D01*
X37224887Y26727193D01*
X37233208Y26701586D01*
X37329715Y26512180D01*
X37454654Y26340214D01*
X37604977Y26189891D01*
X37776946Y26064950D01*
X37785710Y26060484D01*
X37836506Y26012509D01*
X37853300Y25944688D01*
X37830762Y25878553D01*
X37785710Y25839516D01*
X37776946Y25835051D01*
X37604977Y25710110D01*
X37454654Y25559787D01*
X37329715Y25387821D01*
X37233208Y25198415D01*
X37167517Y24996240D01*
X37134264Y24786287D01*
X37134264Y24573714D01*
X37163462Y24389362D01*
X37167518Y24363757D01*
X37224887Y24187193D01*
X37233208Y24161586D01*
X37329715Y23972180D01*
X37454654Y23800214D01*
X37604977Y23649891D01*
X37776946Y23524950D01*
X37785710Y23520484D01*
X37836506Y23472509D01*
X37853300Y23404688D01*
X37830762Y23338553D01*
X37785710Y23299516D01*
X37776946Y23295051D01*
X37604977Y23170110D01*
X37454654Y23019787D01*
X37329715Y22847821D01*
X37233208Y22658415D01*
X37167517Y22456240D01*
X37134264Y22246287D01*
X37134264Y22033714D01*
X37163462Y21849362D01*
X37167518Y21823757D01*
X37224887Y21647193D01*
X37233208Y21621586D01*
X37329715Y21432180D01*
X37454654Y21260214D01*
X37604977Y21109891D01*
X37776946Y20984950D01*
X37785710Y20980484D01*
X37836506Y20932509D01*
X37853300Y20864688D01*
X37830762Y20798553D01*
X37785710Y20759516D01*
X37776946Y20755051D01*
X37604977Y20630110D01*
X37454654Y20479787D01*
X37329715Y20307821D01*
X37233208Y20118415D01*
X37167517Y19916240D01*
X37134264Y19706287D01*
X37134264Y19493714D01*
X37163462Y19309362D01*
X37167518Y19283757D01*
X37224887Y19107193D01*
X37233208Y19081586D01*
X37329715Y18892180D01*
X37454654Y18720214D01*
X37568194Y18606674D01*
X37601679Y18545351D01*
X37596695Y18475659D01*
X37554823Y18419726D01*
X37523847Y18402811D01*
X37392433Y18353797D01*
X37392428Y18353794D01*
X37277219Y18267548D01*
X37277216Y18267545D01*
X37190970Y18152336D01*
X37190966Y18152329D01*
X37140672Y18017483D01*
X37135073Y17965397D01*
X37134265Y17957877D01*
X37134264Y17957865D01*
X37134264Y16162130D01*
X37134265Y16162124D01*
X37140672Y16102517D01*
X37190966Y15967672D01*
X37190970Y15967665D01*
X37277216Y15852456D01*
X37277219Y15852453D01*
X37392428Y15766207D01*
X37392435Y15766203D01*
X37527281Y15715909D01*
X37527280Y15715909D01*
X37534208Y15715165D01*
X37586891Y15709500D01*
X39382636Y15709501D01*
X39442247Y15715909D01*
X39577095Y15766204D01*
X39692310Y15852454D01*
X39778560Y15967669D01*
X39828855Y16102517D01*
X39835264Y16162127D01*
X39835263Y17957872D01*
X39828855Y18017483D01*
X39828350Y18018836D01*
X39778561Y18152329D01*
X39778557Y18152336D01*
X39692311Y18267545D01*
X39692308Y18267548D01*
X39577099Y18353794D01*
X39577092Y18353798D01*
X39445681Y18402811D01*
X39389747Y18444682D01*
X39365330Y18510147D01*
X39380182Y18578420D01*
X39401327Y18606668D01*
X39514868Y18720208D01*
X39639815Y18892184D01*
X39736321Y19081588D01*
X39802010Y19283757D01*
X39835264Y19493713D01*
X39835264Y19706287D01*
X39802010Y19916243D01*
X39736321Y20118412D01*
X39639815Y20307816D01*
X39639813Y20307819D01*
X39639812Y20307821D01*
X39514873Y20479787D01*
X39364550Y20630110D01*
X39192584Y20755049D01*
X39191879Y20755409D01*
X39183818Y20759515D01*
X39133023Y20807488D01*
X39116227Y20875308D01*
X39138763Y20941444D01*
X39183818Y20980485D01*
X39192580Y20984949D01*
X39241110Y21020208D01*
X39364550Y21109891D01*
X39364552Y21109894D01*
X39364556Y21109896D01*
X39514868Y21260208D01*
X39514870Y21260212D01*
X39514873Y21260214D01*
X39639812Y21432180D01*
X39639811Y21432180D01*
X39639815Y21432184D01*
X39736321Y21621588D01*
X39802010Y21823757D01*
X39835264Y22033713D01*
X39835264Y22246287D01*
X39802010Y22456243D01*
X39736321Y22658412D01*
X39639815Y22847816D01*
X39639813Y22847819D01*
X39639812Y22847821D01*
X39514873Y23019787D01*
X39364550Y23170110D01*
X39192584Y23295049D01*
X39191879Y23295409D01*
X39183818Y23299515D01*
X39133023Y23347488D01*
X39116227Y23415308D01*
X39138763Y23481444D01*
X39183818Y23520485D01*
X39192580Y23524949D01*
X39241110Y23560208D01*
X39364550Y23649891D01*
X39364552Y23649894D01*
X39364556Y23649896D01*
X39514868Y23800208D01*
X39514870Y23800212D01*
X39514873Y23800214D01*
X39639812Y23972180D01*
X39639811Y23972180D01*
X39639815Y23972184D01*
X39736321Y24161588D01*
X39802010Y24363757D01*
X39835264Y24573713D01*
X39835264Y24786287D01*
X39802010Y24996243D01*
X39736321Y25198412D01*
X39639815Y25387816D01*
X39639813Y25387819D01*
X39639812Y25387821D01*
X39514873Y25559787D01*
X39364550Y25710110D01*
X39192584Y25835049D01*
X39191879Y25835409D01*
X39183818Y25839515D01*
X39133023Y25887488D01*
X39116227Y25955308D01*
X39138763Y26021444D01*
X39183818Y26060485D01*
X39192580Y26064949D01*
X39241110Y26100208D01*
X39364550Y26189891D01*
X39364552Y26189894D01*
X39364556Y26189896D01*
X39514868Y26340208D01*
X39514870Y26340212D01*
X39514873Y26340214D01*
X39639812Y26512180D01*
X39639811Y26512180D01*
X39639815Y26512184D01*
X39736321Y26701588D01*
X39802010Y26903757D01*
X39835264Y27113713D01*
X39835264Y27326287D01*
X39802010Y27536243D01*
X39736321Y27738412D01*
X39639815Y27927816D01*
X39639813Y27927819D01*
X39639812Y27927821D01*
X39514873Y28099787D01*
X39364550Y28250110D01*
X39192584Y28375049D01*
X39191879Y28375409D01*
X39183818Y28379515D01*
X39133023Y28427488D01*
X39116227Y28495308D01*
X39138763Y28561444D01*
X39183818Y28600485D01*
X39192580Y28604949D01*
X39241110Y28640208D01*
X39364550Y28729891D01*
X39364552Y28729894D01*
X39364556Y28729896D01*
X39514868Y28880208D01*
X39514870Y28880212D01*
X39514873Y28880214D01*
X39639812Y29052180D01*
X39639811Y29052180D01*
X39639815Y29052184D01*
X39736321Y29241588D01*
X39802010Y29443757D01*
X39835264Y29653713D01*
X39835264Y29866287D01*
X39802010Y30076243D01*
X39736321Y30278412D01*
X39639815Y30467816D01*
X39639813Y30467819D01*
X39639812Y30467821D01*
X39514873Y30639787D01*
X39364550Y30790110D01*
X39192584Y30915049D01*
X39191879Y30915409D01*
X39183818Y30919515D01*
X39133023Y30967488D01*
X39116227Y31035308D01*
X39138763Y31101444D01*
X39183818Y31140485D01*
X39192580Y31144949D01*
X39241110Y31180208D01*
X39364550Y31269891D01*
X39364552Y31269894D01*
X39364556Y31269896D01*
X39514868Y31420208D01*
X39514870Y31420212D01*
X39514873Y31420214D01*
X39639812Y31592180D01*
X39639811Y31592180D01*
X39639815Y31592184D01*
X39736321Y31781588D01*
X39802010Y31983757D01*
X39835264Y32193713D01*
X39835264Y32406287D01*
X39802010Y32616243D01*
X39736321Y32818412D01*
X39639815Y33007816D01*
X39639813Y33007819D01*
X39639812Y33007821D01*
X39514873Y33179787D01*
X39364550Y33330110D01*
X39192584Y33455049D01*
X39191879Y33455409D01*
X39183818Y33459515D01*
X39133023Y33507488D01*
X39116227Y33575308D01*
X39138763Y33641444D01*
X39183818Y33680485D01*
X39192580Y33684949D01*
X39241110Y33720208D01*
X39364550Y33809891D01*
X39364552Y33809894D01*
X39364556Y33809896D01*
X39514868Y33960208D01*
X39514870Y33960212D01*
X39514873Y33960214D01*
X39639812Y34132180D01*
X39639811Y34132180D01*
X39639815Y34132184D01*
X39736321Y34321588D01*
X39802010Y34523757D01*
X39835264Y34733713D01*
X39835264Y34946287D01*
X39802010Y35156243D01*
X39736321Y35358412D01*
X39639815Y35547816D01*
X39639813Y35547819D01*
X39639812Y35547821D01*
X39514873Y35719787D01*
X39364550Y35870110D01*
X39192584Y35995049D01*
X39191879Y35995409D01*
X39183818Y35999515D01*
X39133023Y36047488D01*
X39116227Y36115308D01*
X39138763Y36181444D01*
X39183818Y36220485D01*
X39192580Y36224949D01*
X39241110Y36260208D01*
X39364550Y36349891D01*
X39364552Y36349894D01*
X39364556Y36349896D01*
X39514868Y36500208D01*
X39514870Y36500212D01*
X39514873Y36500214D01*
X39639812Y36672180D01*
X39639811Y36672180D01*
X39639815Y36672184D01*
X39736321Y36861588D01*
X39802010Y37063757D01*
X39835264Y37273713D01*
X39835264Y37486287D01*
X39802010Y37696243D01*
X39736321Y37898412D01*
X39639815Y38087816D01*
X39639813Y38087819D01*
X39639812Y38087821D01*
X39514873Y38259787D01*
X39364550Y38410110D01*
X39192584Y38535049D01*
X39191879Y38535409D01*
X39183818Y38539515D01*
X39133023Y38587488D01*
X39116227Y38655308D01*
X39138763Y38721444D01*
X39183818Y38760485D01*
X39192580Y38764949D01*
X39238173Y38798074D01*
X39364550Y38889891D01*
X39364552Y38889894D01*
X39364556Y38889896D01*
X39514868Y39040208D01*
X39514870Y39040212D01*
X39514873Y39040214D01*
X39639812Y39212180D01*
X39639811Y39212180D01*
X39639815Y39212184D01*
X39736321Y39401588D01*
X39802010Y39603757D01*
X39835264Y39813713D01*
X39835264Y40026287D01*
X39802010Y40236243D01*
X39736321Y40438412D01*
X39639815Y40627816D01*
X39639813Y40627819D01*
X39639812Y40627821D01*
X39514873Y40799787D01*
X39364550Y40950110D01*
X39192584Y41075049D01*
X39183893Y41079477D01*
X39183818Y41079515D01*
X39133023Y41127488D01*
X39116227Y41195308D01*
X39138763Y41261444D01*
X39183818Y41300485D01*
X39192580Y41304949D01*
X39227827Y41330557D01*
X39364550Y41429891D01*
X39364552Y41429894D01*
X39364556Y41429896D01*
X39514868Y41580208D01*
X39514870Y41580212D01*
X39514873Y41580214D01*
X39639812Y41752180D01*
X39639814Y41752183D01*
X39639815Y41752184D01*
X39736321Y41941588D01*
X39802010Y42143757D01*
X39835264Y42353713D01*
X39835264Y42566287D01*
X39802010Y42776243D01*
X39736321Y42978412D01*
X39639815Y43167816D01*
X39639813Y43167819D01*
X39639812Y43167821D01*
X39514873Y43339787D01*
X39364550Y43490110D01*
X39192584Y43615049D01*
X39191879Y43615409D01*
X39183818Y43619515D01*
X39133023Y43667488D01*
X39116227Y43735308D01*
X39138763Y43801444D01*
X39183818Y43840485D01*
X39192580Y43844949D01*
X39241110Y43880208D01*
X39364550Y43969891D01*
X39364552Y43969894D01*
X39364556Y43969896D01*
X39514868Y44120208D01*
X39514870Y44120212D01*
X39514873Y44120214D01*
X39639812Y44292180D01*
X39639814Y44292183D01*
X39639815Y44292184D01*
X39736321Y44481588D01*
X39802010Y44683757D01*
X39835264Y44893713D01*
X39835264Y45106287D01*
X39802010Y45316243D01*
X39736321Y45518412D01*
X39639815Y45707816D01*
X39639813Y45707819D01*
X39639812Y45707821D01*
X39514873Y45879787D01*
X39364550Y46030110D01*
X39192584Y46155049D01*
X39191879Y46155409D01*
X39183818Y46159515D01*
X39133023Y46207488D01*
X39116227Y46275308D01*
X39138763Y46341444D01*
X39183818Y46380485D01*
X39192580Y46384949D01*
X39241110Y46420208D01*
X39364550Y46509891D01*
X39364552Y46509894D01*
X39364556Y46509896D01*
X39514868Y46660208D01*
X39514870Y46660212D01*
X39514873Y46660214D01*
X39639812Y46832180D01*
X39639811Y46832180D01*
X39639815Y46832184D01*
X39736321Y47021588D01*
X39802010Y47223757D01*
X39835264Y47433713D01*
X39835264Y47646287D01*
X39802010Y47856243D01*
X39736321Y48058412D01*
X39639815Y48247816D01*
X39639813Y48247819D01*
X39639812Y48247821D01*
X39514873Y48419787D01*
X39364550Y48570110D01*
X39192584Y48695049D01*
X39191879Y48695409D01*
X39183818Y48699515D01*
X39133023Y48747488D01*
X39116227Y48815308D01*
X39138763Y48881444D01*
X39183818Y48920485D01*
X39192580Y48924949D01*
X39241110Y48960208D01*
X39364550Y49049891D01*
X39364552Y49049894D01*
X39364556Y49049896D01*
X39514868Y49200208D01*
X39514870Y49200212D01*
X39514873Y49200214D01*
X39623850Y49350211D01*
X39639815Y49372184D01*
X39736321Y49561588D01*
X39802010Y49763757D01*
X39835264Y49973713D01*
X39835264Y50186287D01*
X39802010Y50396243D01*
X39736321Y50598412D01*
X39639815Y50787816D01*
X39639813Y50787819D01*
X39639812Y50787821D01*
X39514873Y50959787D01*
X39364550Y51110110D01*
X39192584Y51235049D01*
X39191879Y51235409D01*
X39183818Y51239515D01*
X39133023Y51287488D01*
X39116227Y51355308D01*
X39138763Y51421444D01*
X39183818Y51460485D01*
X39192580Y51464949D01*
X39241110Y51500208D01*
X39364550Y51589891D01*
X39364552Y51589894D01*
X39364556Y51589896D01*
X39514868Y51740208D01*
X39514870Y51740212D01*
X39514873Y51740214D01*
X39623850Y51890211D01*
X39639815Y51912184D01*
X39736321Y52101588D01*
X39802010Y52303757D01*
X39835264Y52513713D01*
X39835264Y52726287D01*
X39802010Y52936243D01*
X39736321Y53138412D01*
X39639815Y53327816D01*
X39639813Y53327819D01*
X39639812Y53327821D01*
X39514873Y53499787D01*
X39364550Y53650110D01*
X39192584Y53775049D01*
X39191879Y53775409D01*
X39183818Y53779515D01*
X39133023Y53827488D01*
X39116227Y53895308D01*
X39138763Y53961444D01*
X39183818Y54000485D01*
X39192580Y54004949D01*
X39241110Y54040208D01*
X39364550Y54129891D01*
X39364552Y54129894D01*
X39364556Y54129896D01*
X39514868Y54280208D01*
X39514870Y54280212D01*
X39514873Y54280214D01*
X39623850Y54430211D01*
X39639815Y54452184D01*
X39736321Y54641588D01*
X39802010Y54843757D01*
X39835264Y55053713D01*
X39835264Y55266287D01*
X39802010Y55476243D01*
X39736321Y55678412D01*
X39639815Y55867816D01*
X39639813Y55867819D01*
X39639812Y55867821D01*
X39514873Y56039787D01*
X39364550Y56190110D01*
X39192584Y56315049D01*
X39191879Y56315409D01*
X39183818Y56319515D01*
X39133023Y56367488D01*
X39116227Y56435308D01*
X39138763Y56501444D01*
X39183818Y56540485D01*
X39192580Y56544949D01*
X39241110Y56580208D01*
X39364550Y56669891D01*
X39364552Y56669894D01*
X39364556Y56669896D01*
X39514868Y56820208D01*
X39514870Y56820212D01*
X39514873Y56820214D01*
X39623850Y56970211D01*
X39639815Y56992184D01*
X39736321Y57181588D01*
X39802010Y57383757D01*
X39835264Y57593713D01*
X39835264Y57806287D01*
X39802010Y58016243D01*
X39736321Y58218412D01*
X39639815Y58407816D01*
X39639813Y58407819D01*
X39639812Y58407821D01*
X39514873Y58579787D01*
X39364550Y58730110D01*
X39192584Y58855049D01*
X39191703Y58855498D01*
X39183818Y58859515D01*
X39133023Y58907488D01*
X39116227Y58975308D01*
X39138763Y59041444D01*
X39183818Y59080485D01*
X39192580Y59084949D01*
X39241110Y59120208D01*
X39364550Y59209891D01*
X39364552Y59209894D01*
X39364556Y59209896D01*
X39514868Y59360208D01*
X39514870Y59360212D01*
X39514873Y59360214D01*
X39639812Y59532180D01*
X39639811Y59532180D01*
X39639815Y59532184D01*
X39736321Y59721588D01*
X39802010Y59923757D01*
X39835264Y60133713D01*
X39835264Y60346287D01*
X39802010Y60556243D01*
X39736321Y60758412D01*
X39639815Y60947816D01*
X39639813Y60947819D01*
X39639812Y60947821D01*
X39514873Y61119787D01*
X39364550Y61270110D01*
X39192581Y61395051D01*
X39183268Y61399796D01*
X39132471Y61447770D01*
X39115676Y61515591D01*
X39138213Y61581726D01*
X39183271Y61620768D01*
X39192319Y61625378D01*
X39246480Y61664730D01*
X39246481Y61664730D01*
X38614172Y62297038D01*
X38677757Y62314075D01*
X38791771Y62379901D01*
X38884863Y62472993D01*
X38950689Y62587007D01*
X38967726Y62650591D01*
X39600034Y62018283D01*
X39600034Y62018284D01*
X39639386Y62072446D01*
X39735859Y62261783D01*
X39801521Y62463870D01*
X39801521Y62463873D01*
X39834764Y62673754D01*
X39834764Y62886247D01*
X39801522Y63096127D01*
X39770115Y63192786D01*
X39768120Y63262627D01*
X39804200Y63322460D01*
X39866901Y63353289D01*
X39888046Y63355105D01*
X42682030Y63355105D01*
X42749069Y63335420D01*
X42794824Y63282616D01*
X42804768Y63213458D01*
X42792515Y63174812D01*
X42770258Y63131128D01*
X42733208Y63058415D01*
X42667517Y62856240D01*
X42645016Y62714174D01*
X42634264Y62646287D01*
X42634264Y62433713D01*
X42667518Y62223757D01*
X42716767Y62072184D01*
X42733208Y62021586D01*
X42829715Y61832180D01*
X42954654Y61660214D01*
X43104977Y61509891D01*
X43276946Y61384950D01*
X43285710Y61380484D01*
X43336506Y61332509D01*
X43353300Y61264688D01*
X43330762Y61198553D01*
X43285710Y61159516D01*
X43276946Y61155051D01*
X43104977Y61030110D01*
X42954654Y60879787D01*
X42829715Y60707821D01*
X42733208Y60518415D01*
X42667517Y60316240D01*
X42634264Y60106287D01*
X42634264Y59893714D01*
X42665879Y59694102D01*
X42667518Y59683757D01*
X42730567Y59489712D01*
X42733208Y59481586D01*
X42829715Y59292180D01*
X42954654Y59120214D01*
X43104977Y58969891D01*
X43276946Y58844950D01*
X43285710Y58840484D01*
X43336506Y58792509D01*
X43353300Y58724688D01*
X43330762Y58658553D01*
X43285710Y58619516D01*
X43276946Y58615051D01*
X43104977Y58490110D01*
X42954654Y58339787D01*
X42829715Y58167821D01*
X42733208Y57978415D01*
X42667517Y57776240D01*
X42634264Y57566287D01*
X42634264Y57353714D01*
X42665879Y57154102D01*
X42667518Y57143757D01*
X42731540Y56946718D01*
X42733208Y56941586D01*
X42829715Y56752180D01*
X42954654Y56580214D01*
X43104977Y56429891D01*
X43276946Y56304950D01*
X43285710Y56300484D01*
X43336506Y56252509D01*
X43353300Y56184688D01*
X43330762Y56118553D01*
X43285710Y56079516D01*
X43276946Y56075051D01*
X43104977Y55950110D01*
X42954654Y55799787D01*
X42829715Y55627821D01*
X42733208Y55438415D01*
X42667517Y55236240D01*
X42634264Y55026287D01*
X42634264Y54813714D01*
X42665879Y54614102D01*
X42667518Y54603757D01*
X42731540Y54406718D01*
X42733208Y54401586D01*
X42829715Y54212180D01*
X42954654Y54040214D01*
X43104977Y53889891D01*
X43276946Y53764950D01*
X43285710Y53760484D01*
X43336506Y53712509D01*
X43353300Y53644688D01*
X43330762Y53578553D01*
X43285710Y53539516D01*
X43276946Y53535051D01*
X43104977Y53410110D01*
X42954654Y53259787D01*
X42829715Y53087821D01*
X42733208Y52898415D01*
X42667517Y52696240D01*
X42634264Y52486287D01*
X42634264Y52273714D01*
X42665879Y52074102D01*
X42667518Y52063757D01*
X42731540Y51866718D01*
X42733208Y51861586D01*
X42829715Y51672180D01*
X42954654Y51500214D01*
X43104977Y51349891D01*
X43276946Y51224950D01*
X43285710Y51220484D01*
X43336506Y51172509D01*
X43353300Y51104688D01*
X43330762Y51038553D01*
X43285710Y50999516D01*
X43276946Y50995051D01*
X43104977Y50870110D01*
X42954654Y50719787D01*
X42829715Y50547821D01*
X42733208Y50358415D01*
X42667517Y50156240D01*
X42634264Y49946287D01*
X42634264Y49733714D01*
X42665879Y49534102D01*
X42667518Y49523757D01*
X42731540Y49326718D01*
X42733208Y49321586D01*
X42829715Y49132180D01*
X42954654Y48960214D01*
X43104977Y48809891D01*
X43276946Y48684950D01*
X43285710Y48680484D01*
X43336506Y48632509D01*
X43353300Y48564688D01*
X43330762Y48498553D01*
X43285710Y48459516D01*
X43276946Y48455051D01*
X43104977Y48330110D01*
X42954654Y48179787D01*
X42829715Y48007821D01*
X42733208Y47818415D01*
X42667517Y47616240D01*
X42634264Y47406287D01*
X42634264Y47193714D01*
X42665879Y46994102D01*
X42667518Y46983757D01*
X42716877Y46831845D01*
X42733208Y46781586D01*
X42829715Y46592180D01*
X42954654Y46420214D01*
X43104977Y46269891D01*
X43276946Y46144950D01*
X43285710Y46140484D01*
X43336506Y46092509D01*
X43353300Y46024688D01*
X43330762Y45958553D01*
X43285710Y45919516D01*
X43276946Y45915051D01*
X43104977Y45790110D01*
X42954654Y45639787D01*
X42829715Y45467821D01*
X42733208Y45278415D01*
X42667517Y45076240D01*
X42634264Y44866287D01*
X42634264Y44653714D01*
X42665879Y44454102D01*
X42667518Y44443757D01*
X42716767Y44292184D01*
X42733208Y44241586D01*
X42829715Y44052180D01*
X42954654Y43880214D01*
X43104977Y43729891D01*
X43276946Y43604950D01*
X43285710Y43600484D01*
X43336506Y43552509D01*
X43353300Y43484688D01*
X43330762Y43418553D01*
X43285710Y43379516D01*
X43276946Y43375051D01*
X43104977Y43250110D01*
X42954654Y43099787D01*
X42829715Y42927821D01*
X42733208Y42738415D01*
X42667517Y42536240D01*
X42634264Y42326287D01*
X42634264Y42113714D01*
X42665879Y41914102D01*
X42667518Y41903757D01*
X42716767Y41752184D01*
X42733208Y41701586D01*
X42829715Y41512180D01*
X42954654Y41340214D01*
X43104977Y41189891D01*
X43276946Y41064950D01*
X43285710Y41060484D01*
X43336506Y41012509D01*
X43353300Y40944688D01*
X43330762Y40878553D01*
X43285710Y40839516D01*
X43276946Y40835051D01*
X43104977Y40710110D01*
X42954654Y40559787D01*
X42829715Y40387821D01*
X42733208Y40198415D01*
X42667517Y39996240D01*
X42634264Y39786287D01*
X42634264Y39573714D01*
X42657470Y39427193D01*
X42667518Y39363757D01*
X42716767Y39212184D01*
X42733208Y39161586D01*
X42829715Y38972180D01*
X42954654Y38800214D01*
X43104977Y38649891D01*
X43276946Y38524950D01*
X43285710Y38520484D01*
X43336506Y38472509D01*
X43353300Y38404688D01*
X43330762Y38338553D01*
X43285710Y38299516D01*
X43276946Y38295051D01*
X43104977Y38170110D01*
X42954654Y38019787D01*
X42829715Y37847821D01*
X42733208Y37658415D01*
X42667517Y37456240D01*
X42634264Y37246287D01*
X42634264Y37033714D01*
X42665879Y36834102D01*
X42667518Y36823757D01*
X42716767Y36672184D01*
X42733208Y36621586D01*
X42829715Y36432180D01*
X42954654Y36260214D01*
X43104977Y36109891D01*
X43276946Y35984950D01*
X43285710Y35980484D01*
X43336506Y35932509D01*
X43353300Y35864688D01*
X43330762Y35798553D01*
X43285710Y35759516D01*
X43276946Y35755051D01*
X43104977Y35630110D01*
X42954654Y35479787D01*
X42829715Y35307821D01*
X42733208Y35118415D01*
X42667517Y34916240D01*
X42634264Y34706287D01*
X42634264Y34493714D01*
X42665879Y34294102D01*
X42667518Y34283757D01*
X42716767Y34132184D01*
X42733208Y34081586D01*
X42829715Y33892180D01*
X42954654Y33720214D01*
X43104977Y33569891D01*
X43276946Y33444950D01*
X43285710Y33440484D01*
X43336506Y33392509D01*
X43353300Y33324688D01*
X43330762Y33258553D01*
X43285710Y33219516D01*
X43276946Y33215051D01*
X43104977Y33090110D01*
X42954654Y32939787D01*
X42829715Y32767821D01*
X42733208Y32578415D01*
X42667517Y32376240D01*
X42634264Y32166287D01*
X42634264Y31953714D01*
X42665879Y31754102D01*
X42667518Y31743757D01*
X42716767Y31592184D01*
X42733208Y31541586D01*
X42829715Y31352180D01*
X42954654Y31180214D01*
X43104977Y31029891D01*
X43276946Y30904950D01*
X43285710Y30900484D01*
X43336506Y30852509D01*
X43353300Y30784688D01*
X43330762Y30718553D01*
X43285710Y30679516D01*
X43276946Y30675051D01*
X43104977Y30550110D01*
X42954654Y30399787D01*
X42829715Y30227821D01*
X42733208Y30038415D01*
X42667517Y29836240D01*
X42634264Y29626287D01*
X42634264Y29413714D01*
X42665879Y29214102D01*
X42667518Y29203757D01*
X42716767Y29052184D01*
X42733208Y29001586D01*
X42829715Y28812180D01*
X42954654Y28640214D01*
X43104977Y28489891D01*
X43276946Y28364950D01*
X43285710Y28360484D01*
X43336506Y28312509D01*
X43353300Y28244688D01*
X43330762Y28178553D01*
X43285710Y28139516D01*
X43276946Y28135051D01*
X43104977Y28010110D01*
X42954654Y27859787D01*
X42829715Y27687821D01*
X42733208Y27498415D01*
X42667517Y27296240D01*
X42634264Y27086287D01*
X42634264Y26873714D01*
X42665879Y26674102D01*
X42667518Y26663757D01*
X42716767Y26512184D01*
X42733208Y26461586D01*
X42829715Y26272180D01*
X42954654Y26100214D01*
X43104977Y25949891D01*
X43276946Y25824950D01*
X43285710Y25820484D01*
X43336506Y25772509D01*
X43353300Y25704688D01*
X43330762Y25638553D01*
X43285710Y25599516D01*
X43276946Y25595051D01*
X43104977Y25470110D01*
X42954654Y25319787D01*
X42829715Y25147821D01*
X42733208Y24958415D01*
X42667517Y24756240D01*
X42634264Y24546287D01*
X42634264Y24333714D01*
X42665879Y24134102D01*
X42667518Y24123757D01*
X42728074Y23937385D01*
X42733208Y23921586D01*
X42829715Y23732180D01*
X42954654Y23560214D01*
X43104977Y23409891D01*
X43276946Y23284950D01*
X43285710Y23280484D01*
X43336506Y23232509D01*
X43353300Y23164688D01*
X43330762Y23098553D01*
X43285710Y23059516D01*
X43276946Y23055051D01*
X43104977Y22930110D01*
X42954654Y22779787D01*
X42829715Y22607821D01*
X42733208Y22418415D01*
X42667517Y22216240D01*
X42634264Y22006287D01*
X42634264Y21793714D01*
X42665879Y21594102D01*
X42667518Y21583757D01*
X42716767Y21432184D01*
X42733208Y21381586D01*
X42829715Y21192180D01*
X42954654Y21020214D01*
X43104977Y20869891D01*
X43276943Y20744952D01*
X43276945Y20744951D01*
X43276948Y20744949D01*
X43286257Y20740206D01*
X43337054Y20692234D01*
X43353851Y20624413D01*
X43331316Y20558278D01*
X43286269Y20519240D01*
X43277210Y20514624D01*
X43277204Y20514620D01*
X43223046Y20475273D01*
X43223046Y20475272D01*
X43855355Y19842963D01*
X43791771Y19825925D01*
X43677757Y19760099D01*
X43584665Y19667007D01*
X43518839Y19552993D01*
X43501801Y19489409D01*
X42869492Y20121718D01*
X42869491Y20121718D01*
X42830144Y20067561D01*
X42733668Y19878218D01*
X42668006Y19676131D01*
X42668006Y19676128D01*
X42634764Y19466247D01*
X42634764Y19253754D01*
X42668006Y19043873D01*
X42668006Y19043870D01*
X42733668Y18841783D01*
X42830139Y18652450D01*
X42869492Y18598284D01*
X43501801Y19230592D01*
X43518839Y19167007D01*
X43584665Y19052993D01*
X43677757Y18959901D01*
X43791771Y18894075D01*
X43855354Y18877038D01*
X43223046Y18244731D01*
X43223046Y18244730D01*
X43277216Y18205374D01*
X43277215Y18205374D01*
X43286259Y18200766D01*
X43337056Y18152792D01*
X43353851Y18084971D01*
X43331314Y18018836D01*
X43286263Y17979798D01*
X43276946Y17975051D01*
X43104977Y17850110D01*
X42954654Y17699787D01*
X42829715Y17527821D01*
X42733208Y17338415D01*
X42667518Y17136243D01*
X42634264Y16926287D01*
X42634264Y16713714D01*
X42665879Y16514102D01*
X42667518Y16503757D01*
X42716767Y16352184D01*
X42733208Y16301586D01*
X42829715Y16112180D01*
X42954654Y15940214D01*
X43104977Y15789891D01*
X43276946Y15664950D01*
X43285710Y15660484D01*
X43336506Y15612509D01*
X43353300Y15544688D01*
X43330762Y15478553D01*
X43285710Y15439516D01*
X43276946Y15435051D01*
X43104977Y15310110D01*
X42954654Y15159787D01*
X42829715Y14987821D01*
X42733208Y14798415D01*
X42667517Y14596240D01*
X42634264Y14386287D01*
X42634264Y14173714D01*
X42667517Y13963761D01*
X42733208Y13761586D01*
X42829715Y13572180D01*
X42954654Y13400214D01*
X43047945Y13306923D01*
X43081430Y13245600D01*
X43084264Y13219242D01*
X43084264Y10911304D01*
X43106404Y10800000D01*
X43118869Y10737334D01*
X43152810Y10655394D01*
X43186751Y10573453D01*
X43241199Y10491966D01*
X43244431Y10487129D01*
X43285301Y10425962D01*
X43285302Y10425961D01*
X44599083Y9112181D01*
X44632568Y9050858D01*
X44627584Y8981166D01*
X44585712Y8925233D01*
X44520248Y8900816D01*
X44511402Y8900500D01*
X23327547Y8900500D01*
X23260508Y8920185D01*
X23214753Y8972989D01*
X23204809Y9042147D01*
X23209616Y9062819D01*
X23252754Y9195583D01*
X23284764Y9397683D01*
X23284764Y9602318D01*
X23252754Y9804418D01*
X23189519Y9999032D01*
X23096623Y10181350D01*
X23064238Y10225923D01*
X23064238Y10225924D01*
X22384764Y9546449D01*
X22384764Y9552661D01*
X22357505Y9654394D01*
X22304844Y9745606D01*
X22230370Y9820080D01*
X22139158Y9872741D01*
X22037425Y9900000D01*
X22031210Y9900000D01*
X22710686Y10579476D01*
X22710685Y10579477D01*
X22666123Y10611853D01*
X22666114Y10611859D01*
X22483795Y10704756D01*
X22289181Y10767991D01*
X22087081Y10800000D01*
X21882447Y10800000D01*
X21680346Y10767991D01*
X21485732Y10704756D01*
X21303408Y10611857D01*
X21258841Y10579477D01*
X21258841Y10579476D01*
X21938318Y9900000D01*
X21932103Y9900000D01*
X21830370Y9872741D01*
X21739158Y9820080D01*
X21664684Y9745606D01*
X21612023Y9654394D01*
X21584764Y9552661D01*
X21584764Y9546447D01*
X20905288Y10225923D01*
X20905287Y10225923D01*
X20872907Y10181356D01*
X20780008Y9999032D01*
X20716773Y9804418D01*
X20684764Y9602318D01*
X20684764Y9397683D01*
X20716773Y9195583D01*
X20759912Y9062819D01*
X20761907Y8992977D01*
X20725827Y8933144D01*
X20663126Y8902316D01*
X20641981Y8900500D01*
X18909125Y8900500D01*
X18842086Y8920185D01*
X18821444Y8936819D01*
X18321583Y9436681D01*
X18288098Y9498004D01*
X18285264Y9524362D01*
X18285264Y9602352D01*
X18253241Y9804535D01*
X18222222Y9900000D01*
X18189984Y9999219D01*
X18189982Y9999222D01*
X18189982Y9999224D01*
X18097183Y10181350D01*
X18097051Y10181610D01*
X18064856Y10225923D01*
X17976735Y10347214D01*
X17831977Y10491972D01*
X17666377Y10612285D01*
X17666376Y10612286D01*
X17666374Y10612287D01*
X17570238Y10661271D01*
X17483987Y10705219D01*
X17289298Y10768478D01*
X17114759Y10796122D01*
X17087116Y10800500D01*
X16882412Y10800500D01*
X16858093Y10796649D01*
X16680229Y10768478D01*
X16485540Y10705219D01*
X16303150Y10612285D01*
X16137550Y10491972D01*
X15992792Y10347214D01*
X15872479Y10181614D01*
X15779545Y9999224D01*
X15716286Y9804535D01*
X15684666Y9604888D01*
X15684264Y9602352D01*
X15684264Y9397648D01*
X15687468Y9377420D01*
X15716286Y9195466D01*
X15759387Y9062819D01*
X15761382Y8992977D01*
X15725302Y8933144D01*
X15662601Y8902316D01*
X15641456Y8900500D01*
X11909125Y8900500D01*
X11842086Y8920185D01*
X11821444Y8936819D01*
X11421583Y9336681D01*
X11388098Y9398004D01*
X11385264Y9424362D01*
X11385264Y36546635D01*
X11385263Y36546637D01*
X11350660Y36720600D01*
X11350657Y36720609D01*
X11282780Y36884482D01*
X11282773Y36884495D01*
X11184229Y37031975D01*
X11126838Y37089366D01*
X11058799Y37157405D01*
X8429917Y39786287D01*
X5783959Y42432246D01*
X5750474Y42493569D01*
X5747640Y42519927D01*
X5747640Y42651852D01*
X5733930Y42738412D01*
X5714386Y42861808D01*
X5648697Y43063977D01*
X5552191Y43253381D01*
X5552189Y43253384D01*
X5552188Y43253386D01*
X5427249Y43425352D01*
X5276926Y43575675D01*
X5104960Y43700614D01*
X5104255Y43700974D01*
X5096194Y43705080D01*
X5045399Y43753053D01*
X5028603Y43820873D01*
X5051139Y43887009D01*
X5096194Y43926050D01*
X5104956Y43930514D01*
X5194404Y43995501D01*
X5276926Y44055456D01*
X5276928Y44055459D01*
X5276932Y44055461D01*
X5427244Y44205773D01*
X5427246Y44205777D01*
X5427249Y44205779D01*
X5552188Y44377745D01*
X5552187Y44377745D01*
X5552191Y44377749D01*
X5648697Y44567153D01*
X5714386Y44769322D01*
X5747640Y44979278D01*
X5747640Y45191852D01*
X5714386Y45401808D01*
X5648697Y45603977D01*
X5552191Y45793381D01*
X5552189Y45793384D01*
X5552188Y45793386D01*
X5427249Y45965352D01*
X5276926Y46115675D01*
X5104960Y46240614D01*
X5104255Y46240974D01*
X5096194Y46245080D01*
X5045399Y46293053D01*
X5028603Y46360873D01*
X5051139Y46427009D01*
X5096194Y46466050D01*
X5104956Y46470514D01*
X5194404Y46535501D01*
X5276926Y46595456D01*
X5276928Y46595459D01*
X5276932Y46595461D01*
X5427244Y46745773D01*
X5489779Y46831846D01*
X5545107Y46874512D01*
X5614721Y46880492D01*
X5676516Y46847886D01*
X5710874Y46787048D01*
X5711714Y46783156D01*
X5715026Y46766505D01*
X5715028Y46766499D01*
X5775366Y46620828D01*
X5775373Y46620815D01*
X5862974Y46489712D01*
X5862977Y46489708D01*
X5974471Y46378214D01*
X5974475Y46378211D01*
X6105578Y46290610D01*
X6105591Y46290603D01*
X6226272Y46240616D01*
X6251267Y46230263D01*
X6365764Y46207488D01*
X6405917Y46199501D01*
X6405920Y46199500D01*
X6405922Y46199500D01*
X6563608Y46199500D01*
X6563609Y46199501D01*
X6718261Y46230263D01*
X6831486Y46277162D01*
X6863936Y46290603D01*
X6863936Y46290604D01*
X6863943Y46290606D01*
X6995053Y46378211D01*
X7106553Y46489711D01*
X7194158Y46620821D01*
X7254501Y46766503D01*
X7285264Y46921158D01*
X7285264Y47078842D01*
X7285264Y47078845D01*
X7285263Y47078847D01*
X7254503Y47233489D01*
X7254502Y47233492D01*
X7254501Y47233497D01*
X7244701Y47257156D01*
X7235264Y47304604D01*
X7235264Y58060324D01*
X7254949Y58127363D01*
X7271578Y58148000D01*
X11905638Y62782061D01*
X11966959Y62815544D01*
X12036651Y62810560D01*
X12092584Y62768688D01*
X12117001Y62703224D01*
X12117317Y62694378D01*
X12117317Y61907735D01*
X12117318Y61907729D01*
X12123725Y61848122D01*
X12174019Y61713277D01*
X12174023Y61713270D01*
X12260269Y61598061D01*
X12260272Y61598058D01*
X12375481Y61511812D01*
X12375488Y61511808D01*
X12506899Y61462795D01*
X12562833Y61420924D01*
X12587250Y61355460D01*
X12572399Y61287187D01*
X12551248Y61258932D01*
X12437706Y61145390D01*
X12312768Y60973426D01*
X12216261Y60784020D01*
X12150570Y60581845D01*
X12126814Y60431852D01*
X12117317Y60371892D01*
X12117317Y60159318D01*
X12125716Y60106287D01*
X12144134Y59989999D01*
X12150571Y59949362D01*
X12209983Y59766511D01*
X12216261Y59747191D01*
X12312768Y59557785D01*
X12437707Y59385819D01*
X12588030Y59235496D01*
X12759999Y59110555D01*
X12768763Y59106089D01*
X12819559Y59058114D01*
X12836353Y58990293D01*
X12813815Y58924158D01*
X12768763Y58885121D01*
X12759999Y58880656D01*
X12588030Y58755715D01*
X12437707Y58605392D01*
X12312768Y58433426D01*
X12216261Y58244020D01*
X12216260Y58244018D01*
X12216260Y58244017D01*
X12215148Y58240596D01*
X12150570Y58041845D01*
X12126814Y57891852D01*
X12117317Y57831892D01*
X12117317Y57619318D01*
X12123727Y57578847D01*
X12148702Y57421158D01*
X12150571Y57409362D01*
X12206136Y57238350D01*
X12216261Y57207191D01*
X12312768Y57017785D01*
X12437707Y56845819D01*
X12588030Y56695496D01*
X12759999Y56570555D01*
X12768763Y56566089D01*
X12819559Y56518114D01*
X12836353Y56450293D01*
X12813815Y56384158D01*
X12768763Y56345121D01*
X12759999Y56340656D01*
X12588030Y56215715D01*
X12437707Y56065392D01*
X12312768Y55893426D01*
X12216261Y55704020D01*
X12150570Y55501845D01*
X12126814Y55351852D01*
X12117317Y55291892D01*
X12117317Y55079318D01*
X12125716Y55026287D01*
X12141073Y54929326D01*
X12150571Y54869362D01*
X12196778Y54727151D01*
X12216261Y54667191D01*
X12312768Y54477785D01*
X12437707Y54305819D01*
X12588030Y54155496D01*
X12759999Y54030555D01*
X12768763Y54026089D01*
X12819559Y53978114D01*
X12836353Y53910293D01*
X12813815Y53844158D01*
X12768763Y53805121D01*
X12759999Y53800656D01*
X12588030Y53675715D01*
X12437707Y53525392D01*
X12312768Y53353426D01*
X12216261Y53164020D01*
X12150570Y52961845D01*
X12123449Y52790606D01*
X12117317Y52751892D01*
X12117317Y52539318D01*
X12125716Y52486287D01*
X12141073Y52389326D01*
X12150571Y52329362D01*
X12196778Y52187151D01*
X12216261Y52127191D01*
X12312768Y51937785D01*
X12437707Y51765819D01*
X12588030Y51615496D01*
X12759999Y51490555D01*
X12768763Y51486089D01*
X12819559Y51438114D01*
X12836353Y51370293D01*
X12813815Y51304158D01*
X12768763Y51265121D01*
X12759999Y51260656D01*
X12588030Y51135715D01*
X12437707Y50985392D01*
X12312768Y50813426D01*
X12216261Y50624020D01*
X12150570Y50421845D01*
X12126814Y50271852D01*
X12117317Y50211892D01*
X12117317Y49999318D01*
X12125716Y49946287D01*
X12141073Y49849326D01*
X12150571Y49789362D01*
X12196778Y49647151D01*
X12216261Y49587191D01*
X12312768Y49397785D01*
X12437707Y49225819D01*
X12588030Y49075496D01*
X12759999Y48950555D01*
X12768763Y48946089D01*
X12819559Y48898114D01*
X12836353Y48830293D01*
X12813815Y48764158D01*
X12768763Y48725121D01*
X12759999Y48720656D01*
X12588030Y48595715D01*
X12437707Y48445392D01*
X12312768Y48273426D01*
X12216261Y48084020D01*
X12150570Y47881845D01*
X12126814Y47731852D01*
X12117317Y47671892D01*
X12117317Y47459318D01*
X12125716Y47406287D01*
X12141073Y47309326D01*
X12150571Y47249362D01*
X12196778Y47107151D01*
X12216261Y47047191D01*
X12312768Y46857785D01*
X12437707Y46685819D01*
X12588030Y46535496D01*
X12759999Y46410555D01*
X12768763Y46406089D01*
X12819559Y46358114D01*
X12836353Y46290293D01*
X12813815Y46224158D01*
X12768763Y46185121D01*
X12759999Y46180656D01*
X12588030Y46055715D01*
X12437707Y45905392D01*
X12312768Y45733426D01*
X12216261Y45544020D01*
X12150570Y45341845D01*
X12126814Y45191852D01*
X12117317Y45131892D01*
X12117317Y44919318D01*
X12123827Y44878214D01*
X12147260Y44730262D01*
X12150571Y44709362D01*
X12196778Y44567151D01*
X12216261Y44507191D01*
X12312768Y44317785D01*
X12437707Y44145819D01*
X12588030Y43995496D01*
X12759999Y43870555D01*
X12768763Y43866089D01*
X12819559Y43818114D01*
X12836353Y43750293D01*
X12813815Y43684158D01*
X12768763Y43645121D01*
X12759999Y43640656D01*
X12588030Y43515715D01*
X12437707Y43365392D01*
X12312768Y43193426D01*
X12216261Y43004020D01*
X12150570Y42801845D01*
X12126814Y42651852D01*
X12117317Y42591892D01*
X12117317Y42379318D01*
X12125716Y42326287D01*
X12141073Y42229326D01*
X12150571Y42169362D01*
X12206136Y41998350D01*
X12216261Y41967191D01*
X12312768Y41777785D01*
X12437707Y41605819D01*
X12588030Y41455496D01*
X12759999Y41330555D01*
X12768763Y41326089D01*
X12819559Y41278114D01*
X12836353Y41210293D01*
X12813815Y41144158D01*
X12768763Y41105121D01*
X12759999Y41100656D01*
X12588030Y40975715D01*
X12437707Y40825392D01*
X12312768Y40653426D01*
X12216261Y40464020D01*
X12150570Y40261845D01*
X12126814Y40111852D01*
X12117317Y40051892D01*
X12117317Y39839318D01*
X12121553Y39812572D01*
X12146983Y39652011D01*
X12150571Y39629362D01*
X12196778Y39487151D01*
X12216261Y39427191D01*
X12312768Y39237785D01*
X12437707Y39065819D01*
X12588030Y38915496D01*
X12759999Y38790555D01*
X12768763Y38786089D01*
X12819559Y38738114D01*
X12836353Y38670293D01*
X12813815Y38604158D01*
X12768763Y38565121D01*
X12759999Y38560656D01*
X12588030Y38435715D01*
X12437707Y38285392D01*
X12312768Y38113426D01*
X12216261Y37924020D01*
X12150570Y37721845D01*
X12126814Y37571852D01*
X12117317Y37511892D01*
X12117317Y37299318D01*
X12125716Y37246287D01*
X12141073Y37149326D01*
X12150571Y37089362D01*
X12206136Y36918350D01*
X12216261Y36887191D01*
X12312768Y36697785D01*
X12437707Y36525819D01*
X12588030Y36375496D01*
X12759999Y36250555D01*
X12768763Y36246089D01*
X12819559Y36198114D01*
X12836353Y36130293D01*
X12813815Y36064158D01*
X12768763Y36025121D01*
X12759999Y36020656D01*
X12588030Y35895715D01*
X12437707Y35745392D01*
X12312768Y35573426D01*
X12216261Y35384020D01*
X12150570Y35181845D01*
X12126814Y35031852D01*
X12117317Y34971892D01*
X12117317Y34759318D01*
X12125716Y34706287D01*
X12141073Y34609326D01*
X12150571Y34549362D01*
X12196778Y34407151D01*
X12216261Y34347191D01*
X12312768Y34157785D01*
X12437707Y33985819D01*
X12588030Y33835496D01*
X12759999Y33710555D01*
X12768763Y33706089D01*
X12819559Y33658114D01*
X12836353Y33590293D01*
X12813815Y33524158D01*
X12768763Y33485121D01*
X12759999Y33480656D01*
X12588030Y33355715D01*
X12437707Y33205392D01*
X12312768Y33033426D01*
X12216261Y32844020D01*
X12150570Y32641845D01*
X12126814Y32491852D01*
X12117317Y32431892D01*
X12117317Y32219318D01*
X12125716Y32166287D01*
X12141073Y32069326D01*
X12150571Y32009362D01*
X12206136Y31838350D01*
X12216261Y31807191D01*
X12312768Y31617785D01*
X12437707Y31445819D01*
X12588030Y31295496D01*
X12759999Y31170555D01*
X12768763Y31166089D01*
X12819559Y31118114D01*
X12836353Y31050293D01*
X12813815Y30984158D01*
X12768763Y30945121D01*
X12759999Y30940656D01*
X12588030Y30815715D01*
X12437707Y30665392D01*
X12312768Y30493426D01*
X12216261Y30304020D01*
X12150570Y30101845D01*
X12126814Y29951852D01*
X12117317Y29891892D01*
X12117317Y29679318D01*
X12125716Y29626287D01*
X12141073Y29529326D01*
X12150571Y29469362D01*
X12206136Y29298350D01*
X12216261Y29267191D01*
X12312768Y29077785D01*
X12437707Y28905819D01*
X12588030Y28755496D01*
X12759999Y28630555D01*
X12768763Y28626089D01*
X12819559Y28578114D01*
X12836353Y28510293D01*
X12813815Y28444158D01*
X12768763Y28405121D01*
X12759999Y28400656D01*
X12588030Y28275715D01*
X12437707Y28125392D01*
X12312768Y27953426D01*
X12216261Y27764020D01*
X12150570Y27561845D01*
X12126814Y27411852D01*
X12117317Y27351892D01*
X12117317Y27139318D01*
X12125716Y27086287D01*
X12141073Y26989326D01*
X12150571Y26929362D01*
X12206136Y26758350D01*
X12216261Y26727191D01*
X12312768Y26537785D01*
X12437707Y26365819D01*
X12588030Y26215496D01*
X12759999Y26090555D01*
X12768763Y26086089D01*
X12819559Y26038114D01*
X12836353Y25970293D01*
X12813815Y25904158D01*
X12768763Y25865121D01*
X12759999Y25860656D01*
X12588030Y25735715D01*
X12437707Y25585392D01*
X12312768Y25413426D01*
X12216261Y25224020D01*
X12150570Y25021845D01*
X12126814Y24871852D01*
X12117317Y24811892D01*
X12117317Y24599318D01*
X12122262Y24568098D01*
X12141073Y24449326D01*
X12150571Y24389362D01*
X12206136Y24218350D01*
X12216261Y24187191D01*
X12312768Y23997785D01*
X12437707Y23825819D01*
X12588030Y23675496D01*
X12759999Y23550555D01*
X12768763Y23546089D01*
X12819559Y23498114D01*
X12836353Y23430293D01*
X12813815Y23364158D01*
X12768763Y23325121D01*
X12759999Y23320656D01*
X12588030Y23195715D01*
X12437707Y23045392D01*
X12312768Y22873426D01*
X12216261Y22684020D01*
X12150570Y22481845D01*
X12117317Y22271892D01*
X12117317Y22059318D01*
X12125716Y22006287D01*
X12141073Y21909326D01*
X12150571Y21849362D01*
X12206136Y21678350D01*
X12216261Y21647191D01*
X12312768Y21457785D01*
X12437707Y21285819D01*
X12588030Y21135496D01*
X12759999Y21010555D01*
X12768763Y21006089D01*
X12819559Y20958114D01*
X12836353Y20890293D01*
X12813815Y20824158D01*
X12768763Y20785121D01*
X12759999Y20780656D01*
X12588030Y20655715D01*
X12437707Y20505392D01*
X12312768Y20333426D01*
X12216261Y20144020D01*
X12150570Y19941845D01*
X12140493Y19878218D01*
X12117317Y19731892D01*
X12117317Y19519318D01*
X12121879Y19490517D01*
X12142550Y19360000D01*
X12150571Y19309362D01*
X12206136Y19138350D01*
X12216261Y19107191D01*
X12312768Y18917785D01*
X12437707Y18745819D01*
X12588030Y18595496D01*
X12759999Y18470555D01*
X12768763Y18466089D01*
X12819559Y18418114D01*
X12836353Y18350293D01*
X12813815Y18284158D01*
X12768763Y18245121D01*
X12759999Y18240656D01*
X12588030Y18115715D01*
X12437707Y17965392D01*
X12312768Y17793426D01*
X12216261Y17604020D01*
X12150570Y17401845D01*
X12126814Y17251852D01*
X12117317Y17191892D01*
X12117317Y16979318D01*
X12125716Y16926287D01*
X12141073Y16829326D01*
X12150571Y16769362D01*
X12206136Y16598350D01*
X12216261Y16567191D01*
X12312768Y16377785D01*
X12437707Y16205819D01*
X12588030Y16055496D01*
X12759996Y15930557D01*
X12759998Y15930556D01*
X12760001Y15930554D01*
X12949405Y15834048D01*
X13151574Y15768359D01*
X13361530Y15735105D01*
X13361531Y15735105D01*
X13574103Y15735105D01*
X13574104Y15735105D01*
X13784060Y15768359D01*
X13986229Y15834048D01*
X14175633Y15930554D01*
X14226722Y15967672D01*
X14347603Y16055496D01*
X14347605Y16055499D01*
X14347609Y16055501D01*
X14497921Y16205813D01*
X14497923Y16205817D01*
X14497926Y16205819D01*
X14622865Y16377785D01*
X14622864Y16377785D01*
X14622868Y16377789D01*
X14719374Y16567193D01*
X14785063Y16769362D01*
X14818317Y16979318D01*
X14818317Y17191892D01*
X14785063Y17401848D01*
X14719374Y17604017D01*
X14622868Y17793421D01*
X14622866Y17793424D01*
X14622865Y17793426D01*
X14497926Y17965392D01*
X14347603Y18115715D01*
X14175637Y18240654D01*
X14167635Y18244731D01*
X14166871Y18245120D01*
X14116076Y18293093D01*
X14099280Y18360913D01*
X14121816Y18427049D01*
X14166871Y18466090D01*
X14175633Y18470554D01*
X14198282Y18487009D01*
X14347603Y18595496D01*
X14347605Y18595499D01*
X14347609Y18595501D01*
X14497921Y18745813D01*
X14497923Y18745817D01*
X14497926Y18745819D01*
X14622865Y18917785D01*
X14622864Y18917785D01*
X14622868Y18917789D01*
X14719374Y19107193D01*
X14785063Y19309362D01*
X14818317Y19519318D01*
X14818317Y19731892D01*
X14785063Y19941848D01*
X14719374Y20144017D01*
X14622868Y20333421D01*
X14622866Y20333424D01*
X14622865Y20333426D01*
X14497926Y20505392D01*
X14347603Y20655715D01*
X14175637Y20780654D01*
X14174932Y20781014D01*
X14166871Y20785120D01*
X14116076Y20833093D01*
X14099280Y20900913D01*
X14121816Y20967049D01*
X14166871Y21006090D01*
X14175633Y21010554D01*
X14252019Y21066051D01*
X14347603Y21135496D01*
X14347605Y21135499D01*
X14347609Y21135501D01*
X14497921Y21285813D01*
X14497923Y21285817D01*
X14497926Y21285819D01*
X14622865Y21457785D01*
X14622864Y21457785D01*
X14622868Y21457789D01*
X14719374Y21647193D01*
X14785063Y21849362D01*
X14818317Y22059318D01*
X14818317Y22271892D01*
X14785063Y22481848D01*
X14719374Y22684017D01*
X14622868Y22873421D01*
X14622866Y22873424D01*
X14622865Y22873426D01*
X14497926Y23045392D01*
X14347603Y23195715D01*
X14175637Y23320654D01*
X14174932Y23321014D01*
X14166871Y23325120D01*
X14116076Y23373093D01*
X14099280Y23440913D01*
X14121816Y23507049D01*
X14166871Y23546090D01*
X14175633Y23550554D01*
X14252019Y23606051D01*
X14347603Y23675496D01*
X14347605Y23675499D01*
X14347609Y23675501D01*
X14497921Y23825813D01*
X14497923Y23825817D01*
X14497926Y23825819D01*
X14622865Y23997785D01*
X14622864Y23997785D01*
X14622868Y23997789D01*
X14719374Y24187193D01*
X14785063Y24389362D01*
X14818317Y24599318D01*
X14818317Y24811892D01*
X14785063Y25021848D01*
X14719374Y25224017D01*
X14622868Y25413421D01*
X14622866Y25413424D01*
X14622865Y25413426D01*
X14497926Y25585392D01*
X14347603Y25735715D01*
X14175637Y25860654D01*
X14174932Y25861014D01*
X14166871Y25865120D01*
X14116076Y25913093D01*
X14099280Y25980913D01*
X14121816Y26047049D01*
X14166871Y26086090D01*
X14175633Y26090554D01*
X14252019Y26146051D01*
X14347603Y26215496D01*
X14347605Y26215499D01*
X14347609Y26215501D01*
X14497921Y26365813D01*
X14497923Y26365817D01*
X14497926Y26365819D01*
X14622865Y26537785D01*
X14622864Y26537785D01*
X14622868Y26537789D01*
X14719374Y26727193D01*
X14785063Y26929362D01*
X14818317Y27139318D01*
X14818317Y27351892D01*
X14785063Y27561848D01*
X14719374Y27764017D01*
X14622868Y27953421D01*
X14622866Y27953424D01*
X14622865Y27953426D01*
X14497926Y28125392D01*
X14347603Y28275715D01*
X14175637Y28400654D01*
X14174932Y28401014D01*
X14166871Y28405120D01*
X14116076Y28453093D01*
X14099280Y28520913D01*
X14121816Y28587049D01*
X14166871Y28626090D01*
X14175633Y28630554D01*
X14252019Y28686051D01*
X14347603Y28755496D01*
X14347605Y28755499D01*
X14347609Y28755501D01*
X14497921Y28905813D01*
X14497923Y28905817D01*
X14497926Y28905819D01*
X14622865Y29077785D01*
X14622864Y29077785D01*
X14622868Y29077789D01*
X14719374Y29267193D01*
X14785063Y29469362D01*
X14818317Y29679318D01*
X14818317Y29891892D01*
X14785063Y30101848D01*
X14719374Y30304017D01*
X14622868Y30493421D01*
X14622866Y30493424D01*
X14622865Y30493426D01*
X14497926Y30665392D01*
X14347603Y30815715D01*
X14175637Y30940654D01*
X14174932Y30941014D01*
X14166871Y30945120D01*
X14116076Y30993093D01*
X14099280Y31060913D01*
X14121816Y31127049D01*
X14166871Y31166090D01*
X14175633Y31170554D01*
X14252019Y31226051D01*
X14347603Y31295496D01*
X14347605Y31295499D01*
X14347609Y31295501D01*
X14497921Y31445813D01*
X14497923Y31445817D01*
X14497926Y31445819D01*
X14622865Y31617785D01*
X14622864Y31617785D01*
X14622868Y31617789D01*
X14719374Y31807193D01*
X14785063Y32009362D01*
X14818317Y32219318D01*
X14818317Y32431892D01*
X14785063Y32641848D01*
X14719374Y32844017D01*
X14622868Y33033421D01*
X14622866Y33033424D01*
X14622865Y33033426D01*
X14497926Y33205392D01*
X14347603Y33355715D01*
X14175637Y33480654D01*
X14174932Y33481014D01*
X14166871Y33485120D01*
X14116076Y33533093D01*
X14099280Y33600913D01*
X14121816Y33667049D01*
X14166871Y33706090D01*
X14175633Y33710554D01*
X14252019Y33766051D01*
X14347603Y33835496D01*
X14347605Y33835499D01*
X14347609Y33835501D01*
X14497921Y33985813D01*
X14497923Y33985817D01*
X14497926Y33985819D01*
X14622865Y34157785D01*
X14622864Y34157785D01*
X14622868Y34157789D01*
X14719374Y34347193D01*
X14785063Y34549362D01*
X14818317Y34759318D01*
X14818317Y34971892D01*
X14785063Y35181848D01*
X14719374Y35384017D01*
X14622868Y35573421D01*
X14622866Y35573424D01*
X14622865Y35573426D01*
X14497926Y35745392D01*
X14347603Y35895715D01*
X14175637Y36020654D01*
X14174932Y36021014D01*
X14166871Y36025120D01*
X14116076Y36073093D01*
X14099280Y36140913D01*
X14121816Y36207049D01*
X14166871Y36246090D01*
X14175633Y36250554D01*
X14252019Y36306051D01*
X14347603Y36375496D01*
X14347605Y36375499D01*
X14347609Y36375501D01*
X14497921Y36525813D01*
X14497923Y36525817D01*
X14497926Y36525819D01*
X14622865Y36697785D01*
X14622864Y36697785D01*
X14622868Y36697789D01*
X14719374Y36887193D01*
X14785063Y37089362D01*
X14818317Y37299318D01*
X14818317Y37511892D01*
X14785063Y37721848D01*
X14719374Y37924017D01*
X14622868Y38113421D01*
X14622866Y38113424D01*
X14622865Y38113426D01*
X14497926Y38285392D01*
X14347603Y38435715D01*
X14175637Y38560654D01*
X14174932Y38561014D01*
X14166871Y38565120D01*
X14116076Y38613093D01*
X14099280Y38680913D01*
X14121816Y38747049D01*
X14166871Y38786090D01*
X14175633Y38790554D01*
X14252407Y38846333D01*
X14347603Y38915496D01*
X14347605Y38915499D01*
X14347609Y38915501D01*
X14497921Y39065813D01*
X14497923Y39065817D01*
X14497926Y39065819D01*
X14622865Y39237785D01*
X14622864Y39237785D01*
X14622868Y39237789D01*
X14719374Y39427193D01*
X14785063Y39629362D01*
X14818317Y39839318D01*
X14818317Y40051892D01*
X14785063Y40261848D01*
X14719374Y40464017D01*
X14622868Y40653421D01*
X14622866Y40653424D01*
X14622865Y40653426D01*
X14497926Y40825392D01*
X14347603Y40975715D01*
X14175637Y41100654D01*
X14174932Y41101014D01*
X14166871Y41105120D01*
X14116076Y41153093D01*
X14099280Y41220913D01*
X14121816Y41287049D01*
X14166871Y41326090D01*
X14175633Y41330554D01*
X14252019Y41386051D01*
X14347603Y41455496D01*
X14347605Y41455499D01*
X14347609Y41455501D01*
X14497921Y41605813D01*
X14497923Y41605817D01*
X14497926Y41605819D01*
X14622865Y41777785D01*
X14622864Y41777785D01*
X14622868Y41777789D01*
X14719374Y41967193D01*
X14785063Y42169362D01*
X14818317Y42379318D01*
X14818317Y42591892D01*
X14785063Y42801848D01*
X14719374Y43004017D01*
X14622868Y43193421D01*
X14622866Y43193424D01*
X14622865Y43193426D01*
X14497926Y43365392D01*
X14347603Y43515715D01*
X14175637Y43640654D01*
X14174932Y43641014D01*
X14166871Y43645120D01*
X14116076Y43693093D01*
X14099280Y43760913D01*
X14121816Y43827049D01*
X14166871Y43866090D01*
X14175633Y43870554D01*
X14252019Y43926051D01*
X14347603Y43995496D01*
X14347605Y43995499D01*
X14347609Y43995501D01*
X14497921Y44145813D01*
X14497923Y44145817D01*
X14497926Y44145819D01*
X14622865Y44317785D01*
X14622864Y44317785D01*
X14622868Y44317789D01*
X14719374Y44507193D01*
X14785063Y44709362D01*
X14818317Y44919318D01*
X14818317Y45131892D01*
X14785063Y45341848D01*
X14719374Y45544017D01*
X14622868Y45733421D01*
X14622866Y45733424D01*
X14622865Y45733426D01*
X14497926Y45905392D01*
X14347603Y46055715D01*
X14175637Y46180654D01*
X14174932Y46181014D01*
X14166871Y46185120D01*
X14116076Y46233093D01*
X14099280Y46300913D01*
X14121816Y46367049D01*
X14166871Y46406090D01*
X14175633Y46410554D01*
X14252019Y46466051D01*
X14347603Y46535496D01*
X14347605Y46535499D01*
X14347609Y46535501D01*
X14497921Y46685813D01*
X14497923Y46685817D01*
X14497926Y46685819D01*
X14622865Y46857785D01*
X14622864Y46857785D01*
X14622868Y46857789D01*
X14719374Y47047193D01*
X14785063Y47249362D01*
X14818317Y47459318D01*
X14818317Y47671892D01*
X14785063Y47881848D01*
X14719374Y48084017D01*
X14622868Y48273421D01*
X14622866Y48273424D01*
X14622865Y48273426D01*
X14497926Y48445392D01*
X14347603Y48595715D01*
X14175637Y48720654D01*
X14174932Y48721014D01*
X14166871Y48725120D01*
X14116076Y48773093D01*
X14099280Y48840913D01*
X14121816Y48907049D01*
X14166871Y48946090D01*
X14175633Y48950554D01*
X14252019Y49006051D01*
X14347603Y49075496D01*
X14347605Y49075499D01*
X14347609Y49075501D01*
X14497921Y49225813D01*
X14497923Y49225817D01*
X14497926Y49225819D01*
X14622865Y49397785D01*
X14622864Y49397785D01*
X14622868Y49397789D01*
X14719374Y49587193D01*
X14785063Y49789362D01*
X14818317Y49999318D01*
X14818317Y50211892D01*
X14785063Y50421848D01*
X14719374Y50624017D01*
X14622868Y50813421D01*
X14622866Y50813424D01*
X14622865Y50813426D01*
X14497926Y50985392D01*
X14347603Y51135715D01*
X14175637Y51260654D01*
X14174932Y51261014D01*
X14166871Y51265120D01*
X14116076Y51313093D01*
X14099280Y51380913D01*
X14121816Y51447049D01*
X14166871Y51486090D01*
X14175633Y51490554D01*
X14252019Y51546051D01*
X14347603Y51615496D01*
X14347605Y51615499D01*
X14347609Y51615501D01*
X14497921Y51765813D01*
X14497923Y51765817D01*
X14497926Y51765819D01*
X14622865Y51937785D01*
X14622864Y51937785D01*
X14622868Y51937789D01*
X14719374Y52127193D01*
X14785063Y52329362D01*
X14818317Y52539318D01*
X14818317Y52751892D01*
X14785063Y52961848D01*
X14719374Y53164017D01*
X14622868Y53353421D01*
X14622866Y53353424D01*
X14622865Y53353426D01*
X14497926Y53525392D01*
X14347603Y53675715D01*
X14175637Y53800654D01*
X14174932Y53801014D01*
X14166871Y53805120D01*
X14116076Y53853093D01*
X14099280Y53920913D01*
X14121816Y53987049D01*
X14166871Y54026090D01*
X14175633Y54030554D01*
X14252019Y54086051D01*
X14347603Y54155496D01*
X14347605Y54155499D01*
X14347609Y54155501D01*
X14497921Y54305813D01*
X14497923Y54305817D01*
X14497926Y54305819D01*
X14622865Y54477785D01*
X14622864Y54477785D01*
X14622868Y54477789D01*
X14719374Y54667193D01*
X14785063Y54869362D01*
X14818317Y55079318D01*
X14818317Y55291892D01*
X14785063Y55501848D01*
X14719374Y55704017D01*
X14622868Y55893421D01*
X14622866Y55893424D01*
X14622865Y55893426D01*
X14497926Y56065392D01*
X14347603Y56215715D01*
X14175637Y56340654D01*
X14174932Y56341014D01*
X14166871Y56345120D01*
X14116076Y56393093D01*
X14099280Y56460913D01*
X14121816Y56527049D01*
X14166871Y56566090D01*
X14175633Y56570554D01*
X14252019Y56626051D01*
X14347603Y56695496D01*
X14347605Y56695499D01*
X14347609Y56695501D01*
X14497921Y56845813D01*
X14497923Y56845817D01*
X14497926Y56845819D01*
X14622865Y57017785D01*
X14622864Y57017785D01*
X14622868Y57017789D01*
X14719374Y57207193D01*
X14785063Y57409362D01*
X14818317Y57619318D01*
X14818317Y57831892D01*
X14785063Y58041848D01*
X14719374Y58244017D01*
X14622868Y58433421D01*
X14622866Y58433424D01*
X14622865Y58433426D01*
X14497926Y58605392D01*
X14347603Y58755715D01*
X14175637Y58880654D01*
X14174932Y58881014D01*
X14166871Y58885120D01*
X14116076Y58933093D01*
X14099280Y59000913D01*
X14121816Y59067049D01*
X14166871Y59106090D01*
X14175633Y59110554D01*
X14198282Y59127009D01*
X14347603Y59235496D01*
X14347605Y59235499D01*
X14347609Y59235501D01*
X14497921Y59385813D01*
X14497923Y59385817D01*
X14497926Y59385819D01*
X14622865Y59557785D01*
X14622864Y59557785D01*
X14622868Y59557789D01*
X14719374Y59747193D01*
X14785063Y59949362D01*
X14818317Y60159318D01*
X14818317Y60371892D01*
X14785063Y60581848D01*
X14719374Y60784017D01*
X14622868Y60973421D01*
X14622866Y60973424D01*
X14622865Y60973426D01*
X14497926Y61145392D01*
X14384386Y61258932D01*
X14350901Y61320255D01*
X14355885Y61389947D01*
X14397757Y61445880D01*
X14428732Y61462795D01*
X14560148Y61511809D01*
X14675363Y61598059D01*
X14761613Y61713274D01*
X14811908Y61848122D01*
X14818317Y61907732D01*
X14818316Y63231106D01*
X14838001Y63298144D01*
X14890804Y63343899D01*
X14942316Y63355105D01*
X37081482Y63355105D01*
X37148521Y63335420D01*
G37*
%TD.AperFunction*%
%TA.AperFunction,Conductor*%
G36*
X45100034Y18598283D02*
G01*
X45100034Y18598284D01*
X45139386Y18652445D01*
X45143996Y18661493D01*
X45191969Y18712291D01*
X45259789Y18729088D01*
X45325925Y18706553D01*
X45364968Y18661496D01*
X45369713Y18652183D01*
X45494654Y18480214D01*
X45644977Y18329891D01*
X45816946Y18204950D01*
X45825710Y18200484D01*
X45876506Y18152509D01*
X45893300Y18084688D01*
X45870762Y18018553D01*
X45825710Y17979516D01*
X45816946Y17975051D01*
X45644977Y17850110D01*
X45494654Y17699787D01*
X45369713Y17527818D01*
X45365248Y17519054D01*
X45317273Y17468258D01*
X45249452Y17451464D01*
X45183317Y17474002D01*
X45144280Y17519054D01*
X45139814Y17527818D01*
X45014873Y17699787D01*
X44864550Y17850110D01*
X44692581Y17975051D01*
X44683268Y17979796D01*
X44632471Y18027770D01*
X44615676Y18095591D01*
X44638213Y18161726D01*
X44683271Y18200768D01*
X44692319Y18205378D01*
X44746480Y18244730D01*
X44746481Y18244730D01*
X44114172Y18877038D01*
X44177757Y18894075D01*
X44291771Y18959901D01*
X44384863Y19052993D01*
X44450689Y19167007D01*
X44467726Y19230592D01*
X45100034Y18598283D01*
G37*
%TD.AperFunction*%
%TA.AperFunction,Conductor*%
G36*
X45326208Y21246001D02*
G01*
X45365250Y21200944D01*
X45369715Y21192180D01*
X45494654Y21020214D01*
X45644977Y20869891D01*
X45816946Y20744950D01*
X45825710Y20740484D01*
X45876506Y20692509D01*
X45893300Y20624688D01*
X45870762Y20558553D01*
X45825710Y20519516D01*
X45816946Y20515051D01*
X45644977Y20390110D01*
X45494654Y20239787D01*
X45369713Y20067818D01*
X45364966Y20058501D01*
X45316991Y20007707D01*
X45249169Y19990913D01*
X45183035Y20013452D01*
X45143998Y20058505D01*
X45139390Y20067548D01*
X45100034Y20121718D01*
X45100033Y20121718D01*
X44467726Y19489410D01*
X44450689Y19552993D01*
X44384863Y19667007D01*
X44291771Y19760099D01*
X44177757Y19825925D01*
X44114173Y19842963D01*
X44746480Y20475272D01*
X44692311Y20514627D01*
X44692311Y20514628D01*
X44683264Y20519237D01*
X44632470Y20567212D01*
X44615676Y20635034D01*
X44638215Y20701168D01*
X44683272Y20740207D01*
X44692580Y20744949D01*
X44824253Y20840614D01*
X44864550Y20869891D01*
X44864552Y20869894D01*
X44864556Y20869896D01*
X45014868Y21020208D01*
X45014870Y21020212D01*
X45014873Y21020214D01*
X45139812Y21192180D01*
X45139811Y21192180D01*
X45139815Y21192184D01*
X45144278Y21200946D01*
X45192252Y21251741D01*
X45260072Y21268537D01*
X45326208Y21246001D01*
G37*
%TD.AperFunction*%
%TA.AperFunction,Conductor*%
G36*
X3931215Y39812572D02*
G01*
X3997041Y39698558D01*
X4090133Y39605466D01*
X4204147Y39539640D01*
X4267730Y39522603D01*
X3635422Y38890296D01*
X3635422Y38890295D01*
X3689592Y38850939D01*
X3689591Y38850939D01*
X3698635Y38846331D01*
X3749432Y38798357D01*
X3766227Y38730536D01*
X3743690Y38664401D01*
X3698639Y38625363D01*
X3689322Y38620616D01*
X3517353Y38495675D01*
X3367030Y38345352D01*
X3242089Y38173383D01*
X3237624Y38164619D01*
X3189649Y38113823D01*
X3121828Y38097029D01*
X3055693Y38119567D01*
X3016656Y38164619D01*
X3012190Y38173383D01*
X2887249Y38345352D01*
X2736926Y38495675D01*
X2564960Y38620614D01*
X2564255Y38620974D01*
X2556194Y38625080D01*
X2505399Y38673053D01*
X2488603Y38740873D01*
X2511139Y38807009D01*
X2556194Y38846050D01*
X2564956Y38850514D01*
X2586929Y38866479D01*
X2736926Y38975456D01*
X2736928Y38975459D01*
X2736932Y38975461D01*
X2887244Y39125773D01*
X2887246Y39125777D01*
X2887249Y39125779D01*
X2973030Y39243848D01*
X3012191Y39297749D01*
X3016933Y39307057D01*
X3064903Y39357854D01*
X3132723Y39374654D01*
X3198859Y39352120D01*
X3237903Y39307065D01*
X3242513Y39298018D01*
X3281868Y39243849D01*
X3914177Y39876157D01*
X3931215Y39812572D01*
G37*
%TD.AperFunction*%
%TA.AperFunction,Conductor*%
G36*
X3198584Y41891566D02*
G01*
X3237626Y41846509D01*
X3242091Y41837745D01*
X3367030Y41665779D01*
X3517353Y41515456D01*
X3689319Y41390517D01*
X3689321Y41390516D01*
X3689324Y41390514D01*
X3698633Y41385771D01*
X3749430Y41337799D01*
X3766227Y41269978D01*
X3743692Y41203843D01*
X3698645Y41164805D01*
X3689586Y41160189D01*
X3689580Y41160185D01*
X3635422Y41120838D01*
X3635422Y41120837D01*
X4267731Y40488528D01*
X4204147Y40471490D01*
X4090133Y40405664D01*
X3997041Y40312572D01*
X3931215Y40198558D01*
X3914177Y40134974D01*
X3281868Y40767283D01*
X3281867Y40767283D01*
X3242520Y40713125D01*
X3242516Y40713119D01*
X3237900Y40704060D01*
X3189921Y40653268D01*
X3122099Y40636478D01*
X3055966Y40659022D01*
X3016934Y40704072D01*
X3012191Y40713381D01*
X3012189Y40713384D01*
X3012188Y40713386D01*
X2887249Y40885352D01*
X2736926Y41035675D01*
X2564960Y41160614D01*
X2564255Y41160974D01*
X2556194Y41165080D01*
X2505399Y41213053D01*
X2488603Y41280873D01*
X2511139Y41347009D01*
X2556194Y41386050D01*
X2564956Y41390514D01*
X2654404Y41455501D01*
X2736926Y41515456D01*
X2736928Y41515459D01*
X2736932Y41515461D01*
X2887244Y41665773D01*
X2887246Y41665777D01*
X2887249Y41665779D01*
X3012188Y41837745D01*
X3012187Y41837745D01*
X3012191Y41837749D01*
X3016654Y41846511D01*
X3064628Y41897306D01*
X3132448Y41914102D01*
X3198584Y41891566D01*
G37*
%TD.AperFunction*%
%TA.AperFunction,Conductor*%
G36*
X143461383Y74992501D02*
G01*
X143528421Y74972813D01*
X143549423Y74955814D01*
X147967836Y70500258D01*
X148001063Y70438798D01*
X148003787Y70412428D01*
X147729110Y4789665D01*
X147709145Y4722708D01*
X147692682Y4702393D01*
X143014792Y36209D01*
X142953427Y2801D01*
X142927221Y0D01*
X51141Y0D01*
X-15898Y19685D01*
X-36273Y36053D01*
X-4765384Y4736516D01*
X-4799056Y4797737D01*
X-4801970Y4824247D01*
X-4901932Y63763430D01*
X506640Y63763430D01*
X506640Y61967695D01*
X506641Y61967689D01*
X513048Y61908082D01*
X563342Y61773237D01*
X563346Y61773230D01*
X649592Y61658021D01*
X649595Y61658018D01*
X764804Y61571772D01*
X764811Y61571768D01*
X896222Y61522755D01*
X952156Y61480884D01*
X976573Y61415420D01*
X961722Y61347147D01*
X940571Y61318892D01*
X827029Y61205350D01*
X702091Y61033386D01*
X605584Y60843980D01*
X539893Y60641805D01*
X506640Y60431852D01*
X506640Y60219279D01*
X528882Y60078845D01*
X539894Y60009322D01*
X594029Y59842711D01*
X605584Y59807151D01*
X702091Y59617745D01*
X827030Y59445779D01*
X977353Y59295456D01*
X1149322Y59170515D01*
X1158086Y59166049D01*
X1208882Y59118074D01*
X1225676Y59050253D01*
X1203138Y58984118D01*
X1158086Y58945081D01*
X1149322Y58940616D01*
X977353Y58815675D01*
X827030Y58665352D01*
X702091Y58493386D01*
X605584Y58303980D01*
X605583Y58303978D01*
X605583Y58303977D01*
X601238Y58290603D01*
X539893Y58101805D01*
X512061Y57926080D01*
X506640Y57891852D01*
X506640Y57679278D01*
X513122Y57638352D01*
X539887Y57469361D01*
X539894Y57469322D01*
X577457Y57353714D01*
X605584Y57267151D01*
X702091Y57077745D01*
X827030Y56905779D01*
X977353Y56755456D01*
X1149322Y56630515D01*
X1158086Y56626049D01*
X1208882Y56578074D01*
X1225676Y56510253D01*
X1203138Y56444118D01*
X1158086Y56405081D01*
X1149322Y56400616D01*
X977353Y56275675D01*
X827030Y56125352D01*
X702091Y55953386D01*
X605584Y55763980D01*
X539893Y55561805D01*
X526341Y55476240D01*
X506640Y55351852D01*
X506640Y55139278D01*
X539894Y54929322D01*
X577457Y54813714D01*
X605584Y54727151D01*
X702091Y54537745D01*
X827030Y54365779D01*
X977353Y54215456D01*
X1149322Y54090515D01*
X1158086Y54086049D01*
X1208882Y54038074D01*
X1225676Y53970253D01*
X1203138Y53904118D01*
X1158086Y53865081D01*
X1149322Y53860616D01*
X977353Y53735675D01*
X827030Y53585352D01*
X702091Y53413386D01*
X605584Y53223980D01*
X539893Y53021805D01*
X506640Y52811852D01*
X506640Y52599279D01*
X524576Y52486032D01*
X539894Y52389322D01*
X577457Y52273714D01*
X605584Y52187151D01*
X702091Y51997745D01*
X827030Y51825779D01*
X977353Y51675456D01*
X1149322Y51550515D01*
X1158086Y51546049D01*
X1208882Y51498074D01*
X1225676Y51430253D01*
X1203138Y51364118D01*
X1158086Y51325081D01*
X1149322Y51320616D01*
X977353Y51195675D01*
X827030Y51045352D01*
X702091Y50873386D01*
X605584Y50683980D01*
X539893Y50481805D01*
X526341Y50396240D01*
X506640Y50271852D01*
X506640Y50059278D01*
X539894Y49849322D01*
X577457Y49733714D01*
X605584Y49647151D01*
X702091Y49457745D01*
X827030Y49285779D01*
X977353Y49135456D01*
X1149322Y49010515D01*
X1158086Y49006049D01*
X1208882Y48958074D01*
X1225676Y48890253D01*
X1203138Y48824118D01*
X1158086Y48785081D01*
X1149322Y48780616D01*
X977353Y48655675D01*
X827030Y48505352D01*
X702091Y48333386D01*
X605584Y48143980D01*
X539893Y47941805D01*
X526341Y47856240D01*
X506640Y47731852D01*
X506640Y47519278D01*
X539894Y47309322D01*
X577457Y47193714D01*
X605584Y47107151D01*
X702091Y46917745D01*
X827030Y46745779D01*
X977353Y46595456D01*
X1149322Y46470515D01*
X1158086Y46466049D01*
X1208882Y46418074D01*
X1225676Y46350253D01*
X1203138Y46284118D01*
X1158086Y46245081D01*
X1149322Y46240616D01*
X977353Y46115675D01*
X827030Y45965352D01*
X702091Y45793386D01*
X605584Y45603980D01*
X539893Y45401805D01*
X506640Y45191852D01*
X506640Y44979279D01*
X522647Y44878211D01*
X539894Y44769322D01*
X577457Y44653714D01*
X605584Y44567151D01*
X702091Y44377745D01*
X827030Y44205779D01*
X977353Y44055456D01*
X1149322Y43930515D01*
X1158086Y43926049D01*
X1208882Y43878074D01*
X1225676Y43810253D01*
X1203138Y43744118D01*
X1158086Y43705081D01*
X1149322Y43700616D01*
X977353Y43575675D01*
X827030Y43425352D01*
X702091Y43253386D01*
X605584Y43063980D01*
X539893Y42861805D01*
X526341Y42776240D01*
X506640Y42651852D01*
X506640Y42439278D01*
X539894Y42229322D01*
X577457Y42113714D01*
X605584Y42027151D01*
X702091Y41837745D01*
X827030Y41665779D01*
X977353Y41515456D01*
X1149322Y41390515D01*
X1158086Y41386049D01*
X1208882Y41338074D01*
X1225676Y41270253D01*
X1203138Y41204118D01*
X1158086Y41165081D01*
X1149322Y41160616D01*
X977353Y41035675D01*
X827030Y40885352D01*
X702091Y40713386D01*
X605584Y40523980D01*
X539893Y40321805D01*
X506640Y40111852D01*
X506640Y39899279D01*
X539141Y39694072D01*
X539894Y39689322D01*
X601156Y39500777D01*
X605584Y39487151D01*
X702091Y39297745D01*
X827030Y39125779D01*
X977353Y38975456D01*
X1149322Y38850515D01*
X1158086Y38846049D01*
X1208882Y38798074D01*
X1225676Y38730253D01*
X1203138Y38664118D01*
X1158086Y38625081D01*
X1149322Y38620616D01*
X977353Y38495675D01*
X827030Y38345352D01*
X702091Y38173386D01*
X605584Y37983980D01*
X539893Y37781805D01*
X506640Y37571852D01*
X506640Y37359279D01*
X538613Y37157405D01*
X539894Y37149322D01*
X578022Y37031976D01*
X605584Y36947151D01*
X702091Y36757745D01*
X827030Y36585779D01*
X977353Y36435456D01*
X1149322Y36310515D01*
X1158086Y36306049D01*
X1208882Y36258074D01*
X1225676Y36190253D01*
X1203138Y36124118D01*
X1158086Y36085081D01*
X1149322Y36080616D01*
X977353Y35955675D01*
X827030Y35805352D01*
X702091Y35633386D01*
X605584Y35443980D01*
X539893Y35241805D01*
X526341Y35156240D01*
X506640Y35031852D01*
X506640Y34819278D01*
X539894Y34609322D01*
X577457Y34493714D01*
X605584Y34407151D01*
X702091Y34217745D01*
X827030Y34045779D01*
X977353Y33895456D01*
X1149322Y33770515D01*
X1158086Y33766049D01*
X1208882Y33718074D01*
X1225676Y33650253D01*
X1203138Y33584118D01*
X1158086Y33545081D01*
X1149322Y33540616D01*
X977353Y33415675D01*
X827030Y33265352D01*
X702091Y33093386D01*
X605584Y32903980D01*
X539893Y32701805D01*
X526341Y32616240D01*
X506640Y32491852D01*
X506640Y32279278D01*
X539894Y32069322D01*
X577457Y31953714D01*
X605584Y31867151D01*
X702091Y31677745D01*
X827030Y31505779D01*
X977353Y31355456D01*
X1149322Y31230515D01*
X1158086Y31226049D01*
X1208882Y31178074D01*
X1225676Y31110253D01*
X1203138Y31044118D01*
X1158086Y31005081D01*
X1149322Y31000616D01*
X977353Y30875675D01*
X827030Y30725352D01*
X702091Y30553386D01*
X605584Y30363980D01*
X539893Y30161805D01*
X526341Y30076240D01*
X506640Y29951852D01*
X506640Y29739278D01*
X539894Y29529322D01*
X577457Y29413714D01*
X605584Y29327151D01*
X702091Y29137745D01*
X827030Y28965779D01*
X977353Y28815456D01*
X1149322Y28690515D01*
X1158086Y28686049D01*
X1208882Y28638074D01*
X1225676Y28570253D01*
X1203138Y28504118D01*
X1158086Y28465081D01*
X1149322Y28460616D01*
X977353Y28335675D01*
X827030Y28185352D01*
X702091Y28013386D01*
X605584Y27823980D01*
X539893Y27621805D01*
X526341Y27536240D01*
X506640Y27411852D01*
X506640Y27199278D01*
X539894Y26989322D01*
X577457Y26873714D01*
X605584Y26787151D01*
X702091Y26597745D01*
X827030Y26425779D01*
X977353Y26275456D01*
X1149322Y26150515D01*
X1158086Y26146049D01*
X1208882Y26098074D01*
X1225676Y26030253D01*
X1203138Y25964118D01*
X1158086Y25925081D01*
X1149322Y25920616D01*
X977353Y25795675D01*
X827030Y25645352D01*
X702091Y25473386D01*
X605584Y25283980D01*
X539893Y25081805D01*
X506640Y24871852D01*
X506640Y24659279D01*
X530237Y24510289D01*
X539894Y24449322D01*
X577457Y24333714D01*
X605584Y24247151D01*
X702091Y24057745D01*
X827030Y23885779D01*
X977353Y23735456D01*
X1149322Y23610515D01*
X1158086Y23606049D01*
X1208882Y23558074D01*
X1225676Y23490253D01*
X1203138Y23424118D01*
X1158086Y23385081D01*
X1149322Y23380616D01*
X977353Y23255675D01*
X827030Y23105352D01*
X702091Y22933386D01*
X605584Y22743980D01*
X539893Y22541805D01*
X526341Y22456240D01*
X506640Y22331852D01*
X506640Y22119278D01*
X539894Y21909322D01*
X577457Y21793714D01*
X605584Y21707151D01*
X702091Y21517745D01*
X827030Y21345779D01*
X977353Y21195456D01*
X1149322Y21070515D01*
X1158086Y21066049D01*
X1208882Y21018074D01*
X1225676Y20950253D01*
X1203138Y20884118D01*
X1158086Y20845081D01*
X1149322Y20840616D01*
X977353Y20715675D01*
X827030Y20565352D01*
X702091Y20393386D01*
X605584Y20203980D01*
X539893Y20001805D01*
X506640Y19791852D01*
X506640Y19579279D01*
X530944Y19425826D01*
X539894Y19369322D01*
X577457Y19253714D01*
X605584Y19167151D01*
X702091Y18977745D01*
X827030Y18805779D01*
X977353Y18655456D01*
X1149322Y18530515D01*
X1158086Y18526049D01*
X1208882Y18478074D01*
X1225676Y18410253D01*
X1203138Y18344118D01*
X1158086Y18305081D01*
X1149322Y18300616D01*
X977353Y18175675D01*
X827030Y18025352D01*
X702091Y17853386D01*
X605584Y17663980D01*
X539893Y17461805D01*
X506640Y17251852D01*
X506640Y17039279D01*
X524587Y16925962D01*
X539894Y16829322D01*
X577457Y16713714D01*
X605584Y16627151D01*
X702091Y16437745D01*
X827030Y16265779D01*
X977353Y16115456D01*
X1149319Y15990517D01*
X1149321Y15990516D01*
X1149324Y15990514D01*
X1338728Y15894008D01*
X1540897Y15828319D01*
X1750853Y15795065D01*
X1750854Y15795065D01*
X1963426Y15795065D01*
X1963427Y15795065D01*
X2173383Y15828319D01*
X2375552Y15894008D01*
X2564956Y15990514D01*
X2654404Y16055501D01*
X2736926Y16115456D01*
X2736928Y16115459D01*
X2736932Y16115461D01*
X2887244Y16265773D01*
X2887246Y16265777D01*
X2887249Y16265779D01*
X3012188Y16437745D01*
X3012187Y16437745D01*
X3012191Y16437749D01*
X3016654Y16446511D01*
X3064628Y16497306D01*
X3132448Y16514102D01*
X3198584Y16491566D01*
X3237626Y16446509D01*
X3242091Y16437745D01*
X3367030Y16265779D01*
X3517353Y16115456D01*
X3689319Y15990517D01*
X3689321Y15990516D01*
X3689324Y15990514D01*
X3878728Y15894008D01*
X4080897Y15828319D01*
X4290853Y15795065D01*
X4290854Y15795065D01*
X4503426Y15795065D01*
X4503427Y15795065D01*
X4713383Y15828319D01*
X4915552Y15894008D01*
X5104956Y15990514D01*
X5194404Y16055501D01*
X5276926Y16115456D01*
X5276928Y16115459D01*
X5276932Y16115461D01*
X5427244Y16265773D01*
X5427246Y16265777D01*
X5427249Y16265779D01*
X5552188Y16437745D01*
X5552187Y16437745D01*
X5552191Y16437749D01*
X5648697Y16627153D01*
X5714386Y16829322D01*
X5747640Y17039278D01*
X5747640Y17251852D01*
X5714386Y17461808D01*
X5648697Y17663977D01*
X5552191Y17853381D01*
X5552189Y17853384D01*
X5552188Y17853386D01*
X5427249Y18025352D01*
X5276926Y18175675D01*
X5104960Y18300614D01*
X5104255Y18300974D01*
X5096194Y18305080D01*
X5045399Y18353053D01*
X5028603Y18420873D01*
X5051139Y18487009D01*
X5096194Y18526050D01*
X5104956Y18530514D01*
X5159161Y18569896D01*
X5276926Y18655456D01*
X5276928Y18655459D01*
X5276932Y18655461D01*
X5427244Y18805773D01*
X5427246Y18805777D01*
X5427249Y18805779D01*
X5552188Y18977745D01*
X5552187Y18977745D01*
X5552191Y18977749D01*
X5648697Y19167153D01*
X5714386Y19369322D01*
X5747640Y19579278D01*
X5747640Y19791852D01*
X5714386Y20001808D01*
X5648697Y20203977D01*
X5552191Y20393381D01*
X5552189Y20393384D01*
X5552188Y20393386D01*
X5427249Y20565352D01*
X5276926Y20715675D01*
X5104960Y20840614D01*
X5104255Y20840974D01*
X5096194Y20845080D01*
X5045399Y20893053D01*
X5028603Y20960873D01*
X5051139Y21027009D01*
X5096194Y21066050D01*
X5104956Y21070514D01*
X5194404Y21135501D01*
X5276926Y21195456D01*
X5276928Y21195459D01*
X5276932Y21195461D01*
X5427244Y21345773D01*
X5427246Y21345777D01*
X5427249Y21345779D01*
X5552188Y21517745D01*
X5552187Y21517745D01*
X5552191Y21517749D01*
X5648697Y21707153D01*
X5714386Y21909322D01*
X5747640Y22119278D01*
X5747640Y22331852D01*
X5714386Y22541808D01*
X5648697Y22743977D01*
X5552191Y22933381D01*
X5552189Y22933384D01*
X5552188Y22933386D01*
X5427249Y23105352D01*
X5276926Y23255675D01*
X5104960Y23380614D01*
X5104255Y23380974D01*
X5096194Y23385080D01*
X5045399Y23433053D01*
X5028603Y23500873D01*
X5051139Y23567009D01*
X5096194Y23606050D01*
X5104956Y23610514D01*
X5194404Y23675501D01*
X5276926Y23735456D01*
X5276928Y23735459D01*
X5276932Y23735461D01*
X5427244Y23885773D01*
X5427246Y23885777D01*
X5427249Y23885779D01*
X5552188Y24057745D01*
X5552187Y24057745D01*
X5552191Y24057749D01*
X5648697Y24247153D01*
X5714386Y24449322D01*
X5747640Y24659278D01*
X5747640Y24871852D01*
X5714386Y25081808D01*
X5648697Y25283977D01*
X5552191Y25473381D01*
X5552189Y25473384D01*
X5552188Y25473386D01*
X5427249Y25645352D01*
X5276926Y25795675D01*
X5104960Y25920614D01*
X5104255Y25920974D01*
X5096194Y25925080D01*
X5045399Y25973053D01*
X5028603Y26040873D01*
X5051139Y26107009D01*
X5096194Y26146050D01*
X5104956Y26150514D01*
X5194404Y26215501D01*
X5276926Y26275456D01*
X5276928Y26275459D01*
X5276932Y26275461D01*
X5427244Y26425773D01*
X5427246Y26425777D01*
X5427249Y26425779D01*
X5552188Y26597745D01*
X5552187Y26597745D01*
X5552191Y26597749D01*
X5648697Y26787153D01*
X5714386Y26989322D01*
X5747640Y27199278D01*
X5747640Y27411852D01*
X5714386Y27621808D01*
X5648697Y27823977D01*
X5552191Y28013381D01*
X5552189Y28013384D01*
X5552188Y28013386D01*
X5427249Y28185352D01*
X5276926Y28335675D01*
X5104960Y28460614D01*
X5104255Y28460974D01*
X5096194Y28465080D01*
X5045399Y28513053D01*
X5028603Y28580873D01*
X5051139Y28647009D01*
X5096194Y28686050D01*
X5104956Y28690514D01*
X5252917Y28798013D01*
X5276926Y28815456D01*
X5276928Y28815459D01*
X5276932Y28815461D01*
X5427244Y28965773D01*
X5427246Y28965777D01*
X5427249Y28965779D01*
X5552188Y29137745D01*
X5552187Y29137745D01*
X5552191Y29137749D01*
X5648697Y29327153D01*
X5714386Y29529322D01*
X5747640Y29739278D01*
X5747640Y29951852D01*
X5714386Y30161808D01*
X5648697Y30363977D01*
X5552191Y30553381D01*
X5552189Y30553384D01*
X5552188Y30553386D01*
X5427249Y30725352D01*
X5276926Y30875675D01*
X5104960Y31000614D01*
X5104255Y31000974D01*
X5096194Y31005080D01*
X5045399Y31053053D01*
X5028603Y31120873D01*
X5051139Y31187009D01*
X5096194Y31226050D01*
X5104956Y31230514D01*
X5194404Y31295501D01*
X5276926Y31355456D01*
X5276928Y31355459D01*
X5276932Y31355461D01*
X5427244Y31505773D01*
X5427246Y31505777D01*
X5427249Y31505779D01*
X5552188Y31677745D01*
X5552187Y31677745D01*
X5552191Y31677749D01*
X5648697Y31867153D01*
X5714386Y32069322D01*
X5747640Y32279278D01*
X5747640Y32491852D01*
X5714386Y32701808D01*
X5648697Y32903977D01*
X5552191Y33093381D01*
X5552189Y33093384D01*
X5552188Y33093386D01*
X5427249Y33265352D01*
X5276926Y33415675D01*
X5104960Y33540614D01*
X5104255Y33540974D01*
X5096194Y33545080D01*
X5045399Y33593053D01*
X5028603Y33660873D01*
X5051139Y33727009D01*
X5096194Y33766050D01*
X5104956Y33770514D01*
X5194404Y33835501D01*
X5276926Y33895456D01*
X5276928Y33895459D01*
X5276932Y33895461D01*
X5427244Y34045773D01*
X5427246Y34045777D01*
X5427249Y34045779D01*
X5552188Y34217745D01*
X5552187Y34217745D01*
X5552191Y34217749D01*
X5648697Y34407153D01*
X5714386Y34609322D01*
X5747640Y34819278D01*
X5747640Y35031852D01*
X5714386Y35241808D01*
X5648697Y35443977D01*
X5552191Y35633381D01*
X5552189Y35633384D01*
X5552188Y35633386D01*
X5427249Y35805352D01*
X5276926Y35955675D01*
X5104960Y36080614D01*
X5104255Y36080974D01*
X5096194Y36085080D01*
X5045399Y36133053D01*
X5028603Y36200873D01*
X5051139Y36267009D01*
X5096194Y36306050D01*
X5104956Y36310514D01*
X5264008Y36426071D01*
X5276926Y36435456D01*
X5276928Y36435459D01*
X5276932Y36435461D01*
X5427244Y36585773D01*
X5427246Y36585777D01*
X5427249Y36585779D01*
X5552188Y36757745D01*
X5552187Y36757745D01*
X5552191Y36757749D01*
X5648697Y36947153D01*
X5714386Y37149322D01*
X5747640Y37359278D01*
X5747640Y37571852D01*
X5714386Y37781808D01*
X5648697Y37983977D01*
X5552191Y38173381D01*
X5552189Y38173384D01*
X5552188Y38173386D01*
X5427249Y38345352D01*
X5276926Y38495675D01*
X5104957Y38620616D01*
X5095644Y38625361D01*
X5044847Y38673335D01*
X5028052Y38741156D01*
X5050589Y38807291D01*
X5095647Y38846333D01*
X5104695Y38850943D01*
X5158856Y38890295D01*
X5158857Y38890295D01*
X4526548Y39522603D01*
X4590133Y39539640D01*
X4704147Y39605466D01*
X4797239Y39698558D01*
X4863065Y39812572D01*
X4880102Y39876157D01*
X5512410Y39243848D01*
X5512410Y39243849D01*
X5551762Y39298011D01*
X5648235Y39487348D01*
X5715404Y39694072D01*
X5716635Y39693672D01*
X5748456Y39749113D01*
X5810477Y39781288D01*
X5880047Y39774824D01*
X5921933Y39747272D01*
X7037649Y38631557D01*
X9547945Y36121261D01*
X9581430Y36059938D01*
X9584264Y36033580D01*
X9584264Y8911304D01*
X9618867Y8737341D01*
X9618868Y8737335D01*
X9618869Y8737334D01*
X9634556Y8699464D01*
X9686751Y8573453D01*
X9730463Y8508034D01*
X9769240Y8450000D01*
X9785301Y8425962D01*
X9785302Y8425961D01*
X10785300Y7425965D01*
X10910729Y7300536D01*
X11058217Y7201987D01*
X11106216Y7182105D01*
X11222098Y7134105D01*
X11396068Y7099501D01*
X11396072Y7099500D01*
X11396073Y7099500D01*
X59573457Y7099500D01*
X59573458Y7099501D01*
X59747430Y7134105D01*
X59829370Y7168047D01*
X59911311Y7201987D01*
X59999723Y7261064D01*
X60058800Y7300536D01*
X62126317Y9368053D01*
X95984764Y9368053D01*
X95984764Y9350000D01*
X96884763Y9350000D01*
X96859743Y9289598D01*
X96834764Y9164019D01*
X96834764Y9035981D01*
X96859743Y8910402D01*
X96884763Y8850000D01*
X95984764Y8850000D01*
X95984764Y8831948D01*
X96021698Y8598753D01*
X96094661Y8374198D01*
X96201849Y8163829D01*
X96340630Y7972814D01*
X96507577Y7805867D01*
X96698592Y7667086D01*
X96908959Y7559898D01*
X97133508Y7486937D01*
X97133514Y7486935D01*
X97234764Y7470899D01*
X97234764Y8499999D01*
X97295166Y8474979D01*
X97420745Y8450000D01*
X97548783Y8450000D01*
X97674362Y8474979D01*
X97734764Y8499999D01*
X97734764Y7470900D01*
X97836013Y7486935D01*
X97836019Y7486937D01*
X98060568Y7559898D01*
X98270935Y7667086D01*
X98461950Y7805867D01*
X98628897Y7972814D01*
X98767678Y8163829D01*
X98874866Y8374198D01*
X98947829Y8598753D01*
X98984764Y8831948D01*
X98984764Y8850000D01*
X98084765Y8850000D01*
X98109785Y8910402D01*
X98134764Y9035981D01*
X98134764Y9164019D01*
X98109785Y9289598D01*
X98084765Y9350000D01*
X98984764Y9350000D01*
X98984764Y9368053D01*
X98947829Y9601248D01*
X98874866Y9825803D01*
X98767678Y10036172D01*
X98628897Y10227187D01*
X98461950Y10394134D01*
X98270935Y10532915D01*
X98060566Y10640103D01*
X97836011Y10713066D01*
X97734764Y10729103D01*
X97734764Y9700002D01*
X97674362Y9725021D01*
X97548783Y9750000D01*
X97420745Y9750000D01*
X97295166Y9725021D01*
X97234764Y9700002D01*
X97234764Y10729103D01*
X97133516Y10713066D01*
X96908961Y10640103D01*
X96698592Y10532915D01*
X96507577Y10394134D01*
X96340630Y10227187D01*
X96201849Y10036172D01*
X96094661Y9825803D01*
X96021698Y9601248D01*
X95984764Y9368053D01*
X62126317Y9368053D01*
X69684228Y16925964D01*
X69708780Y16962711D01*
X69733502Y16999708D01*
X69749963Y17024346D01*
X69782777Y17073453D01*
X69808785Y17136243D01*
X69850659Y17237334D01*
X69885264Y17411308D01*
X69885264Y17450017D01*
X138484264Y17450017D01*
X138484264Y15549999D01*
X138484265Y15549982D01*
X138494764Y15447204D01*
X138494765Y15447201D01*
X138540193Y15310110D01*
X138549950Y15280666D01*
X138642052Y15131344D01*
X138766108Y15007288D01*
X138915430Y14915186D01*
X139081967Y14860001D01*
X139184755Y14849500D01*
X140784772Y14849501D01*
X140887561Y14860001D01*
X141054098Y14915186D01*
X141203420Y15007288D01*
X141327476Y15131344D01*
X141419578Y15280666D01*
X141474763Y15447203D01*
X141485264Y15549991D01*
X141485263Y17450008D01*
X141474763Y17552797D01*
X141419578Y17719334D01*
X141327476Y17868656D01*
X141203420Y17992712D01*
X141075591Y18071557D01*
X141054100Y18084813D01*
X141054095Y18084815D01*
X141021575Y18095591D01*
X140887561Y18139999D01*
X140887559Y18140000D01*
X140784774Y18150500D01*
X139184762Y18150500D01*
X139184745Y18150499D01*
X139081967Y18140000D01*
X139081964Y18139999D01*
X138915432Y18084815D01*
X138915427Y18084813D01*
X138766106Y17992711D01*
X138642053Y17868658D01*
X138549951Y17719337D01*
X138549949Y17719332D01*
X138540715Y17691464D01*
X138494765Y17552797D01*
X138494765Y17552796D01*
X138494764Y17552796D01*
X138484264Y17450017D01*
X69885264Y17450017D01*
X69885264Y17588692D01*
X69885264Y24568098D01*
X138484264Y24568098D01*
X138484264Y24031903D01*
X138521210Y23798632D01*
X138594197Y23574004D01*
X138696567Y23373093D01*
X138701421Y23363567D01*
X138840247Y23172490D01*
X139007254Y23005483D01*
X139198331Y22866657D01*
X139235299Y22847821D01*
X139408767Y22759434D01*
X139408769Y22759434D01*
X139408772Y22759432D01*
X139529176Y22720311D01*
X139633395Y22686447D01*
X139866667Y22649500D01*
X139866672Y22649500D01*
X140102861Y22649500D01*
X140336132Y22686447D01*
X140345528Y22689500D01*
X140560756Y22759432D01*
X140771197Y22866657D01*
X140962274Y23005483D01*
X141129281Y23172490D01*
X141268107Y23363567D01*
X141375332Y23574008D01*
X141448317Y23798632D01*
X141462120Y23885779D01*
X141485264Y24031903D01*
X141485264Y24568098D01*
X141448317Y24801369D01*
X141375330Y25025997D01*
X141313257Y25147821D01*
X141268107Y25236433D01*
X141129281Y25427510D01*
X140962274Y25594517D01*
X140771197Y25733343D01*
X140560760Y25840567D01*
X140336132Y25913554D01*
X140102861Y25950500D01*
X140102856Y25950500D01*
X139866672Y25950500D01*
X139866667Y25950500D01*
X139633395Y25913554D01*
X139408767Y25840567D01*
X139198330Y25733343D01*
X139089314Y25654138D01*
X139007254Y25594517D01*
X139007252Y25594515D01*
X139007251Y25594515D01*
X138840249Y25427513D01*
X138840249Y25427512D01*
X138840247Y25427510D01*
X138811411Y25387821D01*
X138701421Y25236434D01*
X138594197Y25025997D01*
X138521210Y24801369D01*
X138484264Y24568098D01*
X69885264Y24568098D01*
X69885264Y28088691D01*
X69885264Y28088694D01*
X69885263Y28088696D01*
X69850660Y28262659D01*
X69850657Y28262668D01*
X69782780Y28426541D01*
X69782773Y28426554D01*
X69684228Y28574035D01*
X69684225Y28574039D01*
X69558802Y28699462D01*
X69558798Y28699465D01*
X69411317Y28798010D01*
X69411304Y28798017D01*
X69247431Y28865894D01*
X69247422Y28865897D01*
X69073458Y28900500D01*
X69073455Y28900500D01*
X68896073Y28900500D01*
X68896070Y28900500D01*
X68722105Y28865897D01*
X68722096Y28865894D01*
X68558223Y28798017D01*
X68558210Y28798010D01*
X68410729Y28699465D01*
X68410725Y28699462D01*
X68285302Y28574039D01*
X68285299Y28574035D01*
X68186754Y28426554D01*
X68186747Y28426541D01*
X68118870Y28262668D01*
X68118867Y28262659D01*
X68084264Y28088696D01*
X68084264Y17924362D01*
X68064579Y17857323D01*
X68047945Y17836681D01*
X59148083Y8936819D01*
X59086760Y8903334D01*
X59060402Y8900500D01*
X47409125Y8900500D01*
X47342086Y8920185D01*
X47321444Y8936819D01*
X44921583Y11336681D01*
X44888098Y11398004D01*
X44885264Y11424362D01*
X44885264Y13219242D01*
X44893907Y13248679D01*
X44900431Y13278668D01*
X44904186Y13283685D01*
X44904949Y13286281D01*
X44921582Y13306922D01*
X44937178Y13322518D01*
X44978091Y13363432D01*
X45039412Y13396916D01*
X45109104Y13391932D01*
X45165037Y13350061D01*
X45181953Y13319083D01*
X45230966Y13187672D01*
X45230970Y13187665D01*
X45317216Y13072456D01*
X45317219Y13072453D01*
X45432428Y12986207D01*
X45432435Y12986203D01*
X45567281Y12935909D01*
X45567280Y12935909D01*
X45574208Y12935165D01*
X45626891Y12929500D01*
X47422636Y12929501D01*
X47482247Y12935909D01*
X47617095Y12986204D01*
X47732310Y13072454D01*
X47818560Y13187669D01*
X47868855Y13322517D01*
X47875264Y13382127D01*
X47875263Y15177872D01*
X47868855Y15237483D01*
X47867574Y15240917D01*
X47818561Y15372329D01*
X47818557Y15372336D01*
X47732311Y15487545D01*
X47732308Y15487548D01*
X47617099Y15573794D01*
X47617092Y15573798D01*
X47485681Y15622811D01*
X47429747Y15664682D01*
X47405330Y15730147D01*
X47420182Y15798420D01*
X47441327Y15826668D01*
X47554868Y15940208D01*
X47574820Y15967669D01*
X47638633Y16055501D01*
X47679815Y16112184D01*
X47776321Y16301588D01*
X47842010Y16503757D01*
X47875264Y16713713D01*
X47875264Y16926287D01*
X47842010Y17136243D01*
X47776321Y17338412D01*
X47679815Y17527816D01*
X47679813Y17527819D01*
X47679812Y17527821D01*
X47554873Y17699787D01*
X47404550Y17850110D01*
X47232584Y17975049D01*
X47231879Y17975409D01*
X47223818Y17979515D01*
X47173023Y18027488D01*
X47156227Y18095308D01*
X47178763Y18161444D01*
X47223818Y18200485D01*
X47232580Y18204949D01*
X47287870Y18245119D01*
X47404550Y18329891D01*
X47404552Y18329894D01*
X47404556Y18329896D01*
X47554868Y18480208D01*
X47554870Y18480212D01*
X47554873Y18480214D01*
X47679812Y18652180D01*
X47679814Y18652183D01*
X47679815Y18652184D01*
X47776321Y18841588D01*
X47842010Y19043757D01*
X47875264Y19253713D01*
X47875264Y19466287D01*
X47842010Y19676243D01*
X47776321Y19878412D01*
X47679815Y20067816D01*
X47679813Y20067819D01*
X47679812Y20067821D01*
X47554873Y20239787D01*
X47404550Y20390110D01*
X47232584Y20515049D01*
X47224364Y20519237D01*
X47223818Y20519515D01*
X47173023Y20567488D01*
X47156227Y20635308D01*
X47178763Y20701444D01*
X47223818Y20740485D01*
X47232580Y20744949D01*
X47287870Y20785119D01*
X47404550Y20869891D01*
X47404552Y20869894D01*
X47404556Y20869896D01*
X47554868Y21020208D01*
X47554870Y21020212D01*
X47554873Y21020214D01*
X47679812Y21192180D01*
X47679811Y21192180D01*
X47679815Y21192184D01*
X47776321Y21381588D01*
X47842010Y21583757D01*
X47875264Y21793713D01*
X47875264Y22006287D01*
X47842010Y22216243D01*
X47828270Y22258527D01*
X47826276Y22328365D01*
X47858518Y22384520D01*
X48127181Y22653184D01*
X48188503Y22686666D01*
X48214861Y22689500D01*
X50032637Y22689500D01*
X50099676Y22669815D01*
X50145431Y22617011D01*
X50155375Y22547853D01*
X50150568Y22527182D01*
X50127517Y22456240D01*
X50094264Y22246287D01*
X50094264Y22033714D01*
X50123462Y21849362D01*
X50127518Y21823757D01*
X50184887Y21647193D01*
X50193208Y21621586D01*
X50289715Y21432180D01*
X50414654Y21260214D01*
X50564977Y21109891D01*
X50736946Y20984950D01*
X50745710Y20980484D01*
X50796506Y20932509D01*
X50813300Y20864688D01*
X50790762Y20798553D01*
X50745710Y20759516D01*
X50736946Y20755051D01*
X50564977Y20630110D01*
X50414654Y20479787D01*
X50289715Y20307821D01*
X50193208Y20118415D01*
X50127517Y19916240D01*
X50094264Y19706287D01*
X50094264Y19493714D01*
X50123462Y19309362D01*
X50127518Y19283757D01*
X50184887Y19107193D01*
X50193208Y19081586D01*
X50289715Y18892180D01*
X50414654Y18720214D01*
X50564977Y18569891D01*
X50736946Y18444950D01*
X50745710Y18440484D01*
X50796506Y18392509D01*
X50813300Y18324688D01*
X50790762Y18258553D01*
X50745710Y18219516D01*
X50736946Y18215051D01*
X50564977Y18090110D01*
X50414654Y17939787D01*
X50289715Y17767821D01*
X50193208Y17578415D01*
X50127517Y17376240D01*
X50094264Y17166287D01*
X50094264Y16953714D01*
X50123462Y16769362D01*
X50127518Y16743757D01*
X50184887Y16567193D01*
X50193208Y16541586D01*
X50289715Y16352180D01*
X50414654Y16180214D01*
X50564977Y16029891D01*
X50736943Y15904952D01*
X50736945Y15904951D01*
X50736948Y15904949D01*
X50926352Y15808443D01*
X51128521Y15742754D01*
X51338477Y15709500D01*
X51338478Y15709500D01*
X51551050Y15709500D01*
X51551051Y15709500D01*
X51761007Y15742754D01*
X51963176Y15808443D01*
X52152580Y15904949D01*
X52201110Y15940208D01*
X52324550Y16029891D01*
X52324552Y16029894D01*
X52324556Y16029896D01*
X52474868Y16180208D01*
X52474870Y16180212D01*
X52474873Y16180214D01*
X52599812Y16352180D01*
X52599811Y16352180D01*
X52599815Y16352184D01*
X52604278Y16360946D01*
X52652252Y16411741D01*
X52720072Y16428537D01*
X52786208Y16406001D01*
X52825248Y16360946D01*
X52829355Y16352885D01*
X52829715Y16352180D01*
X52954654Y16180214D01*
X53104977Y16029891D01*
X53276943Y15904952D01*
X53276945Y15904951D01*
X53276948Y15904949D01*
X53466352Y15808443D01*
X53668521Y15742754D01*
X53878477Y15709500D01*
X53878478Y15709500D01*
X54091050Y15709500D01*
X54091051Y15709500D01*
X54301007Y15742754D01*
X54503176Y15808443D01*
X54692580Y15904949D01*
X54741110Y15940208D01*
X54864550Y16029891D01*
X54864552Y16029894D01*
X54864556Y16029896D01*
X55014868Y16180208D01*
X55014870Y16180212D01*
X55014873Y16180214D01*
X55139812Y16352180D01*
X55139811Y16352180D01*
X55139815Y16352184D01*
X55236321Y16541588D01*
X55302010Y16743757D01*
X55335264Y16953713D01*
X55335264Y17166287D01*
X55302010Y17376243D01*
X55236321Y17578412D01*
X55139815Y17767816D01*
X55139813Y17767819D01*
X55139812Y17767821D01*
X55014873Y17939787D01*
X54864550Y18090110D01*
X54692584Y18215049D01*
X54691879Y18215409D01*
X54683818Y18219515D01*
X54633023Y18267488D01*
X54616227Y18335308D01*
X54638763Y18401444D01*
X54683818Y18440485D01*
X54692580Y18444949D01*
X54741110Y18480208D01*
X54864550Y18569891D01*
X54864552Y18569894D01*
X54864556Y18569896D01*
X55014868Y18720208D01*
X55014870Y18720212D01*
X55014873Y18720214D01*
X55139812Y18892180D01*
X55139811Y18892180D01*
X55139815Y18892184D01*
X55236321Y19081588D01*
X55302010Y19283757D01*
X55335264Y19493713D01*
X55335264Y19706287D01*
X55302010Y19916243D01*
X55236321Y20118412D01*
X55139815Y20307816D01*
X55139813Y20307819D01*
X55139812Y20307821D01*
X55014873Y20479787D01*
X54864550Y20630110D01*
X54692584Y20755049D01*
X54691879Y20755409D01*
X54683818Y20759515D01*
X54633023Y20807488D01*
X54616227Y20875308D01*
X54638763Y20941444D01*
X54683818Y20980485D01*
X54692580Y20984949D01*
X54741110Y21020208D01*
X54864550Y21109891D01*
X54864552Y21109894D01*
X54864556Y21109896D01*
X55014868Y21260208D01*
X55014870Y21260212D01*
X55014873Y21260214D01*
X55139812Y21432180D01*
X55139811Y21432180D01*
X55139815Y21432184D01*
X55236321Y21621588D01*
X55302010Y21823757D01*
X55335264Y22033713D01*
X55335264Y22246287D01*
X55302010Y22456243D01*
X55236321Y22658412D01*
X55139815Y22847816D01*
X55139813Y22847819D01*
X55139812Y22847821D01*
X55020802Y23011626D01*
X54997322Y23077433D01*
X55013148Y23145486D01*
X55063254Y23194181D01*
X55096929Y23206128D01*
X55146000Y23215890D01*
X55218261Y23230263D01*
X55363943Y23290606D01*
X55495053Y23378211D01*
X55606553Y23489711D01*
X55694158Y23620821D01*
X55754501Y23766503D01*
X55785264Y23921158D01*
X55785264Y24078842D01*
X55785264Y24078845D01*
X55785263Y24078847D01*
X55776329Y24123761D01*
X55754501Y24233497D01*
X55725333Y24303915D01*
X55694161Y24379173D01*
X55694154Y24379186D01*
X55606553Y24510289D01*
X55606550Y24510293D01*
X55495056Y24621787D01*
X55495052Y24621790D01*
X55390067Y24691939D01*
X55345262Y24745551D01*
X55336287Y24781517D01*
X55336026Y24781475D01*
X55335554Y24784454D01*
X55335340Y24785312D01*
X55335264Y24786270D01*
X55335264Y24786287D01*
X55302010Y24996243D01*
X55236321Y25198412D01*
X55139815Y25387816D01*
X55139813Y25387819D01*
X55139812Y25387821D01*
X55014873Y25559787D01*
X54864550Y25710110D01*
X54692584Y25835049D01*
X54691879Y25835409D01*
X54683818Y25839515D01*
X54633023Y25887488D01*
X54616227Y25955308D01*
X54638763Y26021444D01*
X54683818Y26060485D01*
X54692580Y26064949D01*
X54741110Y26100208D01*
X54864550Y26189891D01*
X54864552Y26189894D01*
X54864556Y26189896D01*
X55014868Y26340208D01*
X55014870Y26340212D01*
X55014873Y26340214D01*
X55139812Y26512180D01*
X55139811Y26512180D01*
X55139815Y26512184D01*
X55236321Y26701588D01*
X55302010Y26903757D01*
X55335264Y27113713D01*
X55335264Y27326287D01*
X55302010Y27536243D01*
X55236321Y27738412D01*
X55139815Y27927816D01*
X55139813Y27927819D01*
X55139812Y27927821D01*
X55014873Y28099787D01*
X54864550Y28250110D01*
X54692584Y28375049D01*
X54691879Y28375409D01*
X54683818Y28379515D01*
X54633023Y28427488D01*
X54616227Y28495308D01*
X54638763Y28561444D01*
X54683818Y28600485D01*
X54692580Y28604949D01*
X54741110Y28640208D01*
X54864550Y28729891D01*
X54864552Y28729894D01*
X54864556Y28729896D01*
X55014868Y28880208D01*
X55014870Y28880212D01*
X55014873Y28880214D01*
X55139812Y29052180D01*
X55139811Y29052180D01*
X55139815Y29052184D01*
X55236321Y29241588D01*
X55302010Y29443757D01*
X55335264Y29653713D01*
X55335264Y29866287D01*
X55302010Y30076243D01*
X55236321Y30278412D01*
X55139815Y30467816D01*
X55139813Y30467819D01*
X55139812Y30467821D01*
X55014873Y30639787D01*
X54864550Y30790110D01*
X54692584Y30915049D01*
X54691879Y30915409D01*
X54683818Y30919515D01*
X54633023Y30967488D01*
X54616227Y31035308D01*
X54638763Y31101444D01*
X54683818Y31140485D01*
X54692580Y31144949D01*
X54741110Y31180208D01*
X54864550Y31269891D01*
X54864552Y31269894D01*
X54864556Y31269896D01*
X55014868Y31420208D01*
X55014870Y31420212D01*
X55014873Y31420214D01*
X55139812Y31592180D01*
X55139811Y31592180D01*
X55139815Y31592184D01*
X55236321Y31781588D01*
X55296922Y31968098D01*
X95984264Y31968098D01*
X95984264Y31431903D01*
X96021210Y31198632D01*
X96094197Y30974004D01*
X96185248Y30795308D01*
X96201421Y30763567D01*
X96340247Y30572490D01*
X96507254Y30405483D01*
X96698331Y30266657D01*
X96774551Y30227821D01*
X96908767Y30159434D01*
X96908769Y30159434D01*
X96908772Y30159432D01*
X97029176Y30120311D01*
X97133395Y30086447D01*
X97366667Y30049500D01*
X97366672Y30049500D01*
X97602861Y30049500D01*
X97836132Y30086447D01*
X97883531Y30101848D01*
X98060756Y30159432D01*
X98271197Y30266657D01*
X98462274Y30405483D01*
X98629281Y30572490D01*
X98768107Y30763567D01*
X98875332Y30974008D01*
X98948317Y31198632D01*
X98963659Y31295496D01*
X98985264Y31431903D01*
X98985264Y31968098D01*
X98948317Y32201369D01*
X98891496Y32376243D01*
X98875332Y32425992D01*
X98875330Y32425995D01*
X98875330Y32425997D01*
X98797670Y32578412D01*
X98768107Y32636433D01*
X98629281Y32827510D01*
X98462274Y32994517D01*
X98271197Y33133343D01*
X98060760Y33240567D01*
X97836132Y33313554D01*
X97602861Y33350500D01*
X97602856Y33350500D01*
X97366672Y33350500D01*
X97366667Y33350500D01*
X97133395Y33313554D01*
X96908767Y33240567D01*
X96698330Y33133343D01*
X96631268Y33084619D01*
X96507254Y32994517D01*
X96507252Y32994515D01*
X96507251Y32994515D01*
X96340249Y32827513D01*
X96340249Y32827512D01*
X96340247Y32827510D01*
X96290511Y32759054D01*
X96201421Y32636434D01*
X96094197Y32425997D01*
X96021210Y32201369D01*
X95984264Y31968098D01*
X55296922Y31968098D01*
X55302010Y31983757D01*
X55306066Y32009362D01*
X55335264Y32193714D01*
X55335264Y32406287D01*
X55332142Y32425997D01*
X55302010Y32616243D01*
X55236321Y32818412D01*
X55139815Y33007816D01*
X55139813Y33007819D01*
X55139812Y33007821D01*
X55014873Y33179787D01*
X54995183Y33199477D01*
X54961698Y33260800D01*
X54966682Y33330492D01*
X54995183Y33374839D01*
X56144105Y34523761D01*
X57343270Y35722926D01*
X57343275Y35722930D01*
X57353478Y35733134D01*
X57353480Y35733134D01*
X57465284Y35844938D01*
X57529214Y35955669D01*
X57544341Y35981869D01*
X57585264Y36134596D01*
X57585264Y36292711D01*
X57585264Y40102318D01*
X75184764Y40102318D01*
X75184764Y39897683D01*
X75216773Y39695583D01*
X75280008Y39500969D01*
X75372905Y39318650D01*
X75372911Y39318641D01*
X75405287Y39274079D01*
X75405288Y39274078D01*
X76084764Y39953554D01*
X76084764Y39947339D01*
X76112023Y39845606D01*
X76164684Y39754394D01*
X76239158Y39679920D01*
X76330370Y39627259D01*
X76432103Y39600000D01*
X76438317Y39600000D01*
X75758840Y38920526D01*
X75803414Y38888141D01*
X75985732Y38795245D01*
X76180346Y38732010D01*
X76382447Y38700000D01*
X76587081Y38700000D01*
X76789181Y38732010D01*
X76983795Y38795245D01*
X77166113Y38888141D01*
X77210685Y38920526D01*
X76531211Y39600000D01*
X76537425Y39600000D01*
X76639158Y39627259D01*
X76730370Y39679920D01*
X76804844Y39754394D01*
X76857505Y39845606D01*
X76884764Y39947339D01*
X76884764Y39953553D01*
X77564238Y39274079D01*
X77596623Y39318651D01*
X77623997Y39372376D01*
X77671971Y39423173D01*
X77739792Y39439969D01*
X77805927Y39417433D01*
X77844967Y39372379D01*
X77872477Y39318389D01*
X77992792Y39152787D01*
X78137550Y39008029D01*
X78292513Y38895444D01*
X78303154Y38887713D01*
X78419371Y38828497D01*
X78485540Y38794782D01*
X78485542Y38794782D01*
X78485545Y38794780D01*
X78589901Y38760873D01*
X78680229Y38731523D01*
X78743865Y38721444D01*
X78882412Y38699500D01*
X78882413Y38699500D01*
X79087115Y38699500D01*
X79087116Y38699500D01*
X79289298Y38731523D01*
X79483983Y38794780D01*
X79666374Y38887713D01*
X79782634Y38972180D01*
X79831977Y39008029D01*
X79831979Y39008032D01*
X79831983Y39008034D01*
X79976730Y39152781D01*
X79976732Y39152785D01*
X79976735Y39152787D01*
X80029496Y39225410D01*
X80097051Y39318390D01*
X80189984Y39500781D01*
X80253241Y39695466D01*
X80285264Y39897648D01*
X80285264Y40102352D01*
X80264058Y40236240D01*
X80253241Y40304535D01*
X80201421Y40464020D01*
X80189984Y40499219D01*
X80189982Y40499222D01*
X80189982Y40499224D01*
X80147514Y40582571D01*
X80097051Y40681610D01*
X80064856Y40725923D01*
X79976735Y40847214D01*
X79831977Y40991972D01*
X79666377Y41112285D01*
X79666376Y41112286D01*
X79666374Y41112287D01*
X79586288Y41153093D01*
X79483987Y41205219D01*
X79289298Y41268478D01*
X79114759Y41296122D01*
X79087116Y41300500D01*
X78882412Y41300500D01*
X78858093Y41296649D01*
X78680229Y41268478D01*
X78485540Y41205219D01*
X78303150Y41112285D01*
X78137550Y40991972D01*
X77992792Y40847214D01*
X77872478Y40681614D01*
X77844967Y40627621D01*
X77796991Y40576826D01*
X77729170Y40560032D01*
X77663036Y40582571D01*
X77623998Y40627624D01*
X77596625Y40681348D01*
X77564238Y40725923D01*
X77564238Y40725924D01*
X76884764Y40046449D01*
X76884764Y40052661D01*
X76857505Y40154394D01*
X76804844Y40245606D01*
X76730370Y40320080D01*
X76639158Y40372741D01*
X76537425Y40400000D01*
X76531210Y40400000D01*
X77210686Y41079476D01*
X77210685Y41079477D01*
X77166123Y41111853D01*
X77166114Y41111859D01*
X76983795Y41204756D01*
X76789181Y41267991D01*
X76587081Y41300000D01*
X76382447Y41300000D01*
X76180346Y41267991D01*
X75985732Y41204756D01*
X75803408Y41111857D01*
X75758841Y41079477D01*
X75758841Y41079476D01*
X76438318Y40400000D01*
X76432103Y40400000D01*
X76330370Y40372741D01*
X76239158Y40320080D01*
X76164684Y40245606D01*
X76112023Y40154394D01*
X76084764Y40052661D01*
X76084764Y40046447D01*
X75405288Y40725923D01*
X75405287Y40725923D01*
X75372907Y40681356D01*
X75280008Y40499032D01*
X75216773Y40304418D01*
X75184764Y40102318D01*
X57585264Y40102318D01*
X57585264Y45578847D01*
X58184264Y45578847D01*
X58184264Y45421154D01*
X58215025Y45266511D01*
X58215028Y45266499D01*
X58275366Y45120828D01*
X58275373Y45120815D01*
X58362974Y44989712D01*
X58362977Y44989708D01*
X58474471Y44878214D01*
X58474475Y44878211D01*
X58605578Y44790610D01*
X58605591Y44790603D01*
X58751262Y44730265D01*
X58751267Y44730263D01*
X58856323Y44709366D01*
X58905917Y44699501D01*
X58905920Y44699500D01*
X58905922Y44699500D01*
X59063608Y44699500D01*
X59063609Y44699501D01*
X59218261Y44730263D01*
X59363943Y44790606D01*
X59495053Y44878211D01*
X59606553Y44989711D01*
X59694158Y45120821D01*
X59703955Y45144476D01*
X59730833Y45184703D01*
X65766930Y51220799D01*
X65828253Y51254284D01*
X65854611Y51257118D01*
X83581538Y51257118D01*
X83689294Y51278553D01*
X83726531Y51285960D01*
X83863113Y51342534D01*
X83918437Y51379500D01*
X83986034Y51424666D01*
X90082952Y57521584D01*
X90121213Y57578847D01*
X90136323Y57601460D01*
X90141084Y57608587D01*
X90165084Y57644505D01*
X90221658Y57781087D01*
X90250500Y57926082D01*
X90250500Y58195396D01*
X90259939Y58242849D01*
X90261748Y58247216D01*
X90269737Y58266503D01*
X90300500Y58421158D01*
X90300500Y58578842D01*
X90300500Y58578845D01*
X90300499Y58578847D01*
X90293298Y58615049D01*
X90269737Y58733497D01*
X90256062Y58766511D01*
X90209397Y58879173D01*
X90209390Y58879186D01*
X90121789Y59010289D01*
X90121786Y59010293D01*
X90010292Y59121787D01*
X90010288Y59121790D01*
X89893142Y59200065D01*
X89893140Y59200067D01*
X89879190Y59209388D01*
X89879172Y59209398D01*
X89733501Y59269736D01*
X89733489Y59269739D01*
X89581268Y59300018D01*
X134101764Y59300018D01*
X134101764Y56699983D01*
X134112264Y56597204D01*
X134167449Y56430668D01*
X134167451Y56430663D01*
X134185984Y56400616D01*
X134259552Y56281344D01*
X134383608Y56157288D01*
X134532929Y56065186D01*
X134699466Y56010001D01*
X134802254Y55999500D01*
X134802259Y55999500D01*
X137402269Y55999500D01*
X137402274Y55999500D01*
X137505062Y56010001D01*
X137671599Y56065186D01*
X137820920Y56157288D01*
X137944976Y56281344D01*
X138037078Y56430665D01*
X138092263Y56597202D01*
X138102764Y56699990D01*
X138102764Y59300010D01*
X138092263Y59402798D01*
X138037078Y59569335D01*
X137944976Y59718656D01*
X137820920Y59842712D01*
X137728154Y59899930D01*
X137671601Y59934813D01*
X137671596Y59934815D01*
X137627684Y59949366D01*
X137505062Y59989999D01*
X137505060Y59990000D01*
X137402281Y60000500D01*
X137402274Y60000500D01*
X134802254Y60000500D01*
X134802246Y60000500D01*
X134699467Y59990000D01*
X134699466Y59989999D01*
X134616933Y59962651D01*
X134532931Y59934815D01*
X134532926Y59934813D01*
X134383606Y59842711D01*
X134259553Y59718658D01*
X134167451Y59569338D01*
X134167449Y59569333D01*
X134141065Y59489711D01*
X134112265Y59402798D01*
X134112265Y59402797D01*
X134112264Y59402797D01*
X134101764Y59300018D01*
X89581268Y59300018D01*
X89578845Y59300500D01*
X89578842Y59300500D01*
X89421158Y59300500D01*
X89421155Y59300500D01*
X89266510Y59269739D01*
X89266498Y59269736D01*
X89120827Y59209398D01*
X89120814Y59209391D01*
X88989711Y59121790D01*
X88989707Y59121787D01*
X88878213Y59010293D01*
X88878210Y59010289D01*
X88790609Y58879186D01*
X88790602Y58879173D01*
X88730264Y58733502D01*
X88730261Y58733490D01*
X88699500Y58578847D01*
X88699500Y58578842D01*
X88699500Y58421158D01*
X88710766Y58364518D01*
X88713163Y58352467D01*
X88706934Y58282875D01*
X88679226Y58240596D01*
X83233069Y52794437D01*
X83171746Y52760952D01*
X83145388Y52758118D01*
X69174323Y52758118D01*
X69107284Y52777803D01*
X69061529Y52830607D01*
X69051585Y52899765D01*
X69080610Y52963321D01*
X69086642Y52969799D01*
X69106550Y52989708D01*
X69106553Y52989711D01*
X69194158Y53120821D01*
X69254501Y53266503D01*
X69285264Y53421158D01*
X69285264Y53578842D01*
X69285264Y53578845D01*
X69285263Y53578847D01*
X69265996Y53675709D01*
X69254501Y53733497D01*
X69235440Y53779514D01*
X69194161Y53879173D01*
X69194154Y53879186D01*
X69106553Y54010289D01*
X69106550Y54010293D01*
X68995056Y54121787D01*
X68995052Y54121790D01*
X68863949Y54209391D01*
X68863936Y54209398D01*
X68718265Y54269736D01*
X68718253Y54269739D01*
X68563609Y54300500D01*
X68563606Y54300500D01*
X68405922Y54300500D01*
X68405919Y54300500D01*
X68251275Y54269740D01*
X68251270Y54269738D01*
X68251268Y54269738D01*
X68251267Y54269737D01*
X68227608Y54259938D01*
X68180160Y54250500D01*
X66910844Y54250500D01*
X66765856Y54221660D01*
X66765846Y54221657D01*
X66629275Y54165088D01*
X66629263Y54165081D01*
X66596011Y54142862D01*
X66596010Y54142861D01*
X66506343Y54082949D01*
X66506342Y54082948D01*
X64909430Y52486034D01*
X64909428Y52486032D01*
X58669467Y46246073D01*
X58629244Y46219195D01*
X58605583Y46209394D01*
X58605582Y46209393D01*
X58474479Y46121793D01*
X58474471Y46121787D01*
X58362977Y46010293D01*
X58362974Y46010289D01*
X58275373Y45879186D01*
X58275366Y45879173D01*
X58215028Y45733502D01*
X58215025Y45733490D01*
X58184264Y45578847D01*
X57585264Y45578847D01*
X57585264Y56199903D01*
X57604949Y56266942D01*
X57621583Y56287584D01*
X59033499Y57699500D01*
X60499426Y59165428D01*
X60560747Y59198911D01*
X60562914Y59199362D01*
X60620849Y59210887D01*
X60718261Y59230263D01*
X60863943Y59290606D01*
X60995053Y59378211D01*
X61106553Y59489711D01*
X61194158Y59620821D01*
X61254501Y59766503D01*
X61285264Y59921158D01*
X61285264Y60078842D01*
X61285264Y60078845D01*
X61285263Y60078847D01*
X61254502Y60233490D01*
X61254501Y60233497D01*
X61207782Y60346287D01*
X61194160Y60379175D01*
X61194158Y60379178D01*
X61194158Y60379179D01*
X61159458Y60431111D01*
X61138580Y60497785D01*
X61157064Y60565165D01*
X61159440Y60568864D01*
X61194158Y60620821D01*
X61254501Y60766503D01*
X61285264Y60921158D01*
X61285264Y61078842D01*
X61285264Y61078845D01*
X61285263Y61078847D01*
X61280737Y61101602D01*
X61254501Y61233497D01*
X61205187Y61352551D01*
X61201951Y61382655D01*
X61196372Y61412413D01*
X61198039Y61419041D01*
X61197719Y61422019D01*
X61204866Y61446670D01*
X61204983Y61446961D01*
X61254501Y61566506D01*
X61255417Y61571112D01*
X61259449Y61581037D01*
X61277800Y61604132D01*
X61293970Y61628804D01*
X61299292Y61631178D01*
X61302917Y61635739D01*
X61330840Y61645246D01*
X61357783Y61657260D01*
X61363543Y61656380D01*
X61369059Y61658257D01*
X61397692Y61651157D01*
X61426850Y61646698D01*
X61432967Y61642410D01*
X61436875Y61641441D01*
X61441812Y61636210D01*
X61462013Y61622050D01*
X63197945Y59886118D01*
X63231430Y59824795D01*
X63234264Y59798437D01*
X63234264Y57804604D01*
X63224826Y57757156D01*
X63215027Y57733497D01*
X63215026Y57733494D01*
X63215024Y57733489D01*
X63184264Y57578847D01*
X63184264Y57421154D01*
X63215025Y57266511D01*
X63215028Y57266499D01*
X63275366Y57120828D01*
X63275373Y57120815D01*
X63362974Y56989712D01*
X63362977Y56989708D01*
X63474471Y56878214D01*
X63474475Y56878211D01*
X63605578Y56790610D01*
X63605591Y56790603D01*
X63751262Y56730265D01*
X63751267Y56730263D01*
X63903459Y56699990D01*
X63905917Y56699501D01*
X63905920Y56699500D01*
X63905922Y56699500D01*
X64063608Y56699500D01*
X64063609Y56699501D01*
X64218261Y56730263D01*
X64363943Y56790606D01*
X64495053Y56878211D01*
X64606553Y56989711D01*
X64694158Y57120821D01*
X64754501Y57266503D01*
X64785264Y57421158D01*
X64785264Y57578842D01*
X64785264Y57578845D01*
X64785263Y57578847D01*
X64754503Y57733489D01*
X64754502Y57733492D01*
X64754501Y57733497D01*
X64744701Y57757156D01*
X64735264Y57804604D01*
X64735264Y59078847D01*
X69684264Y59078847D01*
X69684264Y58921154D01*
X69715025Y58766511D01*
X69715028Y58766499D01*
X69775366Y58620828D01*
X69775373Y58620815D01*
X69862974Y58489712D01*
X69862977Y58489708D01*
X69974471Y58378214D01*
X69974475Y58378211D01*
X70105578Y58290610D01*
X70105591Y58290603D01*
X70245439Y58232677D01*
X70251267Y58230263D01*
X70302556Y58220061D01*
X70406613Y58199362D01*
X70468524Y58166977D01*
X70470100Y58165429D01*
X71116048Y57519480D01*
X71116050Y57519479D01*
X71116054Y57519476D01*
X71202918Y57469326D01*
X71252980Y57440423D01*
X71405707Y57399499D01*
X71405709Y57399499D01*
X71571418Y57399499D01*
X71571434Y57399500D01*
X74898095Y57399500D01*
X74898111Y57399499D01*
X74905707Y57399499D01*
X75063818Y57399499D01*
X75063821Y57399499D01*
X75216549Y57440423D01*
X75266668Y57469361D01*
X75353480Y57519480D01*
X75465284Y57631284D01*
X75465285Y57631286D01*
X75499426Y57665428D01*
X75560747Y57698911D01*
X75562914Y57699362D01*
X75620849Y57710887D01*
X75718261Y57730263D01*
X75863943Y57790606D01*
X75995053Y57878211D01*
X76106553Y57989711D01*
X76194158Y58120821D01*
X76254501Y58266503D01*
X76285264Y58421158D01*
X76285264Y58578842D01*
X76285264Y58578845D01*
X76285263Y58578847D01*
X76278062Y58615049D01*
X76254501Y58733497D01*
X76240826Y58766511D01*
X76194161Y58879173D01*
X76194154Y58879186D01*
X76106553Y59010289D01*
X76106550Y59010293D01*
X75995056Y59121787D01*
X75995052Y59121790D01*
X75863949Y59209391D01*
X75863936Y59209398D01*
X75718265Y59269736D01*
X75718253Y59269739D01*
X75563609Y59300500D01*
X75563606Y59300500D01*
X75405922Y59300500D01*
X75405919Y59300500D01*
X75251274Y59269739D01*
X75251262Y59269736D01*
X75105591Y59209398D01*
X75105578Y59209391D01*
X74974475Y59121790D01*
X74974471Y59121787D01*
X74862977Y59010293D01*
X74862974Y59010289D01*
X74775373Y58879186D01*
X74775366Y58879173D01*
X74715028Y58733502D01*
X74715025Y58733490D01*
X74708425Y58700309D01*
X74676040Y58638398D01*
X74615325Y58603824D01*
X74586808Y58600500D01*
X71784862Y58600500D01*
X71717823Y58620185D01*
X71697181Y58636819D01*
X71319337Y59014663D01*
X71285852Y59075986D01*
X71285401Y59078153D01*
X71277036Y59120208D01*
X71254501Y59233497D01*
X71253671Y59235501D01*
X71194161Y59379173D01*
X71194154Y59379186D01*
X71106553Y59510289D01*
X71106550Y59510293D01*
X70995056Y59621787D01*
X70995052Y59621790D01*
X70863949Y59709391D01*
X70863936Y59709398D01*
X70718265Y59769736D01*
X70718253Y59769739D01*
X70563609Y59800500D01*
X70563606Y59800500D01*
X70405922Y59800500D01*
X70405919Y59800500D01*
X70251274Y59769739D01*
X70251262Y59769736D01*
X70105591Y59709398D01*
X70105578Y59709391D01*
X69974475Y59621790D01*
X69974471Y59621787D01*
X69862977Y59510293D01*
X69862974Y59510289D01*
X69775373Y59379186D01*
X69775366Y59379173D01*
X69715028Y59233502D01*
X69715025Y59233490D01*
X69684264Y59078847D01*
X64735264Y59078847D01*
X64735264Y60234588D01*
X64706423Y60379575D01*
X64706422Y60379576D01*
X64706422Y60379580D01*
X64706420Y60379585D01*
X64649849Y60516160D01*
X64649848Y60516162D01*
X64603631Y60585331D01*
X64572807Y60631464D01*
X64567718Y60639081D01*
X64567716Y60639083D01*
X62159302Y63047498D01*
X62075672Y63131128D01*
X134101764Y63131128D01*
X134101764Y62868873D01*
X134124738Y62694378D01*
X134135994Y62608884D01*
X134197350Y62379901D01*
X134203866Y62355582D01*
X134203869Y62355572D01*
X134304217Y62113310D01*
X134304222Y62113300D01*
X134435339Y61886197D01*
X134594982Y61678149D01*
X134594990Y61678140D01*
X134780404Y61492726D01*
X134780412Y61492719D01*
X134780413Y61492718D01*
X134795835Y61480884D01*
X134988460Y61333076D01*
X135215563Y61201959D01*
X135215573Y61201954D01*
X135413947Y61119785D01*
X135457845Y61101602D01*
X135711148Y61033730D01*
X135971144Y60999500D01*
X135971151Y60999500D01*
X136233377Y60999500D01*
X136233384Y60999500D01*
X136493380Y61033730D01*
X136746683Y61101602D01*
X136988961Y61201957D01*
X137216067Y61333076D01*
X137424115Y61492718D01*
X137424119Y61492723D01*
X137424124Y61492726D01*
X137609538Y61678140D01*
X137609541Y61678145D01*
X137609546Y61678149D01*
X137769188Y61886197D01*
X137900307Y62113303D01*
X138000662Y62355581D01*
X138068534Y62608884D01*
X138102764Y62868880D01*
X138102764Y63131120D01*
X138068534Y63391116D01*
X138000662Y63644419D01*
X137951358Y63763449D01*
X137900310Y63886691D01*
X137900305Y63886701D01*
X137769188Y64113804D01*
X137609545Y64321852D01*
X137609538Y64321860D01*
X137424124Y64507274D01*
X137424115Y64507282D01*
X137216067Y64666925D01*
X136988964Y64798042D01*
X136988954Y64798047D01*
X136746692Y64898395D01*
X136746685Y64898397D01*
X136746683Y64898398D01*
X136493380Y64966270D01*
X136435603Y64973877D01*
X136233391Y65000500D01*
X136233384Y65000500D01*
X135971144Y65000500D01*
X135971136Y65000500D01*
X135740036Y64970074D01*
X135711148Y64966270D01*
X135457845Y64898398D01*
X135457835Y64898395D01*
X135215573Y64798047D01*
X135215563Y64798042D01*
X134988460Y64666925D01*
X134780412Y64507282D01*
X134594982Y64321852D01*
X134435339Y64113804D01*
X134304222Y63886701D01*
X134304217Y63886691D01*
X134203869Y63644429D01*
X134203866Y63644419D01*
X134135994Y63391115D01*
X134101764Y63131128D01*
X62075672Y63131128D01*
X60518247Y64688553D01*
X60518240Y64688559D01*
X60444555Y64737793D01*
X60444555Y64737792D01*
X60395317Y64770692D01*
X60258743Y64827262D01*
X60258733Y64827265D01*
X60113746Y64856105D01*
X60113744Y64856105D01*
X12093899Y64856105D01*
X12093893Y64856105D01*
X12065059Y64850371D01*
X12065060Y64850370D01*
X11948910Y64827266D01*
X11948900Y64827263D01*
X11868898Y64794126D01*
X11868899Y64794125D01*
X11812322Y64770690D01*
X11730189Y64715810D01*
X11689402Y64688558D01*
X11689398Y64688555D01*
X5901809Y58900966D01*
X5871431Y58855498D01*
X5871429Y58855495D01*
X5819683Y58778054D01*
X5819676Y58778041D01*
X5763107Y58641470D01*
X5763104Y58641461D01*
X5749953Y58575346D01*
X5717567Y58513436D01*
X5656851Y58478862D01*
X5587081Y58482603D01*
X5530410Y58523470D01*
X5528018Y58526654D01*
X5427249Y58665351D01*
X5427245Y58665356D01*
X5276926Y58815675D01*
X5104960Y58940614D01*
X5104255Y58940974D01*
X5096194Y58945080D01*
X5045399Y58993053D01*
X5028603Y59060873D01*
X5051139Y59127009D01*
X5096194Y59166050D01*
X5104956Y59170514D01*
X5191636Y59233490D01*
X5276926Y59295456D01*
X5276928Y59295459D01*
X5276932Y59295461D01*
X5427244Y59445773D01*
X5427246Y59445777D01*
X5427249Y59445779D01*
X5552188Y59617745D01*
X5552187Y59617745D01*
X5552191Y59617749D01*
X5648697Y59807153D01*
X5714386Y60009322D01*
X5747640Y60219278D01*
X5747640Y60431852D01*
X5714386Y60641808D01*
X5648697Y60843977D01*
X5552191Y61033381D01*
X5552189Y61033384D01*
X5552188Y61033386D01*
X5427249Y61205352D01*
X5276926Y61355675D01*
X5104960Y61480614D01*
X5104255Y61480974D01*
X5096194Y61485080D01*
X5045399Y61533053D01*
X5028603Y61600873D01*
X5051139Y61667009D01*
X5096194Y61706050D01*
X5104956Y61710514D01*
X5191278Y61773230D01*
X5276926Y61835456D01*
X5276928Y61835459D01*
X5276932Y61835461D01*
X5427244Y61985773D01*
X5427246Y61985777D01*
X5427249Y61985779D01*
X5552188Y62157745D01*
X5552187Y62157745D01*
X5552191Y62157749D01*
X5648697Y62347153D01*
X5714386Y62549322D01*
X5747640Y62759278D01*
X5747640Y62971852D01*
X5714386Y63181808D01*
X5648697Y63383977D01*
X5552191Y63573381D01*
X5552189Y63573384D01*
X5552188Y63573386D01*
X5427249Y63745352D01*
X5276926Y63895675D01*
X5104960Y64020614D01*
X4915554Y64117121D01*
X4915553Y64117122D01*
X4915552Y64117122D01*
X4713383Y64182811D01*
X4713381Y64182812D01*
X4713380Y64182812D01*
X4552097Y64208357D01*
X4503427Y64216065D01*
X4290853Y64216065D01*
X4242182Y64208357D01*
X4080900Y64182812D01*
X3878725Y64117121D01*
X3689319Y64020614D01*
X3517355Y63895676D01*
X3403813Y63782134D01*
X3342490Y63748650D01*
X3272798Y63753634D01*
X3216865Y63795506D01*
X3199950Y63826483D01*
X3150937Y63957894D01*
X3150933Y63957901D01*
X3064687Y64073110D01*
X3064684Y64073113D01*
X2949475Y64159359D01*
X2949468Y64159363D01*
X2814622Y64209657D01*
X2814623Y64209657D01*
X2755023Y64216064D01*
X2755021Y64216065D01*
X2755013Y64216065D01*
X2755004Y64216065D01*
X959269Y64216065D01*
X959263Y64216064D01*
X899656Y64209657D01*
X764811Y64159363D01*
X764804Y64159359D01*
X649595Y64073113D01*
X649592Y64073110D01*
X563346Y63957901D01*
X563342Y63957894D01*
X513048Y63823048D01*
X506641Y63763449D01*
X506640Y63763430D01*
X-4901932Y63763430D01*
X-4914253Y71027796D01*
X-4894682Y71094867D01*
X-4878087Y71115533D01*
X-1043319Y74963330D01*
X-982056Y74996917D01*
X-955492Y74999796D01*
X143461383Y74992501D01*
G37*
%TD.AperFunction*%
%TD*%
M02*
